<?xml version="1.0" encoding="UTF-8"?>
<svg xmlns="http://www.w3.org/2000/svg"
     xmlns:xlink="http://www.w3.org/1999/xlink"
     xmlns:gadfly="http://www.gadflyjl.org/ns"
     version="1.2"
     width="190mm" height="117.43mm" viewBox="0 0 190 117.43"
     stroke="none"
     fill="#000000"
     stroke-width="0.3"
     font-size="3.88"
>
<defs>
  <marker id="arrow" markerWidth="15" markerHeight="7" refX="5" refY="3.5" orient="auto" markerUnits="strokeWidth">
    <path d="M0,0 L15,3.5 L0,7 z" stroke="context-stroke" fill="context-stroke"/>
  </marker>
</defs>
<g class="plotroot xscalable yscalable" id="img-95248443-1">
  <g font-size="3.88" font-family="'PT Sans','Helvetica Neue','Helvetica',sans-serif" fill="#564A55" stroke="#000000" stroke-opacity="0.000" id="img-95248443-2">
    <g transform="translate(108.37,105.82)">
      <g class="primitive">
        <text text-anchor="middle" dy="0.6em">time (days)</text>
      </g>
    </g>
  </g>
  <g class="guide xlabels" font-size="2.82" font-family="'PT Sans Caption','Helvetica Neue','Helvetica',sans-serif" fill="#6C606B" id="img-95248443-3">
    <g transform="translate(33.74,99.14)">
      <g class="primitive">
        <text text-anchor="middle" dy="0.6em">0</text>
      </g>
    </g>
    <g transform="translate(71.05,99.14)">
      <g class="primitive">
        <text text-anchor="middle" dy="0.6em">500</text>
      </g>
    </g>
    <g transform="translate(108.37,99.14)">
      <g class="primitive">
        <text text-anchor="middle" dy="0.6em">1000</text>
      </g>
    </g>
    <g transform="translate(145.68,99.14)">
      <g class="primitive">
        <text text-anchor="middle" dy="0.6em">1500</text>
      </g>
    </g>
    <g transform="translate(183,99.14)">
      <g class="primitive">
        <text text-anchor="middle" dy="0.6em">2000</text>
      </g>
    </g>
  </g>
  <g clip-path="url(#img-95248443-4)">
    <g id="img-95248443-5">
      <g pointer-events="visible" fill="#000000" fill-opacity="0.000" stroke="#000000" stroke-opacity="0.000" class="guide background" id="img-95248443-6">
        <g transform="translate(108.37,90.71)" id="img-95248443-7">
          <path d="M-76.63,-7.43 L 76.63 -7.43 76.63 7.43 -76.63 7.43 z" class="primitive"/>
        </g>
      </g>
      <g class="guide ygridlines xfixed" stroke-dasharray="0.5,0.5" stroke-width="0.2" stroke="#D0D0E0" id="img-95248443-8">
        <g transform="translate(108.37,96.14)" id="img-95248443-9">
          <path fill="none" d="M-76.63,0 L 76.63 0" class="primitive"/>
        </g>
        <g transform="translate(108.37,93.43)" id="img-95248443-10">
          <path fill="none" d="M-76.63,0 L 76.63 0" class="primitive"/>
        </g>
        <g transform="translate(108.37,90.71)" id="img-95248443-11">
          <path fill="none" d="M-76.63,0 L 76.63 0" class="primitive"/>
        </g>
        <g transform="translate(108.37,88)" id="img-95248443-12">
          <path fill="none" d="M-76.63,0 L 76.63 0" class="primitive"/>
        </g>
        <g transform="translate(108.37,85.29)" id="img-95248443-13">
          <path fill="none" d="M-76.63,0 L 76.63 0" class="primitive"/>
        </g>
      </g>
      <g class="guide xgridlines yfixed" stroke-dasharray="0.5,0.5" stroke-width="0.2" stroke="#D0D0E0" id="img-95248443-14">
        <g transform="translate(33.74,90.71)" id="img-95248443-15">
          <path fill="none" d="M0,-7.43 L 0 7.43" class="primitive"/>
        </g>
        <g transform="translate(71.05,90.71)" id="img-95248443-16">
          <path fill="none" d="M0,-7.43 L 0 7.43" class="primitive"/>
        </g>
        <g transform="translate(108.37,90.71)" id="img-95248443-17">
          <path fill="none" d="M0,-7.43 L 0 7.43" class="primitive"/>
        </g>
        <g transform="translate(145.68,90.71)" id="img-95248443-18">
          <path fill="none" d="M0,-7.43 L 0 7.43" class="primitive"/>
        </g>
        <g transform="translate(183,90.71)" id="img-95248443-19">
          <path fill="none" d="M0,-7.43 L 0 7.43" class="primitive"/>
        </g>
      </g>
      <g class="plotpanel" id="img-95248443-20">
        <metadata>
          <boundingbox value="31.73666666666665mm 83.28593333333333mm 153.26333333333335mm 14.85796666666667mm"/>
          <unitbox value="-26.79827597757877 1023.6839309999724 2053.5965519551573 -27.367861999944736"/>
        </metadata>
        <g stroke-width="0.3" fill="#000000" fill-opacity="0.000" class="geometry" id="img-95248443-21">
          <g class="color_LCHab{Float32}(70.0f0,60.0f0,240.0f0)" stroke-dasharray="none" stroke="#00BFFF" id="img-95248443-22">
            <g transform="translate(60.04,89.64)" id="img-95248443-23">
              <path fill="none" d="M-26.3,-2.18 L -26.29 -2.18 -26.22 -2.17 -26.1 -2.16 -25.93 -2.14 -25.72 -2.12 -25.45 -2.09 -25.11 -2.05 -24.7 -2.01 -24.18 -1.95 -23.55 -1.89 -22.81 -1.81 -21.96 -1.72 -21.06 -1.63 -20.14 -1.54 -19.27 -1.45 -18.62 -1.39 -18.09 -1.34 -17.59 -1.29 -17.14 -1.25 -16.68 -1.2 -16.22 -1.16 -15.76 -1.11 -15.29 -1.07 -14.82 -1.03 -14.35 -0.98 -13.88 -0.94 -13.4 -0.89 -12.92 -0.85 -12.43 -0.81 -11.94 -0.76 -11.44 -0.72 -10.94 -0.67 -10.44 -0.63 -9.94 -0.58 -9.43 -0.54 -8.93 -0.5 -8.43 -0.45 -7.92 -0.41 -7.42 -0.37 -6.92 -0.32 -6.42 -0.28 -5.92 -0.24 -5.42 -0.2 -4.92 -0.16 -4.42 -0.11 -3.93 -0.07 -3.43 -0.03 -2.93 0.01 -2.44 0.05 -1.94 0.09 -1.44 0.13 -0.95 0.17 -0.45 0.2 0.05 0.24 0.54 0.28 1.04 0.32 1.54 0.36 2.03 0.4 2.53 0.43 3.03 0.47 3.52 0.51 4.02 0.54 4.52 0.58 5.01 0.62 5.51 0.65 6.01 0.69 6.5 0.72 7 0.76 7.5 0.8 7.99 0.83 8.49 0.87 8.99 0.9 9.49 0.93 9.98 0.97 10.48 1 10.98 1.04 11.47 1.07 11.97 1.1 12.47 1.14 12.97 1.17 13.46 1.2 14.46 1.27 15.49 1.34 16.81 1.42 18.58 1.53 21.19 1.69 25.31 1.93 33.39 2.37 45.19 2.93 60.75 3.56 80.88 4.21 106.23 4.83 122.96 5.15" class="primitive"/>
            </g>
          </g>
        </g>
      </g>
    </g>
  </g>
  <g class="guide ylabels" font-size="2.82" font-family="'PT Sans Caption','Helvetica Neue','Helvetica',sans-serif" fill="#6C606B" id="img-95248443-24">
    <g transform="translate(30.74,96.14)" id="img-95248443-25">
      <g class="primitive">
        <text text-anchor="end" dy="0.35em">1000</text>
      </g>
    </g>
    <g transform="translate(30.74,93.43)" id="img-95248443-26">
      <g class="primitive">
        <text text-anchor="end" dy="0.35em">1005</text>
      </g>
    </g>
    <g transform="translate(30.74,90.71)" id="img-95248443-27">
      <g class="primitive">
        <text text-anchor="end" dy="0.35em">1010</text>
      </g>
    </g>
    <g transform="translate(30.74,88)" id="img-95248443-28">
      <g class="primitive">
        <text text-anchor="end" dy="0.35em">1015</text>
      </g>
    </g>
    <g transform="translate(30.74,85.29)" id="img-95248443-29">
      <g class="primitive">
        <text text-anchor="end" dy="0.35em">1020</text>
      </g>
    </g>
  </g>
  <g font-size="3.88" font-family="'PT Sans','Helvetica Neue','Helvetica',sans-serif" fill="#564A55" stroke="#000000" stroke-opacity="0.000" id="img-95248443-30">
    <g transform="translate(21.04,90.71)" id="img-95248443-31">
      <g class="primitive">
        <text text-anchor="end" dy="0.35em">Cows CL</text>
      </g>
    </g>
  </g>
</g>
<g class="plotroot xscalable yscalable" id="img-95248443-32">
  <g font-size="3.88" font-family="'PT Sans','Helvetica Neue','Helvetica',sans-serif" fill="#564A55" stroke="#000000" stroke-opacity="0.000" id="img-95248443-33">
    <g transform="translate(150.65,66.67)" id="img-95248443-34">
      <g class="primitive">
        <text text-anchor="middle" dy="0.6em">time (days)</text>
      </g>
    </g>
  </g>
  <g class="guide xlabels" font-size="2.82" font-family="'PT Sans Caption','Helvetica Neue','Helvetica',sans-serif" fill="#6C606B" id="img-95248443-35">
    <g transform="translate(118.3,60)" id="img-95248443-36">
      <g class="primitive">
        <text text-anchor="middle" dy="0.6em">0</text>
      </g>
    </g>
    <g transform="translate(134.48,60)" id="img-95248443-37">
      <g class="primitive">
        <text text-anchor="middle" dy="0.6em">500</text>
      </g>
    </g>
    <g transform="translate(150.65,60)" id="img-95248443-38">
      <g class="primitive">
        <text text-anchor="middle" dy="0.6em">1000</text>
      </g>
    </g>
    <g transform="translate(166.83,60)" id="img-95248443-39">
      <g class="primitive">
        <text text-anchor="middle" dy="0.6em">1500</text>
      </g>
    </g>
    <g transform="translate(183,60)" id="img-95248443-40">
      <g class="primitive">
        <text text-anchor="middle" dy="0.6em">2000</text>
      </g>
    </g>
  </g>
  <g clip-path="url(#img-95248443-41)">
    <g id="img-95248443-42">
      <g pointer-events="visible" fill="#000000" fill-opacity="0.000" stroke="#000000" stroke-opacity="0.000" class="guide background" id="img-95248443-43">
        <g transform="translate(150.65,51.57)" id="img-95248443-44">
          <path d="M-34.35,-7.43 L 34.35 -7.43 34.35 7.43 -34.35 7.43 z" class="primitive"/>
        </g>
      </g>
      <g class="guide ygridlines xfixed" stroke-dasharray="0.5,0.5" stroke-width="0.2" stroke="#D0D0E0" id="img-95248443-45">
        <g transform="translate(150.65,57)" id="img-95248443-46">
          <path fill="none" d="M-34.35,0 L 34.35 0" class="primitive"/>
        </g>
        <g transform="translate(150.65,51.57)" id="img-95248443-47">
          <path fill="none" d="M-34.35,0 L 34.35 0" class="primitive"/>
        </g>
        <g transform="translate(150.65,46.14)" id="img-95248443-48">
          <path fill="none" d="M-34.35,0 L 34.35 0" class="primitive"/>
        </g>
      </g>
      <g class="guide xgridlines yfixed" stroke-dasharray="0.5,0.5" stroke-width="0.2" stroke="#D0D0E0" id="img-95248443-49">
        <g transform="translate(118.3,51.57)" id="img-95248443-50">
          <path fill="none" d="M0,-7.43 L 0 7.43" class="primitive"/>
        </g>
        <g transform="translate(134.48,51.57)" id="img-95248443-51">
          <path fill="none" d="M0,-7.43 L 0 7.43" class="primitive"/>
        </g>
        <g transform="translate(150.65,51.57)" id="img-95248443-52">
          <path fill="none" d="M0,-7.43 L 0 7.43" class="primitive"/>
        </g>
        <g transform="translate(166.83,51.57)" id="img-95248443-53">
          <path fill="none" d="M0,-7.43 L 0 7.43" class="primitive"/>
        </g>
        <g transform="translate(183,51.57)" id="img-95248443-54">
          <path fill="none" d="M0,-7.43 L 0 7.43" class="primitive"/>
        </g>
      </g>
      <g class="plotpanel" id="img-95248443-55">
        <metadata>
          <boundingbox value="116.30499999999999mm 44.142966666666666mm 68.695mm 14.857966666666666mm"/>
          <unitbox value="-61.82858026122575 1184.1965499986186 2123.6571605224512 -1368.3930999972372"/>
        </metadata>
        <g stroke-width="0.3" fill="#000000" fill-opacity="0.000" class="geometry" id="img-95248443-56">
          <g class="color_LCHab{Float32}(70.0f0,60.0f0,240.0f0)" stroke-dasharray="none" stroke="#00BFFF" id="img-95248443-57">
            <g transform="translate(129.7,48.32)" id="img-95248443-58">
              <path fill="none" d="M-11.4,8.64 L -11.4 8.64 -11.37 8.64 -11.31 8.64 -11.24 8.64 -11.15 8.64 -11.03 8.63 -10.88 8.62 -10.7 8.6 -10.48 8.55 -10.21 8.45 -9.89 8.24 -9.52 7.78 -9.13 6.87 -8.73 5.35 -8.35 3.58 -8.07 2.3 -7.84 1.43 -7.63 0.78 -7.43 0.3 -7.23 -0.09 -7.03 -0.41 -6.83 -0.67 -6.63 -0.89 -6.42 -1.07 -6.22 -1.22 -6.01 -1.35 -5.81 -1.45 -5.6 -1.53 -5.39 -1.61 -5.17 -1.66 -4.96 -1.71 -4.74 -1.75 -4.53 -1.79 -4.31 -1.81 -4.09 -1.84 -3.87 -1.85 -3.65 -1.87 -3.43 -1.88 -3.22 -1.89 -3 -1.9 -2.78 -1.9 -2.57 -1.91 -2.35 -1.91 -2.13 -1.92 -1.92 -1.92 -1.7 -1.92 -1.49 -1.92 -1.27 -1.92 -1.06 -1.92 -0.84 -1.92 -0.62 -1.92 -0.41 -1.92 -0.19 -1.92 0.02 -1.92 0.24 -1.92 0.45 -1.92 0.67 -1.92 0.88 -1.92 1.1 -1.92 1.31 -1.92 1.53 -1.92 1.74 -1.92 1.96 -1.92 2.17 -1.92 2.39 -1.92 2.6 -1.92 2.82 -1.92 3.03 -1.91 3.25 -1.91 3.47 -1.91 3.68 -1.91 3.9 -1.91 4.11 -1.91 4.33 -1.91 4.54 -1.91 4.76 -1.91 4.97 -1.91 5.19 -1.91 5.4 -1.91 5.62 -1.91 5.84 -1.91 6.27 -1.9 6.72 -1.9 7.28 -1.9 8.05 -1.9 9.19 -1.9 10.97 -1.89 14.47 -1.88 19.58 -1.87 26.33 -1.86 35.05 -1.85 46.04 -1.83 53.3 -1.83" class="primitive"/>
            </g>
          </g>
        </g>
      </g>
    </g>
  </g>
  <g class="guide ylabels" font-size="2.82" font-family="'PT Sans Caption','Helvetica Neue','Helvetica',sans-serif" fill="#6C606B" id="img-95248443-59">
    <g transform="translate(115.3,57)" id="img-95248443-60">
      <g class="primitive">
        <text text-anchor="end" dy="0.35em">0</text>
      </g>
    </g>
    <g transform="translate(115.3,51.57)" id="img-95248443-61">
      <g class="primitive">
        <text text-anchor="end" dy="0.35em">500</text>
      </g>
    </g>
    <g transform="translate(115.3,46.14)" id="img-95248443-62">
      <g class="primitive">
        <text text-anchor="end" dy="0.35em">1000</text>
      </g>
    </g>
  </g>
  <g font-size="3.88" font-family="'PT Sans','Helvetica Neue','Helvetica',sans-serif" fill="#564A55" stroke="#000000" stroke-opacity="0.000" id="img-95248443-63">
    <g transform="translate(103.81,49.57)" id="img-95248443-64">
      <g class="primitive">
        <text text-anchor="middle" dy="0.35em" transform="rotate(-90,0, 2)">I_ch</text>
      </g>
    </g>
  </g>
</g>
<g class="plotroot xscalable yscalable" id="img-95248443-65">
  <g font-size="3.88" font-family="'PT Sans','Helvetica Neue','Helvetica',sans-serif" fill="#564A55" stroke="#000000" stroke-opacity="0.000" id="img-95248443-66">
    <g transform="translate(54.82,66.67)" id="img-95248443-67">
      <g class="primitive">
        <text text-anchor="middle" dy="0.6em">time (days)</text>
      </g>
    </g>
  </g>
  <g class="guide xlabels" font-size="2.82" font-family="'PT Sans Caption','Helvetica Neue','Helvetica',sans-serif" fill="#6C606B" id="img-95248443-68">
    <g transform="translate(21.63,60)" id="img-95248443-69">
      <g class="primitive">
        <text text-anchor="middle" dy="0.6em">0</text>
      </g>
    </g>
    <g transform="translate(38.22,60)" id="img-95248443-70">
      <g class="primitive">
        <text text-anchor="middle" dy="0.6em">500</text>
      </g>
    </g>
    <g transform="translate(54.82,60)" id="img-95248443-71">
      <g class="primitive">
        <text text-anchor="middle" dy="0.6em">1000</text>
      </g>
    </g>
    <g transform="translate(71.41,60)" id="img-95248443-72">
      <g class="primitive">
        <text text-anchor="middle" dy="0.6em">1500</text>
      </g>
    </g>
    <g transform="translate(88,60)" id="img-95248443-73">
      <g class="primitive">
        <text text-anchor="middle" dy="0.6em">2000</text>
      </g>
    </g>
  </g>
  <g clip-path="url(#img-95248443-74)">
    <g id="img-95248443-75">
      <g pointer-events="visible" fill="#000000" fill-opacity="0.000" stroke="#000000" stroke-opacity="0.000" class="guide background" id="img-95248443-76">
        <g transform="translate(54.82,51.57)" id="img-95248443-77">
          <path d="M-35.18,-7.43 L 35.18 -7.43 35.18 7.43 -35.18 7.43 z" class="primitive"/>
        </g>
      </g>
      <g class="guide ygridlines xfixed" stroke-dasharray="0.5,0.5" stroke-width="0.2" stroke="#D0D0E0" id="img-95248443-78">
        <g transform="translate(54.82,57)" id="img-95248443-79">
          <path fill="none" d="M-35.18,0 L 35.18 0" class="primitive"/>
        </g>
        <g transform="translate(54.82,53.38)" id="img-95248443-80">
          <path fill="none" d="M-35.18,0 L 35.18 0" class="primitive"/>
        </g>
        <g transform="translate(54.82,49.76)" id="img-95248443-81">
          <path fill="none" d="M-35.18,0 L 35.18 0" class="primitive"/>
        </g>
        <g transform="translate(54.82,46.14)" id="img-95248443-82">
          <path fill="none" d="M-35.18,0 L 35.18 0" class="primitive"/>
        </g>
      </g>
      <g class="guide xgridlines yfixed" stroke-dasharray="0.5,0.5" stroke-width="0.2" stroke="#D0D0E0" id="img-95248443-83">
        <g transform="translate(21.63,51.57)" id="img-95248443-84">
          <path fill="none" d="M0,-7.43 L 0 7.43" class="primitive"/>
        </g>
        <g transform="translate(38.22,51.57)" id="img-95248443-85">
          <path fill="none" d="M0,-7.43 L 0 7.43" class="primitive"/>
        </g>
        <g transform="translate(54.82,51.57)" id="img-95248443-86">
          <path fill="none" d="M0,-7.43 L 0 7.43" class="primitive"/>
        </g>
        <g transform="translate(71.41,51.57)" id="img-95248443-87">
          <path fill="none" d="M0,-7.43 L 0 7.43" class="primitive"/>
        </g>
        <g transform="translate(88,51.57)" id="img-95248443-88">
          <path fill="none" d="M0,-7.43 L 0 7.43" class="primitive"/>
        </g>
      </g>
      <g class="plotpanel" id="img-95248443-89">
        <metadata>
          <boundingbox value="19.63166666666666mm 44.142966666666666mm 70.36833333333334mm 14.857966666666668mm"/>
          <unitbox value="-60.269706938550016 177.62948249979277 2120.5394138771003 -205.25896499958554"/>
        </metadata>
        <g stroke-width="0.3" fill="#000000" fill-opacity="0.000" class="geometry" id="img-95248443-90">
          <g class="color_LCHab{Float32}(70.0f0,60.0f0,240.0f0)" stroke-dasharray="none" stroke="#00BFFF" id="img-95248443-91">
            <g transform="translate(33.33,56.19)" id="img-95248443-92">
              <path fill="none" d="M-11.69,-0.64 L -11.69 -0.64 -11.66 -0.64 -11.6 -0.64 -11.53 -0.65 -11.43 -0.67 -11.32 -0.71 -11.17 -0.81 -10.98 -1.02 -10.75 -1.46 -10.47 -2.34 -10.14 -3.86 -9.77 -5.97 -9.36 -7.82 -8.95 -7.75 -8.57 -5.59 -8.28 -3.53 -8.04 -2.16 -7.82 -1.25 -7.62 -0.69 -7.42 -0.31 -7.21 -0.05 -7.01 0.14 -6.8 0.27 -6.59 0.37 -6.38 0.44 -6.17 0.5 -5.96 0.55 -5.74 0.58 -5.53 0.61 -5.31 0.63 -5.09 0.65 -4.87 0.66 -4.64 0.67 -4.42 0.68 -4.2 0.69 -3.97 0.7 -3.75 0.7 -3.52 0.7 -3.3 0.71 -3.08 0.71 -2.85 0.71 -2.63 0.71 -2.41 0.72 -2.19 0.72 -1.97 0.72 -1.75 0.72 -1.52 0.72 -1.3 0.72 -1.08 0.72 -0.86 0.72 -0.64 0.72 -0.42 0.72 -0.2 0.72 0.02 0.72 0.24 0.72 0.46 0.72 0.68 0.72 0.9 0.72 1.13 0.72 1.35 0.72 1.57 0.72 1.79 0.72 2.01 0.72 2.23 0.72 2.45 0.72 2.67 0.72 2.89 0.72 3.11 0.72 3.33 0.72 3.55 0.72 3.78 0.72 4 0.72 4.22 0.72 4.44 0.72 4.66 0.72 4.88 0.72 5.1 0.72 5.32 0.72 5.54 0.72 5.77 0.72 5.99 0.72 6.43 0.72 6.89 0.72 7.47 0.72 8.26 0.72 9.42 0.72 11.26 0.72 14.85 0.72 20.09 0.72 27.01 0.72 35.96 0.72 47.23 0.72 54.67 0.72" class="primitive"/>
            </g>
          </g>
        </g>
      </g>
    </g>
  </g>
  <g class="guide ylabels" font-size="2.82" font-family="'PT Sans Caption','Helvetica Neue','Helvetica',sans-serif" fill="#6C606B" id="img-95248443-93">
    <g transform="translate(18.63,57)" id="img-95248443-94">
      <g class="primitive">
        <text text-anchor="end" dy="0.35em">0</text>
      </g>
    </g>
    <g transform="translate(18.63,53.38)" id="img-95248443-95">
      <g class="primitive">
        <text text-anchor="end" dy="0.35em">50</text>
      </g>
    </g>
    <g transform="translate(18.63,49.76)" id="img-95248443-96">
      <g class="primitive">
        <text text-anchor="end" dy="0.35em">100</text>
      </g>
    </g>
    <g transform="translate(18.63,46.14)" id="img-95248443-97">
      <g class="primitive">
        <text text-anchor="end" dy="0.35em">150</text>
      </g>
    </g>
  </g>
  <g font-size="3.88" font-family="'PT Sans','Helvetica Neue','Helvetica',sans-serif" fill="#564A55" stroke="#000000" stroke-opacity="0.000" id="img-95248443-98">
    <g transform="translate(8.81,49.57)" id="img-95248443-99">
      <g class="primitive">
        <text text-anchor="middle" dy="0.35em" transform="rotate(-90,0, 2)">I_cl</text>
      </g>
    </g>
  </g>
</g>
<g class="plotroot xscalable yscalable" id="img-95248443-100">
  <g font-size="3.88" font-family="'PT Sans','Helvetica Neue','Helvetica',sans-serif" fill="#564A55" stroke="#000000" stroke-opacity="0.000" id="img-95248443-101">
    <g transform="translate(150.68,27.53)" id="img-95248443-102">
      <g class="primitive">
        <text text-anchor="middle" dy="0.6em">time (days)</text>
      </g>
    </g>
  </g>
  <g class="guide xlabels" font-size="2.82" font-family="'PT Sans Caption','Helvetica Neue','Helvetica',sans-serif" fill="#6C606B" id="img-95248443-103">
    <g transform="translate(118.36,20.86)" id="img-95248443-104">
      <g class="primitive">
        <text text-anchor="middle" dy="0.6em">0</text>
      </g>
    </g>
    <g transform="translate(134.52,20.86)" id="img-95248443-105">
      <g class="primitive">
        <text text-anchor="middle" dy="0.6em">500</text>
      </g>
    </g>
    <g transform="translate(150.68,20.86)" id="img-95248443-106">
      <g class="primitive">
        <text text-anchor="middle" dy="0.6em">1000</text>
      </g>
    </g>
    <g transform="translate(166.84,20.86)" id="img-95248443-107">
      <g class="primitive">
        <text text-anchor="middle" dy="0.6em">1500</text>
      </g>
    </g>
    <g transform="translate(183,20.86)" id="img-95248443-108">
      <g class="primitive">
        <text text-anchor="middle" dy="0.6em">2000</text>
      </g>
    </g>
  </g>
  <g clip-path="url(#img-95248443-109)">
    <g id="img-95248443-110">
      <g pointer-events="visible" fill="#000000" fill-opacity="0.000" stroke="#000000" stroke-opacity="0.000" class="guide background" id="img-95248443-111">
        <g transform="translate(150.68,12.43)" id="img-95248443-112">
          <path d="M-34.32,-7.43 L 34.32 -7.43 34.32 7.43 -34.32 7.43 z" class="primitive"/>
        </g>
      </g>
      <g class="guide ygridlines xfixed" stroke-dasharray="0.5,0.5" stroke-width="0.2" stroke="#D0D0E0" id="img-95248443-113">
        <g transform="translate(150.68,17.86)" id="img-95248443-114">
          <path fill="none" d="M-34.32,0 L 34.32 0" class="primitive"/>
        </g>
        <g transform="translate(150.68,15.69)" id="img-95248443-115">
          <path fill="none" d="M-34.32,0 L 34.32 0" class="primitive"/>
        </g>
        <g transform="translate(150.68,13.51)" id="img-95248443-116">
          <path fill="none" d="M-34.32,0 L 34.32 0" class="primitive"/>
        </g>
        <g transform="translate(150.68,11.34)" id="img-95248443-117">
          <path fill="none" d="M-34.32,0 L 34.32 0" class="primitive"/>
        </g>
        <g transform="translate(150.68,9.17)" id="img-95248443-118">
          <path fill="none" d="M-34.32,0 L 34.32 0" class="primitive"/>
        </g>
        <g transform="translate(150.68,7)" id="img-95248443-119">
          <path fill="none" d="M-34.32,0 L 34.32 0" class="primitive"/>
        </g>
      </g>
      <g class="guide xgridlines yfixed" stroke-dasharray="0.5,0.5" stroke-width="0.2" stroke="#D0D0E0" id="img-95248443-120">
        <g transform="translate(118.36,12.43)" id="img-95248443-121">
          <path fill="none" d="M0,-7.43 L 0 7.43" class="primitive"/>
        </g>
        <g transform="translate(134.52,12.43)" id="img-95248443-122">
          <path fill="none" d="M0,-7.43 L 0 7.43" class="primitive"/>
        </g>
        <g transform="translate(150.68,12.43)" id="img-95248443-123">
          <path fill="none" d="M0,-7.43 L 0 7.43" class="primitive"/>
        </g>
        <g transform="translate(166.84,12.43)" id="img-95248443-124">
          <path fill="none" d="M0,-7.43 L 0 7.43" class="primitive"/>
        </g>
        <g transform="translate(183,12.43)" id="img-95248443-125">
          <path fill="none" d="M0,-7.43 L 0 7.43" class="primitive"/>
        </g>
      </g>
      <g class="plotpanel" id="img-95248443-126">
        <metadata>
          <boundingbox value="116.36416666666666mm 5.0mm 68.63583333333332mm 14.85796666666667mm"/>
          <unitbox value="-61.8851772107835 592.0982749993093 2123.770354421567 -684.1965499986185"/>
        </metadata>
        <g stroke-width="0.3" fill="#000000" fill-opacity="0.000" class="geometry" id="img-95248443-127">
          <g class="color_LCHab{Float32}(70.0f0,60.0f0,240.0f0)" stroke-dasharray="none" stroke="#00BFFF" id="img-95248443-128">
            <g transform="translate(129.75,16.4)" id="img-95248443-129">
              <path fill="none" d="M-11.39,1.41 L -11.38 1.41 -11.36 1.4 -11.3 1.38 -11.23 1.34 -11.14 1.27 -11.02 1.15 -10.87 0.93 -10.69 0.56 -10.47 -0.06 -10.2 -1.01 -9.88 -2.45 -9.51 -4.45 -9.12 -6.62 -8.72 -7.81 -8.35 -7.27 -8.06 -6.09 -7.83 -4.99 -7.62 -4.03 -7.42 -3.26 -7.22 -2.61 -7.03 -2.06 -6.82 -1.59 -6.62 -1.19 -6.42 -0.86 -6.21 -0.59 -6.01 -0.36 -5.8 -0.16 -5.59 -0 -5.38 0.13 -5.17 0.24 -4.96 0.34 -4.74 0.41 -4.52 0.48 -4.3 0.53 -4.09 0.57 -3.87 0.61 -3.65 0.64 -3.43 0.66 -3.21 0.68 -3 0.7 -2.78 0.71 -2.56 0.72 -2.35 0.73 -2.13 0.74 -1.92 0.74 -1.7 0.75 -1.49 0.75 -1.27 0.76 -1.05 0.76 -0.84 0.76 -0.62 0.76 -0.41 0.77 -0.19 0.77 0.02 0.77 0.24 0.77 0.45 0.77 0.67 0.77 0.88 0.77 1.1 0.77 1.31 0.77 1.53 0.77 1.74 0.77 1.96 0.77 2.17 0.77 2.39 0.77 2.6 0.77 2.82 0.77 3.03 0.77 3.25 0.77 3.46 0.77 3.68 0.77 3.89 0.77 4.11 0.77 4.32 0.77 4.54 0.77 4.75 0.77 4.97 0.77 5.18 0.77 5.4 0.77 5.61 0.77 5.83 0.77 6.26 0.77 6.71 0.77 7.28 0.77 8.05 0.77 9.18 0.77 10.96 0.77 14.46 0.77 19.57 0.77 26.31 0.77 35.02 0.77 46 0.77 53.25 0.77" class="primitive"/>
            </g>
          </g>
        </g>
      </g>
    </g>
  </g>
  <g class="guide ylabels" font-size="2.82" font-family="'PT Sans Caption','Helvetica Neue','Helvetica',sans-serif" fill="#6C606B" id="img-95248443-130">
    <g transform="translate(115.36,17.86)" id="img-95248443-131">
      <g class="primitive">
        <text text-anchor="end" dy="0.35em">0</text>
      </g>
    </g>
    <g transform="translate(115.36,15.69)" id="img-95248443-132">
      <g class="primitive">
        <text text-anchor="end" dy="0.35em">100</text>
      </g>
    </g>
    <g transform="translate(115.36,13.51)" id="img-95248443-133">
      <g class="primitive">
        <text text-anchor="end" dy="0.35em">200</text>
      </g>
    </g>
    <g transform="translate(115.36,11.34)" id="img-95248443-134">
      <g class="primitive">
        <text text-anchor="end" dy="0.35em">300</text>
      </g>
    </g>
    <g transform="translate(115.36,9.17)" id="img-95248443-135">
      <g class="primitive">
        <text text-anchor="end" dy="0.35em">400</text>
      </g>
    </g>
    <g transform="translate(115.36,7)" id="img-95248443-136">
      <g class="primitive">
        <text text-anchor="end" dy="0.35em">500</text>
      </g>
    </g>
  </g>
  <g font-size="3.88" font-family="'PT Sans','Helvetica Neue','Helvetica',sans-serif" fill="#564A55" stroke="#000000" stroke-opacity="0.000" id="img-95248443-137">
    <g transform="translate(107.34,12.43)" id="img-95248443-138">
      <g class="primitive">
        <text text-anchor="end" dy="0.35em">L_c</text>
      </g>
    </g>
  </g>
</g>
<g class="plotroot xscalable yscalable" id="img-95248443-139">
  <g font-size="3.88" font-family="'PT Sans','Helvetica Neue','Helvetica',sans-serif" fill="#564A55" stroke="#000000" stroke-opacity="0.000" id="img-95248443-140">
    <g transform="translate(55.65,27.53)" id="img-95248443-141">
      <g class="primitive">
        <text text-anchor="middle" dy="0.6em">time (days)</text>
      </g>
    </g>
  </g>
  <g class="guide xlabels" font-size="2.82" font-family="'PT Sans Caption','Helvetica Neue','Helvetica',sans-serif" fill="#6C606B" id="img-95248443-142">
    <g transform="translate(23.3,20.86)" id="img-95248443-143">
      <g class="primitive">
        <text text-anchor="middle" dy="0.6em">0</text>
      </g>
    </g>
    <g transform="translate(39.48,20.86)" id="img-95248443-144">
      <g class="primitive">
        <text text-anchor="middle" dy="0.6em">500</text>
      </g>
    </g>
    <g transform="translate(55.65,20.86)" id="img-95248443-145">
      <g class="primitive">
        <text text-anchor="middle" dy="0.6em">1000</text>
      </g>
    </g>
    <g transform="translate(71.83,20.86)" id="img-95248443-146">
      <g class="primitive">
        <text text-anchor="middle" dy="0.6em">1500</text>
      </g>
    </g>
    <g transform="translate(88,20.86)" id="img-95248443-147">
      <g class="primitive">
        <text text-anchor="middle" dy="0.6em">2000</text>
      </g>
    </g>
  </g>
  <g clip-path="url(#img-95248443-148)">
    <g id="img-95248443-149">
      <g pointer-events="visible" fill="#000000" fill-opacity="0.000" stroke="#000000" stroke-opacity="0.000" class="guide background" id="img-95248443-150">
        <g transform="translate(55.65,12.43)" id="img-95248443-151">
          <path d="M-34.35,-7.43 L 34.35 -7.43 34.35 7.43 -34.35 7.43 z" class="primitive"/>
        </g>
      </g>
      <g class="guide ygridlines xfixed" stroke-dasharray="0.5,0.5" stroke-width="0.2" stroke="#D0D0E0" id="img-95248443-152">
        <g transform="translate(55.65,17.86)" id="img-95248443-153">
          <path fill="none" d="M-34.35,0 L 34.35 0" class="primitive"/>
        </g>
        <g transform="translate(55.65,12.43)" id="img-95248443-154">
          <path fill="none" d="M-34.35,0 L 34.35 0" class="primitive"/>
        </g>
        <g transform="translate(55.65,7)" id="img-95248443-155">
          <path fill="none" d="M-34.35,0 L 34.35 0" class="primitive"/>
        </g>
      </g>
      <g class="guide xgridlines yfixed" stroke-dasharray="0.5,0.5" stroke-width="0.2" stroke="#D0D0E0" id="img-95248443-156">
        <g transform="translate(23.3,12.43)" id="img-95248443-157">
          <path fill="none" d="M0,-7.43 L 0 7.43" class="primitive"/>
        </g>
        <g transform="translate(39.48,12.43)" id="img-95248443-158">
          <path fill="none" d="M0,-7.43 L 0 7.43" class="primitive"/>
        </g>
        <g transform="translate(55.65,12.43)" id="img-95248443-159">
          <path fill="none" d="M0,-7.43 L 0 7.43" class="primitive"/>
        </g>
        <g transform="translate(71.83,12.43)" id="img-95248443-160">
          <path fill="none" d="M0,-7.43 L 0 7.43" class="primitive"/>
        </g>
        <g transform="translate(88,12.43)" id="img-95248443-161">
          <path fill="none" d="M0,-7.43 L 0 7.43" class="primitive"/>
        </g>
      </g>
      <g class="plotpanel" id="img-95248443-162">
        <metadata>
          <boundingbox value="21.304999999999993mm 5.0mm 68.695mm 14.857966666666666mm"/>
          <unitbox value="-61.82858026122575 1184.1965499986186 2123.6571605224512 -1368.3930999972372"/>
        </metadata>
        <g stroke-width="0.3" fill="#000000" fill-opacity="0.000" class="geometry" id="img-95248443-163">
          <g class="color_LCHab{Float32}(70.0f0,60.0f0,240.0f0)" stroke-dasharray="none" stroke="#00BFFF" id="img-95248443-164">
            <g transform="translate(34.7,16.4)" id="img-95248443-165">
              <path fill="none" d="M-11.4,-9.29 L -11.4 -9.29 -11.37 -9.29 -11.31 -9.28 -11.24 -9.25 -11.15 -9.22 -11.03 -9.14 -10.88 -9.01 -10.7 -8.77 -10.48 -8.34 -10.21 -7.63 -9.89 -6.47 -9.52 -4.7 -9.13 -2.41 -8.73 -0.32 -8.35 0.87 -8.07 1.24 -7.84 1.36 -7.63 1.4 -7.43 1.41 -7.23 1.42 -7.03 1.42 -6.83 1.42 -6.63 1.43 -6.42 1.43 -6.22 1.43 -6.01 1.43 -5.81 1.43 -5.6 1.43 -5.39 1.43 -5.17 1.43 -4.96 1.43 -4.74 1.43 -4.53 1.43 -4.31 1.43 -4.09 1.43 -3.87 1.43 -3.65 1.43 -3.43 1.44 -3.22 1.44 -3 1.44 -2.78 1.44 -2.57 1.44 -2.35 1.44 -2.13 1.44 -1.92 1.44 -1.7 1.44 -1.49 1.44 -1.27 1.44 -1.06 1.44 -0.84 1.44 -0.62 1.44 -0.41 1.44 -0.19 1.44 0.02 1.44 0.24 1.44 0.45 1.44 0.67 1.44 0.88 1.44 1.1 1.44 1.31 1.44 1.53 1.44 1.74 1.44 1.96 1.44 2.17 1.44 2.39 1.44 2.6 1.44 2.82 1.44 3.03 1.44 3.25 1.44 3.47 1.44 3.68 1.44 3.9 1.44 4.11 1.44 4.33 1.44 4.54 1.44 4.76 1.44 4.97 1.44 5.19 1.44 5.4 1.44 5.62 1.44 5.84 1.44 6.27 1.44 6.72 1.44 7.28 1.44 8.05 1.44 9.19 1.44 10.97 1.44 14.47 1.44 19.58 1.44 26.33 1.44 35.05 1.44 46.04 1.44 53.3 1.44" class="primitive"/>
            </g>
          </g>
        </g>
      </g>
    </g>
  </g>
  <g class="guide ylabels" font-size="2.82" font-family="'PT Sans Caption','Helvetica Neue','Helvetica',sans-serif" fill="#6C606B" id="img-95248443-166">
    <g transform="translate(20.3,17.86)" id="img-95248443-167">
      <g class="primitive">
        <text text-anchor="end" dy="0.35em">0</text>
      </g>
    </g>
    <g transform="translate(20.3,12.43)" id="img-95248443-168">
      <g class="primitive">
        <text text-anchor="end" dy="0.35em">500</text>
      </g>
    </g>
    <g transform="translate(20.3,7)" id="img-95248443-169">
      <g class="primitive">
        <text text-anchor="end" dy="0.35em">1000</text>
      </g>
    </g>
  </g>
  <g font-size="3.88" font-family="'PT Sans','Helvetica Neue','Helvetica',sans-serif" fill="#564A55" stroke="#000000" stroke-opacity="0.000" id="img-95248443-170">
    <g transform="translate(8.81,10.43)" id="img-95248443-171">
      <g class="primitive">
        <text text-anchor="middle" dy="0.35em" transform="rotate(-90,0, 2)">S_c</text>
      </g>
    </g>
  </g>
</g>
<defs>
  <clipPath id="img-95248443-4">
    <path d="M31.74,83.29 L 185 83.29 185 98.14 31.74 98.14" />
  </clipPath>
  <clipPath id="img-95248443-41">
    <path d="M116.3,44.14 L 185 44.14 185 59 116.3 59" />
  </clipPath>
  <clipPath id="img-95248443-74">
    <path d="M19.63,44.14 L 90 44.14 90 59 19.63 59" />
  </clipPath>
  <clipPath id="img-95248443-109">
    <path d="M116.36,5 L 185 5 185 19.86 116.36 19.86" />
  </clipPath>
  <clipPath id="img-95248443-148">
    <path d="M21.3,5 L 90 5 90 19.86 21.3 19.86" />
  </clipPath>
</defs>
</svg>
