<?xml version="1.0" encoding="UTF-8"?>
<svg xmlns="http://www.w3.org/2000/svg"
     xmlns:xlink="http://www.w3.org/1999/xlink"
     xmlns:gadfly="http://www.gadflyjl.org/ns"
     version="1.2"
     width="190mm" height="117.43mm" viewBox="0 0 190 117.43"
     stroke="none"
     fill="#000000"
     stroke-width="0.3"
     font-size="3.88"
>
<defs>
  <marker id="arrow" markerWidth="15" markerHeight="7" refX="5" refY="3.5" orient="auto" markerUnits="strokeWidth">
    <path d="M0,0 L15,3.5 L0,7 z" stroke="context-stroke" fill="context-stroke"/>
  </marker>
</defs>
<g class="plotroot xscalable yscalable" id="img-d972460c-1">
  <g font-size="3.88" font-family="'PT Sans','Helvetica Neue','Helvetica',sans-serif" fill="#564A55" stroke="#000000" stroke-opacity="0.000" id="img-d972460c-2">
    <g transform="translate(155.87,105.82)">
      <g class="primitive">
        <text text-anchor="middle" dy="0.6em">time (days)</text>
      </g>
    </g>
  </g>
  <g class="guide xlabels" font-size="2.82" font-family="'PT Sans Caption','Helvetica Neue','Helvetica',sans-serif" fill="#6C606B" id="img-d972460c-3">
    <g transform="translate(128.74,99.14)">
      <g class="primitive">
        <text text-anchor="middle" dy="0.6em">0</text>
      </g>
    </g>
    <g transform="translate(142.3,99.14)">
      <g class="primitive">
        <text text-anchor="middle" dy="0.6em">500</text>
      </g>
    </g>
    <g transform="translate(155.87,99.14)">
      <g class="primitive">
        <text text-anchor="middle" dy="0.6em">1000</text>
      </g>
    </g>
    <g transform="translate(169.43,99.14)">
      <g class="primitive">
        <text text-anchor="middle" dy="0.6em">1500</text>
      </g>
    </g>
    <g transform="translate(183,99.14)">
      <g class="primitive">
        <text text-anchor="middle" dy="0.6em">2000</text>
      </g>
    </g>
  </g>
  <g clip-path="url(#img-d972460c-4)">
    <g id="img-d972460c-5">
      <g pointer-events="visible" fill="#000000" fill-opacity="0.000" stroke="#000000" stroke-opacity="0.000" class="guide background" id="img-d972460c-6">
        <g transform="translate(155.87,90.71)" id="img-d972460c-7">
          <path d="M-29.13,-7.43 L 29.13 -7.43 29.13 7.43 -29.13 7.43 z" class="primitive"/>
        </g>
      </g>
      <g class="guide ygridlines xfixed" stroke-dasharray="0.5,0.5" stroke-width="0.2" stroke="#D0D0E0" id="img-d972460c-8">
        <g transform="translate(155.87,96.14)" id="img-d972460c-9">
          <path fill="none" d="M-29.13,0 L 29.13 0" class="primitive"/>
        </g>
        <g transform="translate(155.87,92.52)" id="img-d972460c-10">
          <path fill="none" d="M-29.13,0 L 29.13 0" class="primitive"/>
        </g>
        <g transform="translate(155.87,88.91)" id="img-d972460c-11">
          <path fill="none" d="M-29.13,0 L 29.13 0" class="primitive"/>
        </g>
        <g transform="translate(155.87,85.29)" id="img-d972460c-12">
          <path fill="none" d="M-29.13,0 L 29.13 0" class="primitive"/>
        </g>
      </g>
      <g class="guide xgridlines yfixed" stroke-dasharray="0.5,0.5" stroke-width="0.2" stroke="#D0D0E0" id="img-d972460c-13">
        <g transform="translate(128.74,90.71)" id="img-d972460c-14">
          <path fill="none" d="M0,-7.43 L 0 7.43" class="primitive"/>
        </g>
        <g transform="translate(142.3,90.71)" id="img-d972460c-15">
          <path fill="none" d="M0,-7.43 L 0 7.43" class="primitive"/>
        </g>
        <g transform="translate(155.87,90.71)" id="img-d972460c-16">
          <path fill="none" d="M0,-7.43 L 0 7.43" class="primitive"/>
        </g>
        <g transform="translate(169.43,90.71)" id="img-d972460c-17">
          <path fill="none" d="M0,-7.43 L 0 7.43" class="primitive"/>
        </g>
        <g transform="translate(183,90.71)" id="img-d972460c-18">
          <path fill="none" d="M0,-7.43 L 0 7.43" class="primitive"/>
        </g>
      </g>
      <g class="plotpanel" id="img-d972460c-19">
        <metadata>
          <boundingbox value="126.73666666666666mm 83.28593333333333mm 58.263333333333335mm 14.857966666666668mm"/>
          <unitbox value="-73.71460163400698 1776.2948249979277 2147.4292032680137 -2052.5896499958553"/>
        </metadata>
        <g stroke-width="0.3" fill="#000000" fill-opacity="0.000" class="geometry" id="img-d972460c-20">
          <g class="color_LCHab{Float32}(70.0f0,60.0f0,240.0f0)" stroke-dasharray="none" stroke="#00BFFF" id="img-d972460c-21">
            <g transform="translate(148.52,94.86)" id="img-d972460c-22">
              <path fill="none" d="M-19.78,-6.1 L -19.78 -6.08 -19.75 -5.92 -19.69 -5.61 -19.62 -5.22 -19.52 -4.75 -19.4 -4.22 -19.26 -3.64 -19.08 -3.01 -18.87 -2.38 -18.62 -1.76 -18.34 -1.2 -18.04 -0.72 -17.71 -0.31 -17.35 0.02 -16.96 0.28 -16.54 0.48 -16.08 0.64 -15.56 0.76 -14.89 0.85 -14.33 0.9 -13.71 0.93 -13.1 0.95 -12.44 0.96 -11.74 0.97 -10.97 0.98 -10.05 0.98 -9.04 0.98 -8.17 0.98 -7.3 0.98 -6.41 0.98 -5.5 0.98 -4.59 0.98 -3.66 0.98 -2.72 0.98 -1.78 0.98 -0.84 0.98 0.1 0.98 1.05 0.98 2 0.98 2.95 0.98 3.9 0.98 4.86 0.98 5.82 0.98 6.79 0.98 7.77 0.98 8.74 0.98 9.72 0.98 10.7 0.98 11.68 0.98 12.65 0.98 13.62 0.98 14.57 0.98 15.53 0.98 16.47 0.98 17.42 0.98 18.37 0.98 19.32 0.98 20.28 0.98 21.24 0.98 22.21 0.98 23.19 0.98 25.15 0.98 26.7 0.98 28.33 0.98 30.02 0.98 31.82 0.98 33.79 0.98 34.48 0.98" class="primitive"/>
            </g>
          </g>
        </g>
      </g>
    </g>
  </g>
  <g class="guide ylabels" font-size="2.82" font-family="'PT Sans Caption','Helvetica Neue','Helvetica',sans-serif" fill="#6C606B" id="img-d972460c-23">
    <g transform="translate(125.74,96.14)" id="img-d972460c-24">
      <g class="primitive">
        <text text-anchor="end" dy="0.35em">0</text>
      </g>
    </g>
    <g transform="translate(125.74,92.52)" id="img-d972460c-25">
      <g class="primitive">
        <text text-anchor="end" dy="0.35em">500</text>
      </g>
    </g>
    <g transform="translate(125.74,88.91)" id="img-d972460c-26">
      <g class="primitive">
        <text text-anchor="end" dy="0.35em">1000</text>
      </g>
    </g>
    <g transform="translate(125.74,85.29)" id="img-d972460c-27">
      <g class="primitive">
        <text text-anchor="end" dy="0.35em">1500</text>
      </g>
    </g>
  </g>
  <g font-size="3.88" font-family="'PT Sans','Helvetica Neue','Helvetica',sans-serif" fill="#564A55" stroke="#000000" stroke-opacity="0.000" id="img-d972460c-28">
    <g transform="translate(116.04,90.71)" id="img-d972460c-29">
      <g class="primitive">
        <text text-anchor="end" dy="0.35em">Cows CL</text>
      </g>
    </g>
  </g>
</g>
<g class="plotroot xscalable yscalable" id="img-d972460c-30">
  <g font-size="3.88" font-family="'PT Sans','Helvetica Neue','Helvetica',sans-serif" fill="#564A55" stroke="#000000" stroke-opacity="0.000" id="img-d972460c-31">
    <g transform="translate(53.14,105.82)" id="img-d972460c-32">
      <g class="primitive">
        <text text-anchor="middle" dy="0.6em">time (days)</text>
      </g>
    </g>
  </g>
  <g class="guide xlabels" font-size="2.82" font-family="'PT Sans Caption','Helvetica Neue','Helvetica',sans-serif" fill="#6C606B" id="img-d972460c-33">
    <g transform="translate(18.28,99.14)" id="img-d972460c-34">
      <g class="primitive">
        <text text-anchor="middle" dy="0.6em">0</text>
      </g>
    </g>
    <g transform="translate(35.71,99.14)" id="img-d972460c-35">
      <g class="primitive">
        <text text-anchor="middle" dy="0.6em">500</text>
      </g>
    </g>
    <g transform="translate(53.14,99.14)" id="img-d972460c-36">
      <g class="primitive">
        <text text-anchor="middle" dy="0.6em">1000</text>
      </g>
    </g>
    <g transform="translate(70.57,99.14)" id="img-d972460c-37">
      <g class="primitive">
        <text text-anchor="middle" dy="0.6em">1500</text>
      </g>
    </g>
    <g transform="translate(88,99.14)" id="img-d972460c-38">
      <g class="primitive">
        <text text-anchor="middle" dy="0.6em">2000</text>
      </g>
    </g>
  </g>
  <g clip-path="url(#img-d972460c-39)">
    <g id="img-d972460c-40">
      <g pointer-events="visible" fill="#000000" fill-opacity="0.000" stroke="#000000" stroke-opacity="0.000" class="guide background" id="img-d972460c-41">
        <g transform="translate(53.14,90.71)" id="img-d972460c-42">
          <path d="M-36.86,-7.43 L 36.86 -7.43 36.86 7.43 -36.86 7.43 z" class="primitive"/>
        </g>
      </g>
      <g class="guide ygridlines xfixed" stroke-dasharray="0.5,0.5" stroke-width="0.2" stroke="#D0D0E0" id="img-d972460c-43">
        <g transform="translate(53.14,90.71)" id="img-d972460c-44">
          <path fill="none" d="M-36.86,0 L 36.86 0" class="primitive"/>
        </g>
      </g>
      <g class="guide xgridlines yfixed" stroke-dasharray="0.5,0.5" stroke-width="0.2" stroke="#D0D0E0" id="img-d972460c-45">
        <g transform="translate(18.28,90.71)" id="img-d972460c-46">
          <path fill="none" d="M0,-7.43 L 0 7.43" class="primitive"/>
        </g>
        <g transform="translate(35.71,90.71)" id="img-d972460c-47">
          <path fill="none" d="M0,-7.43 L 0 7.43" class="primitive"/>
        </g>
        <g transform="translate(53.14,90.71)" id="img-d972460c-48">
          <path fill="none" d="M0,-7.43 L 0 7.43" class="primitive"/>
        </g>
        <g transform="translate(70.57,90.71)" id="img-d972460c-49">
          <path fill="none" d="M0,-7.43 L 0 7.43" class="primitive"/>
        </g>
        <g transform="translate(88,90.71)" id="img-d972460c-50">
          <path fill="none" d="M0,-7.43 L 0 7.43" class="primitive"/>
        </g>
      </g>
      <g class="plotpanel" id="img-d972460c-51">
        <metadata>
          <boundingbox value="16.284999999999997mm 83.28593333333333mm 73.715mm 14.857966666666666mm"/>
          <unitbox value="-57.37646130674891 1.3683930999972371 2114.752922613498 -2.7367861999944743"/>
        </metadata>
        <g stroke-width="0.3" fill="#000000" fill-opacity="0.000" class="geometry" id="img-d972460c-52">
          <g class="color_LCHab{Float32}(70.0f0,60.0f0,240.0f0)" stroke-dasharray="none" stroke="#00BFFF" id="img-d972460c-53">
            <g transform="translate(43.7,90.71)" id="img-d972460c-54">
              <path fill="none" d="M-25.41,-0 L -25.41 -0 -25.37 -0 -25.3 -0 -25.2 -0 -25.08 -0 -24.93 -0 -24.74 -0 -24.52 -0 -24.24 -0 -23.92 -0 -23.57 -0 -23.18 -0 -22.75 -0 -22.29 -0 -21.79 -0 -21.25 -0 -20.66 -0 -20 -0 -19.13 -0 -18.41 -0 -17.62 -0 -16.83 -0 -15.98 -0 -15.09 -0 -14.09 -0 -12.92 -0 -11.62 -0 -10.5 -0 -9.38 -0 -8.23 -0 -7.07 -0 -5.89 -0 -4.7 -0 -3.5 -0 -2.29 -0 -1.08 -0 0.13 -0 1.35 -0 2.57 -0 3.79 -0 5.01 -0 6.24 -0 7.48 -0 8.73 -0 9.98 -0 11.23 -0 12.49 -0 13.75 -0 15 -0 16.25 -0 17.49 -0 18.72 -0 19.95 -0 21.16 -0 22.38 -0 23.6 -0 24.82 -0 26.05 -0 27.29 -0 28.54 -0 29.79 -0 32.31 -0 34.3 -0 36.4 -0 38.57 -0 40.88 -0 43.41 -0 44.3 -0" class="primitive"/>
            </g>
          </g>
        </g>
      </g>
    </g>
  </g>
  <g class="guide ylabels" font-size="2.82" font-family="'PT Sans Caption','Helvetica Neue','Helvetica',sans-serif" fill="#6C606B" id="img-d972460c-55">
    <g transform="translate(15.28,90.71)" id="img-d972460c-56">
      <g class="primitive">
        <text text-anchor="end" dy="0.35em">0</text>
      </g>
    </g>
  </g>
  <g font-size="3.88" font-family="'PT Sans','Helvetica Neue','Helvetica',sans-serif" fill="#564A55" stroke="#000000" stroke-opacity="0.000" id="img-d972460c-57">
    <g transform="translate(8.81,88.71)" id="img-d972460c-58">
      <g class="primitive">
        <text text-anchor="middle" dy="0.35em" transform="rotate(-90,0, 2)">T_c</text>
      </g>
    </g>
  </g>
</g>
<g class="plotroot xscalable yscalable" id="img-d972460c-59">
  <g font-size="3.88" font-family="'PT Sans','Helvetica Neue','Helvetica',sans-serif" fill="#564A55" stroke="#000000" stroke-opacity="0.000" id="img-d972460c-60">
    <g transform="translate(150.46,66.67)" id="img-d972460c-61">
      <g class="primitive">
        <text text-anchor="middle" dy="0.6em">time (days)</text>
      </g>
    </g>
  </g>
  <g class="guide xlabels" font-size="2.82" font-family="'PT Sans Caption','Helvetica Neue','Helvetica',sans-serif" fill="#6C606B" id="img-d972460c-62">
    <g transform="translate(117.93,60)" id="img-d972460c-63">
      <g class="primitive">
        <text text-anchor="middle" dy="0.6em">0</text>
      </g>
    </g>
    <g transform="translate(134.2,60)" id="img-d972460c-64">
      <g class="primitive">
        <text text-anchor="middle" dy="0.6em">500</text>
      </g>
    </g>
    <g transform="translate(150.46,60)" id="img-d972460c-65">
      <g class="primitive">
        <text text-anchor="middle" dy="0.6em">1000</text>
      </g>
    </g>
    <g transform="translate(166.73,60)" id="img-d972460c-66">
      <g class="primitive">
        <text text-anchor="middle" dy="0.6em">1500</text>
      </g>
    </g>
    <g transform="translate(183,60)" id="img-d972460c-67">
      <g class="primitive">
        <text text-anchor="middle" dy="0.6em">2000</text>
      </g>
    </g>
  </g>
  <g clip-path="url(#img-d972460c-68)">
    <g id="img-d972460c-69">
      <g pointer-events="visible" fill="#000000" fill-opacity="0.000" stroke="#000000" stroke-opacity="0.000" class="guide background" id="img-d972460c-70">
        <g transform="translate(150.46,51.57)" id="img-d972460c-71">
          <path d="M-34.54,-7.43 L 34.54 -7.43 34.54 7.43 -34.54 7.43 z" class="primitive"/>
        </g>
      </g>
      <g class="guide ygridlines xfixed" stroke-dasharray="0.5,0.5" stroke-width="0.2" stroke="#D0D0E0" id="img-d972460c-72">
        <g transform="translate(150.46,57)" id="img-d972460c-73">
          <path fill="none" d="M-34.54,0 L 34.54 0" class="primitive"/>
        </g>
        <g transform="translate(150.46,54.83)" id="img-d972460c-74">
          <path fill="none" d="M-34.54,0 L 34.54 0" class="primitive"/>
        </g>
        <g transform="translate(150.46,52.66)" id="img-d972460c-75">
          <path fill="none" d="M-34.54,0 L 34.54 0" class="primitive"/>
        </g>
        <g transform="translate(150.46,50.49)" id="img-d972460c-76">
          <path fill="none" d="M-34.54,0 L 34.54 0" class="primitive"/>
        </g>
        <g transform="translate(150.46,48.31)" id="img-d972460c-77">
          <path fill="none" d="M-34.54,0 L 34.54 0" class="primitive"/>
        </g>
        <g transform="translate(150.46,46.14)" id="img-d972460c-78">
          <path fill="none" d="M-34.54,0 L 34.54 0" class="primitive"/>
        </g>
      </g>
      <g class="guide xgridlines yfixed" stroke-dasharray="0.5,0.5" stroke-width="0.2" stroke="#D0D0E0" id="img-d972460c-79">
        <g transform="translate(117.93,51.57)" id="img-d972460c-80">
          <path fill="none" d="M0,-7.43 L 0 7.43" class="primitive"/>
        </g>
        <g transform="translate(134.2,51.57)" id="img-d972460c-81">
          <path fill="none" d="M0,-7.43 L 0 7.43" class="primitive"/>
        </g>
        <g transform="translate(150.46,51.57)" id="img-d972460c-82">
          <path fill="none" d="M0,-7.43 L 0 7.43" class="primitive"/>
        </g>
        <g transform="translate(166.73,51.57)" id="img-d972460c-83">
          <path fill="none" d="M0,-7.43 L 0 7.43" class="primitive"/>
        </g>
        <g transform="translate(183,51.57)" id="img-d972460c-84">
          <path fill="none" d="M0,-7.43 L 0 7.43" class="primitive"/>
        </g>
      </g>
      <g class="plotpanel" id="img-d972460c-85">
        <metadata>
          <boundingbox value="115.92833333333333mm 44.142966666666666mm 69.07166666666666mm 14.85796666666667mm"/>
          <unitbox value="-61.47068616653435 29.604913749965462 2122.941372333069 -34.209827499930924"/>
        </metadata>
        <g stroke-width="0.3" fill="#000000" fill-opacity="0.000" class="geometry" id="img-d972460c-86">
          <g class="color_LCHab{Float32}(70.0f0,60.0f0,240.0f0)" stroke-dasharray="none" stroke="#00BFFF" id="img-d972460c-87">
            <g transform="translate(141.65,54.42)" id="img-d972460c-88">
              <path fill="none" d="M-23.72,-6.11 L -23.72 -6.09 -23.68 -5.97 -23.62 -5.75 -23.53 -5.53 -23.41 -5.34 -23.27 -5.2 -23.1 -5.16 -22.88 -5.28 -22.63 -5.61 -22.33 -6.11 -22 -6.66 -21.63 -7.08 -21.23 -7.22 -20.8 -7 -20.34 -6.43 -19.83 -5.56 -19.28 -4.49 -18.66 -3.3 -17.86 -1.94 -17.19 -1.01 -16.45 -0.21 -15.71 0.41 -14.92 0.91 -14.08 1.31 -13.15 1.64 -12.06 1.92 -10.85 2.13 -9.8 2.26 -8.75 2.35 -7.68 2.42 -6.6 2.46 -5.5 2.5 -4.39 2.52 -3.27 2.54 -2.14 2.55 -1.01 2.56 0.12 2.57 1.26 2.57 2.39 2.57 3.53 2.58 4.68 2.58 5.83 2.58 6.98 2.58 8.15 2.58 9.31 2.58 10.48 2.58 11.66 2.58 12.83 2.58 14 2.58 15.17 2.58 16.33 2.58 17.48 2.58 18.62 2.58 19.75 2.58 20.89 2.58 22.02 2.58 23.17 2.58 24.32 2.58 25.47 2.58 26.64 2.58 27.81 2.58 30.16 2.58 32.02 2.58 33.98 2.58 36 2.58 38.16 2.58 40.52 2.58 41.35 2.58" class="primitive"/>
            </g>
          </g>
        </g>
      </g>
    </g>
  </g>
  <g class="guide ylabels" font-size="2.82" font-family="'PT Sans Caption','Helvetica Neue','Helvetica',sans-serif" fill="#6C606B" id="img-d972460c-89">
    <g transform="translate(114.93,57)" id="img-d972460c-90">
      <g class="primitive">
        <text text-anchor="end" dy="0.35em">0</text>
      </g>
    </g>
    <g transform="translate(114.93,54.83)" id="img-d972460c-91">
      <g class="primitive">
        <text text-anchor="end" dy="0.35em">5</text>
      </g>
    </g>
    <g transform="translate(114.93,52.66)" id="img-d972460c-92">
      <g class="primitive">
        <text text-anchor="end" dy="0.35em">10</text>
      </g>
    </g>
    <g transform="translate(114.93,50.49)" id="img-d972460c-93">
      <g class="primitive">
        <text text-anchor="end" dy="0.35em">15</text>
      </g>
    </g>
    <g transform="translate(114.93,48.31)" id="img-d972460c-94">
      <g class="primitive">
        <text text-anchor="end" dy="0.35em">20</text>
      </g>
    </g>
    <g transform="translate(114.93,46.14)" id="img-d972460c-95">
      <g class="primitive">
        <text text-anchor="end" dy="0.35em">25</text>
      </g>
    </g>
  </g>
  <g font-size="3.88" font-family="'PT Sans','Helvetica Neue','Helvetica',sans-serif" fill="#564A55" stroke="#000000" stroke-opacity="0.000" id="img-d972460c-96">
    <g transform="translate(108.58,51.57)" id="img-d972460c-97">
      <g class="primitive">
        <text text-anchor="end" dy="0.35em">I_ch</text>
      </g>
    </g>
  </g>
</g>
<g class="plotroot xscalable yscalable" id="img-d972460c-98">
  <g font-size="3.88" font-family="'PT Sans','Helvetica Neue','Helvetica',sans-serif" fill="#564A55" stroke="#000000" stroke-opacity="0.000" id="img-d972460c-99">
    <g transform="translate(53.14,66.67)" id="img-d972460c-100">
      <g class="primitive">
        <text text-anchor="middle" dy="0.6em">time (days)</text>
      </g>
    </g>
  </g>
  <g class="guide xlabels" font-size="2.82" font-family="'PT Sans Caption','Helvetica Neue','Helvetica',sans-serif" fill="#6C606B" id="img-d972460c-101">
    <g transform="translate(18.28,60)" id="img-d972460c-102">
      <g class="primitive">
        <text text-anchor="middle" dy="0.6em">0</text>
      </g>
    </g>
    <g transform="translate(35.71,60)" id="img-d972460c-103">
      <g class="primitive">
        <text text-anchor="middle" dy="0.6em">500</text>
      </g>
    </g>
    <g transform="translate(53.14,60)" id="img-d972460c-104">
      <g class="primitive">
        <text text-anchor="middle" dy="0.6em">1000</text>
      </g>
    </g>
    <g transform="translate(70.57,60)" id="img-d972460c-105">
      <g class="primitive">
        <text text-anchor="middle" dy="0.6em">1500</text>
      </g>
    </g>
    <g transform="translate(88,60)" id="img-d972460c-106">
      <g class="primitive">
        <text text-anchor="middle" dy="0.6em">2000</text>
      </g>
    </g>
  </g>
  <g clip-path="url(#img-d972460c-107)">
    <g id="img-d972460c-108">
      <g pointer-events="visible" fill="#000000" fill-opacity="0.000" stroke="#000000" stroke-opacity="0.000" class="guide background" id="img-d972460c-109">
        <g transform="translate(53.14,51.57)" id="img-d972460c-110">
          <path d="M-36.86,-7.43 L 36.86 -7.43 36.86 7.43 -36.86 7.43 z" class="primitive"/>
        </g>
      </g>
      <g class="guide ygridlines xfixed" stroke-dasharray="0.5,0.5" stroke-width="0.2" stroke="#D0D0E0" id="img-d972460c-111">
        <g transform="translate(53.14,57)" id="img-d972460c-112">
          <path fill="none" d="M-36.86,0 L 36.86 0" class="primitive"/>
        </g>
        <g transform="translate(53.14,54.29)" id="img-d972460c-113">
          <path fill="none" d="M-36.86,0 L 36.86 0" class="primitive"/>
        </g>
        <g transform="translate(53.14,51.57)" id="img-d972460c-114">
          <path fill="none" d="M-36.86,0 L 36.86 0" class="primitive"/>
        </g>
        <g transform="translate(53.14,48.86)" id="img-d972460c-115">
          <path fill="none" d="M-36.86,0 L 36.86 0" class="primitive"/>
        </g>
        <g transform="translate(53.14,46.14)" id="img-d972460c-116">
          <path fill="none" d="M-36.86,0 L 36.86 0" class="primitive"/>
        </g>
      </g>
      <g class="guide xgridlines yfixed" stroke-dasharray="0.5,0.5" stroke-width="0.2" stroke="#D0D0E0" id="img-d972460c-117">
        <g transform="translate(18.28,51.57)" id="img-d972460c-118">
          <path fill="none" d="M0,-7.43 L 0 7.43" class="primitive"/>
        </g>
        <g transform="translate(35.71,51.57)" id="img-d972460c-119">
          <path fill="none" d="M0,-7.43 L 0 7.43" class="primitive"/>
        </g>
        <g transform="translate(53.14,51.57)" id="img-d972460c-120">
          <path fill="none" d="M0,-7.43 L 0 7.43" class="primitive"/>
        </g>
        <g transform="translate(70.57,51.57)" id="img-d972460c-121">
          <path fill="none" d="M0,-7.43 L 0 7.43" class="primitive"/>
        </g>
        <g transform="translate(88,51.57)" id="img-d972460c-122">
          <path fill="none" d="M0,-7.43 L 0 7.43" class="primitive"/>
        </g>
      </g>
      <g class="plotpanel" id="img-d972460c-123">
        <metadata>
          <boundingbox value="16.284999999999997mm 44.142966666666666mm 73.715mm 14.85796666666667mm"/>
          <unitbox value="-57.37646130674891 9.473572399988948 2114.752922613498 -10.947144799977895"/>
        </metadata>
        <g stroke-width="0.3" fill="#000000" fill-opacity="0.000" class="geometry" id="img-d972460c-124">
          <g class="color_LCHab{Float32}(70.0f0,60.0f0,240.0f0)" stroke-dasharray="none" stroke="#00BFFF" id="img-d972460c-125">
            <g transform="translate(43.7,55.44)" id="img-d972460c-126">
              <path fill="none" d="M-25.41,-9.29 L -25.41 -9.27 -25.37 -9.02 -25.3 -8.53 -25.2 -7.94 -25.08 -7.24 -24.93 -6.45 -24.74 -5.58 -24.52 -4.66 -24.24 -3.73 -23.92 -2.84 -23.57 -2.04 -23.18 -1.36 -22.75 -0.77 -22.29 -0.28 -21.79 0.13 -21.25 0.47 -20.66 0.74 -20 0.96 -19.13 1.16 -18.41 1.26 -17.62 1.34 -16.83 1.4 -15.98 1.44 -15.09 1.47 -14.09 1.5 -12.92 1.52 -11.62 1.53 -10.5 1.54 -9.38 1.55 -8.23 1.55 -7.07 1.56 -5.89 1.56 -4.7 1.56 -3.5 1.56 -2.29 1.56 -1.08 1.56 0.13 1.56 1.35 1.56 2.57 1.56 3.79 1.56 5.01 1.56 6.24 1.56 7.48 1.56 8.73 1.56 9.98 1.56 11.23 1.56 12.49 1.56 13.75 1.56 15 1.56 16.25 1.56 17.49 1.56 18.72 1.56 19.95 1.56 21.16 1.56 22.38 1.56 23.6 1.56 24.82 1.56 26.05 1.56 27.29 1.56 28.54 1.56 29.79 1.56 32.31 1.56 34.3 1.56 36.4 1.56 38.57 1.56 40.88 1.56 43.41 1.56 44.3 1.56" class="primitive"/>
            </g>
          </g>
        </g>
      </g>
    </g>
  </g>
  <g class="guide ylabels" font-size="2.82" font-family="'PT Sans Caption','Helvetica Neue','Helvetica',sans-serif" fill="#6C606B" id="img-d972460c-127">
    <g transform="translate(15.28,57)" id="img-d972460c-128">
      <g class="primitive">
        <text text-anchor="end" dy="0.35em">0</text>
      </g>
    </g>
    <g transform="translate(15.28,54.29)" id="img-d972460c-129">
      <g class="primitive">
        <text text-anchor="end" dy="0.35em">2</text>
      </g>
    </g>
    <g transform="translate(15.28,51.57)" id="img-d972460c-130">
      <g class="primitive">
        <text text-anchor="end" dy="0.35em">4</text>
      </g>
    </g>
    <g transform="translate(15.28,48.86)" id="img-d972460c-131">
      <g class="primitive">
        <text text-anchor="end" dy="0.35em">6</text>
      </g>
    </g>
    <g transform="translate(15.28,46.14)" id="img-d972460c-132">
      <g class="primitive">
        <text text-anchor="end" dy="0.35em">8</text>
      </g>
    </g>
  </g>
  <g font-size="3.88" font-family="'PT Sans','Helvetica Neue','Helvetica',sans-serif" fill="#564A55" stroke="#000000" stroke-opacity="0.000" id="img-d972460c-133">
    <g transform="translate(8.81,49.57)" id="img-d972460c-134">
      <g class="primitive">
        <text text-anchor="middle" dy="0.35em" transform="rotate(-90,0, 2)">I_cl</text>
      </g>
    </g>
  </g>
</g>
<g class="plotroot xscalable yscalable" id="img-d972460c-135">
  <g font-size="3.88" font-family="'PT Sans','Helvetica Neue','Helvetica',sans-serif" fill="#564A55" stroke="#000000" stroke-opacity="0.000" id="img-d972460c-136">
    <g transform="translate(149.85,27.53)" id="img-d972460c-137">
      <g class="primitive">
        <text text-anchor="middle" dy="0.6em">time (days)</text>
      </g>
    </g>
  </g>
  <g class="guide xlabels" font-size="2.82" font-family="'PT Sans Caption','Helvetica Neue','Helvetica',sans-serif" fill="#6C606B" id="img-d972460c-138">
    <g transform="translate(116.69,20.86)" id="img-d972460c-139">
      <g class="primitive">
        <text text-anchor="middle" dy="0.6em">0</text>
      </g>
    </g>
    <g transform="translate(133.27,20.86)" id="img-d972460c-140">
      <g class="primitive">
        <text text-anchor="middle" dy="0.6em">500</text>
      </g>
    </g>
    <g transform="translate(149.85,20.86)" id="img-d972460c-141">
      <g class="primitive">
        <text text-anchor="middle" dy="0.6em">1000</text>
      </g>
    </g>
    <g transform="translate(166.42,20.86)" id="img-d972460c-142">
      <g class="primitive">
        <text text-anchor="middle" dy="0.6em">1500</text>
      </g>
    </g>
    <g transform="translate(183,20.86)" id="img-d972460c-143">
      <g class="primitive">
        <text text-anchor="middle" dy="0.6em">2000</text>
      </g>
    </g>
  </g>
  <g clip-path="url(#img-d972460c-144)">
    <g id="img-d972460c-145">
      <g pointer-events="visible" fill="#000000" fill-opacity="0.000" stroke="#000000" stroke-opacity="0.000" class="guide background" id="img-d972460c-146">
        <g transform="translate(149.85,12.43)" id="img-d972460c-147">
          <path d="M-35.15,-7.43 L 35.15 -7.43 35.15 7.43 -35.15 7.43 z" class="primitive"/>
        </g>
      </g>
      <g class="guide ygridlines xfixed" stroke-dasharray="0.5,0.5" stroke-width="0.2" stroke="#D0D0E0" id="img-d972460c-148">
        <g transform="translate(149.85,17.86)" id="img-d972460c-149">
          <path fill="none" d="M-35.15,0 L 35.15 0" class="primitive"/>
        </g>
        <g transform="translate(149.85,15.69)" id="img-d972460c-150">
          <path fill="none" d="M-35.15,0 L 35.15 0" class="primitive"/>
        </g>
        <g transform="translate(149.85,13.51)" id="img-d972460c-151">
          <path fill="none" d="M-35.15,0 L 35.15 0" class="primitive"/>
        </g>
        <g transform="translate(149.85,11.34)" id="img-d972460c-152">
          <path fill="none" d="M-35.15,0 L 35.15 0" class="primitive"/>
        </g>
        <g transform="translate(149.85,9.17)" id="img-d972460c-153">
          <path fill="none" d="M-35.15,0 L 35.15 0" class="primitive"/>
        </g>
        <g transform="translate(149.85,7)" id="img-d972460c-154">
          <path fill="none" d="M-35.15,0 L 35.15 0" class="primitive"/>
        </g>
      </g>
      <g class="guide xgridlines yfixed" stroke-dasharray="0.5,0.5" stroke-width="0.2" stroke="#D0D0E0" id="img-d972460c-155">
        <g transform="translate(116.69,12.43)" id="img-d972460c-156">
          <path fill="none" d="M0,-7.43 L 0 7.43" class="primitive"/>
        </g>
        <g transform="translate(133.27,12.43)" id="img-d972460c-157">
          <path fill="none" d="M0,-7.43 L 0 7.43" class="primitive"/>
        </g>
        <g transform="translate(149.85,12.43)" id="img-d972460c-158">
          <path fill="none" d="M0,-7.43 L 0 7.43" class="primitive"/>
        </g>
        <g transform="translate(166.42,12.43)" id="img-d972460c-159">
          <path fill="none" d="M0,-7.43 L 0 7.43" class="primitive"/>
        </g>
        <g transform="translate(183,12.43)" id="img-d972460c-160">
          <path fill="none" d="M0,-7.43 L 0 7.43" class="primitive"/>
        </g>
      </g>
      <g class="plotpanel" id="img-d972460c-161">
        <metadata>
          <boundingbox value="114.69083333333333mm 5.0mm 70.30916666666667mm 14.85796666666667mm"/>
          <unitbox value="-60.323484686632064 11.841965499986184 2120.6469693732643 -13.683930999972368"/>
        </metadata>
        <g stroke-width="0.3" fill="#000000" fill-opacity="0.000" class="geometry" id="img-d972460c-162">
          <g class="color_LCHab{Float32}(70.0f0,60.0f0,240.0f0)" stroke-dasharray="none" stroke="#00BFFF" id="img-d972460c-163">
            <g transform="translate(140.86,16.27)" id="img-d972460c-164">
              <path fill="none" d="M-24.17,-0.58 L -24.17 -0.63 -24.13 -1.04 -24.06 -1.72 -23.97 -2.38 -23.86 -3.06 -23.71 -3.8 -23.53 -4.68 -23.32 -5.68 -23.06 -6.65 -22.76 -7.29 -22.42 -7.39 -22.04 -6.93 -21.64 -6.05 -21.2 -4.93 -20.73 -3.76 -20.21 -2.67 -19.65 -1.71 -19.02 -0.92 -18.2 -0.22 -17.51 0.17 -16.76 0.49 -16.01 0.72 -15.2 0.91 -14.35 1.07 -13.4 1.2 -12.29 1.31 -11.05 1.4 -9.99 1.45 -8.92 1.49 -7.83 1.52 -6.72 1.54 -5.6 1.56 -4.47 1.57 -3.33 1.58 -2.18 1.58 -1.03 1.58 0.13 1.59 1.28 1.59 2.44 1.59 3.6 1.59 4.77 1.59 5.94 1.59 7.12 1.59 8.3 1.59 9.49 1.59 10.68 1.59 11.88 1.59 13.07 1.59 14.27 1.59 15.46 1.59 16.64 1.59 17.81 1.59 18.97 1.59 20.13 1.59 21.28 1.59 22.44 1.59 23.61 1.59 24.78 1.59 25.96 1.59 27.14 1.59 28.33 1.59 30.73 1.59 32.63 1.59 34.62 1.59 36.69 1.59 38.88 1.59 41.29 1.59 42.14 1.59" class="primitive"/>
            </g>
          </g>
        </g>
      </g>
    </g>
  </g>
  <g class="guide ylabels" font-size="2.82" font-family="'PT Sans Caption','Helvetica Neue','Helvetica',sans-serif" fill="#6C606B" id="img-d972460c-165">
    <g transform="translate(113.69,17.86)" id="img-d972460c-166">
      <g class="primitive">
        <text text-anchor="end" dy="0.35em">0</text>
      </g>
    </g>
    <g transform="translate(113.69,15.69)" id="img-d972460c-167">
      <g class="primitive">
        <text text-anchor="end" dy="0.35em">2</text>
      </g>
    </g>
    <g transform="translate(113.69,13.51)" id="img-d972460c-168">
      <g class="primitive">
        <text text-anchor="end" dy="0.35em">4</text>
      </g>
    </g>
    <g transform="translate(113.69,11.34)" id="img-d972460c-169">
      <g class="primitive">
        <text text-anchor="end" dy="0.35em">6</text>
      </g>
    </g>
    <g transform="translate(113.69,9.17)" id="img-d972460c-170">
      <g class="primitive">
        <text text-anchor="end" dy="0.35em">8</text>
      </g>
    </g>
    <g transform="translate(113.69,7)" id="img-d972460c-171">
      <g class="primitive">
        <text text-anchor="end" dy="0.35em">10</text>
      </g>
    </g>
  </g>
  <g font-size="3.88" font-family="'PT Sans','Helvetica Neue','Helvetica',sans-serif" fill="#564A55" stroke="#000000" stroke-opacity="0.000" id="img-d972460c-172">
    <g transform="translate(107.34,12.43)" id="img-d972460c-173">
      <g class="primitive">
        <text text-anchor="end" dy="0.35em">L_c</text>
      </g>
    </g>
  </g>
</g>
<g class="plotroot xscalable yscalable" id="img-d972460c-174">
  <g font-size="3.88" font-family="'PT Sans','Helvetica Neue','Helvetica',sans-serif" fill="#564A55" stroke="#000000" stroke-opacity="0.000" id="img-d972460c-175">
    <g transform="translate(55.65,27.53)" id="img-d972460c-176">
      <g class="primitive">
        <text text-anchor="middle" dy="0.6em">time (days)</text>
      </g>
    </g>
  </g>
  <g class="guide xlabels" font-size="2.82" font-family="'PT Sans Caption','Helvetica Neue','Helvetica',sans-serif" fill="#6C606B" id="img-d972460c-177">
    <g transform="translate(23.3,20.86)" id="img-d972460c-178">
      <g class="primitive">
        <text text-anchor="middle" dy="0.6em">0</text>
      </g>
    </g>
    <g transform="translate(39.48,20.86)" id="img-d972460c-179">
      <g class="primitive">
        <text text-anchor="middle" dy="0.6em">500</text>
      </g>
    </g>
    <g transform="translate(55.65,20.86)" id="img-d972460c-180">
      <g class="primitive">
        <text text-anchor="middle" dy="0.6em">1000</text>
      </g>
    </g>
    <g transform="translate(71.83,20.86)" id="img-d972460c-181">
      <g class="primitive">
        <text text-anchor="middle" dy="0.6em">1500</text>
      </g>
    </g>
    <g transform="translate(88,20.86)" id="img-d972460c-182">
      <g class="primitive">
        <text text-anchor="middle" dy="0.6em">2000</text>
      </g>
    </g>
  </g>
  <g clip-path="url(#img-d972460c-183)">
    <g id="img-d972460c-184">
      <g pointer-events="visible" fill="#000000" fill-opacity="0.000" stroke="#000000" stroke-opacity="0.000" class="guide background" id="img-d972460c-185">
        <g transform="translate(55.65,12.43)" id="img-d972460c-186">
          <path d="M-34.35,-7.43 L 34.35 -7.43 34.35 7.43 -34.35 7.43 z" class="primitive"/>
        </g>
      </g>
      <g class="guide ygridlines xfixed" stroke-dasharray="0.5,0.5" stroke-width="0.2" stroke="#D0D0E0" id="img-d972460c-187">
        <g transform="translate(55.65,17.86)" id="img-d972460c-188">
          <path fill="none" d="M-34.35,0 L 34.35 0" class="primitive"/>
        </g>
        <g transform="translate(55.65,12.43)" id="img-d972460c-189">
          <path fill="none" d="M-34.35,0 L 34.35 0" class="primitive"/>
        </g>
        <g transform="translate(55.65,7)" id="img-d972460c-190">
          <path fill="none" d="M-34.35,0 L 34.35 0" class="primitive"/>
        </g>
      </g>
      <g class="guide xgridlines yfixed" stroke-dasharray="0.5,0.5" stroke-width="0.2" stroke="#D0D0E0" id="img-d972460c-191">
        <g transform="translate(23.3,12.43)" id="img-d972460c-192">
          <path fill="none" d="M0,-7.43 L 0 7.43" class="primitive"/>
        </g>
        <g transform="translate(39.48,12.43)" id="img-d972460c-193">
          <path fill="none" d="M0,-7.43 L 0 7.43" class="primitive"/>
        </g>
        <g transform="translate(55.65,12.43)" id="img-d972460c-194">
          <path fill="none" d="M0,-7.43 L 0 7.43" class="primitive"/>
        </g>
        <g transform="translate(71.83,12.43)" id="img-d972460c-195">
          <path fill="none" d="M0,-7.43 L 0 7.43" class="primitive"/>
        </g>
        <g transform="translate(88,12.43)" id="img-d972460c-196">
          <path fill="none" d="M0,-7.43 L 0 7.43" class="primitive"/>
        </g>
      </g>
      <g class="plotpanel" id="img-d972460c-197">
        <metadata>
          <boundingbox value="21.304999999999993mm 5.0mm 68.695mm 14.857966666666666mm"/>
          <unitbox value="-61.82858026122575 1184.1965499986186 2123.6571605224512 -1368.3930999972372"/>
        </metadata>
        <g stroke-width="0.3" fill="#000000" fill-opacity="0.000" class="geometry" id="img-d972460c-198">
          <g class="color_LCHab{Float32}(70.0f0,60.0f0,240.0f0)" stroke-dasharray="none" stroke="#00BFFF" id="img-d972460c-199">
            <g transform="translate(46.89,16.03)" id="img-d972460c-200">
              <path fill="none" d="M-23.58,-8.92 L -23.58 -8.89 -23.55 -8.65 -23.48 -8.18 -23.39 -7.6 -23.28 -6.9 -23.13 -6.11 -22.96 -5.23 -22.75 -4.29 -22.5 -3.33 -22.2 -2.39 -21.87 -1.54 -21.51 -0.82 -21.11 -0.22 -20.68 0.25 -20.22 0.62 -19.72 0.89 -19.17 1.08 -18.56 1.22 -17.76 1.32 -17.09 1.36 -16.35 1.39 -15.62 1.4 -14.83 1.4 -14 1.4 -13.07 1.4 -11.99 1.39 -10.78 1.39 -9.74 1.39 -8.7 1.39 -7.64 1.38 -6.56 1.38 -5.47 1.38 -4.36 1.38 -3.25 1.38 -2.13 1.38 -1 1.38 0.12 1.38 1.25 1.38 2.38 1.38 3.51 1.38 4.65 1.38 5.79 1.38 6.94 1.38 8.1 1.38 9.26 1.38 10.42 1.38 11.59 1.38 12.76 1.38 13.92 1.38 15.08 1.38 16.23 1.38 17.38 1.38 18.51 1.38 19.64 1.38 20.77 1.38 21.9 1.38 23.03 1.38 24.18 1.38 25.33 1.38 26.48 1.38 27.65 1.38 29.98 1.38 31.83 1.38 33.78 1.38 35.79 1.38 37.94 1.38 40.28 1.38 41.11 1.38" class="primitive"/>
            </g>
          </g>
        </g>
      </g>
    </g>
  </g>
  <g class="guide ylabels" font-size="2.82" font-family="'PT Sans Caption','Helvetica Neue','Helvetica',sans-serif" fill="#6C606B" id="img-d972460c-201">
    <g transform="translate(20.3,17.86)" id="img-d972460c-202">
      <g class="primitive">
        <text text-anchor="end" dy="0.35em">0</text>
      </g>
    </g>
    <g transform="translate(20.3,12.43)" id="img-d972460c-203">
      <g class="primitive">
        <text text-anchor="end" dy="0.35em">500</text>
      </g>
    </g>
    <g transform="translate(20.3,7)" id="img-d972460c-204">
      <g class="primitive">
        <text text-anchor="end" dy="0.35em">1000</text>
      </g>
    </g>
  </g>
  <g font-size="3.88" font-family="'PT Sans','Helvetica Neue','Helvetica',sans-serif" fill="#564A55" stroke="#000000" stroke-opacity="0.000" id="img-d972460c-205">
    <g transform="translate(8.81,10.43)" id="img-d972460c-206">
      <g class="primitive">
        <text text-anchor="middle" dy="0.35em" transform="rotate(-90,0, 2)">S_c</text>
      </g>
    </g>
  </g>
</g>
<defs>
  <clipPath id="img-d972460c-4">
    <path d="M126.74,83.29 L 185 83.29 185 98.14 126.74 98.14" />
  </clipPath>
  <clipPath id="img-d972460c-39">
    <path d="M16.28,83.29 L 90 83.29 90 98.14 16.28 98.14" />
  </clipPath>
  <clipPath id="img-d972460c-68">
    <path d="M115.93,44.14 L 185 44.14 185 59 115.93 59" />
  </clipPath>
  <clipPath id="img-d972460c-107">
    <path d="M16.28,44.14 L 90 44.14 90 59 16.28 59" />
  </clipPath>
  <clipPath id="img-d972460c-144">
    <path d="M114.69,5 L 185 5 185 19.86 114.69 19.86" />
  </clipPath>
  <clipPath id="img-d972460c-183">
    <path d="M21.3,5 L 90 5 90 19.86 21.3 19.86" />
  </clipPath>
</defs>
</svg>
