<?xml version="1.0" encoding="UTF-8"?>
<svg xmlns="http://www.w3.org/2000/svg"
     xmlns:xlink="http://www.w3.org/1999/xlink"
     xmlns:gadfly="http://www.gadflyjl.org/ns"
     version="1.2"
     width="190mm" height="117.43mm" viewBox="0 0 190 117.43"
     stroke="none"
     fill="#000000"
     stroke-width="0.3"
     font-size="3.88"
>
<defs>
  <marker id="arrow" markerWidth="15" markerHeight="7" refX="5" refY="3.5" orient="auto" markerUnits="strokeWidth">
    <path d="M0,0 L15,3.5 L0,7 z" stroke="context-stroke" fill="context-stroke"/>
  </marker>
</defs>
<g class="plotroot xscalable yscalable" id="img-c0a80237-1">
  <g font-size="3.88" font-family="'PT Sans','Helvetica Neue','Helvetica',sans-serif" fill="#564A55" stroke="#000000" stroke-opacity="0.000" id="img-c0a80237-2">
    <g transform="translate(155.87,105.82)">
      <g class="primitive">
        <text text-anchor="middle" dy="0.6em">time (days)</text>
      </g>
    </g>
  </g>
  <g class="guide xlabels" font-size="2.82" font-family="'PT Sans Caption','Helvetica Neue','Helvetica',sans-serif" fill="#6C606B" id="img-c0a80237-3">
    <g transform="translate(128.74,99.14)">
      <g class="primitive">
        <text text-anchor="middle" dy="0.6em">0</text>
      </g>
    </g>
    <g transform="translate(142.3,99.14)">
      <g class="primitive">
        <text text-anchor="middle" dy="0.6em">500</text>
      </g>
    </g>
    <g transform="translate(155.87,99.14)">
      <g class="primitive">
        <text text-anchor="middle" dy="0.6em">1000</text>
      </g>
    </g>
    <g transform="translate(169.43,99.14)">
      <g class="primitive">
        <text text-anchor="middle" dy="0.6em">1500</text>
      </g>
    </g>
    <g transform="translate(183,99.14)">
      <g class="primitive">
        <text text-anchor="middle" dy="0.6em">2000</text>
      </g>
    </g>
  </g>
  <g clip-path="url(#img-c0a80237-4)">
    <g id="img-c0a80237-5">
      <g pointer-events="visible" fill="#000000" fill-opacity="0.000" stroke="#000000" stroke-opacity="0.000" class="guide background" id="img-c0a80237-6">
        <g transform="translate(155.87,90.71)" id="img-c0a80237-7">
          <path d="M-29.13,-7.43 L 29.13 -7.43 29.13 7.43 -29.13 7.43 z" class="primitive"/>
        </g>
      </g>
      <g class="guide ygridlines xfixed" stroke-dasharray="0.5,0.5" stroke-width="0.2" stroke="#D0D0E0" id="img-c0a80237-8">
        <g transform="translate(155.87,96.14)" id="img-c0a80237-9">
          <path fill="none" d="M-29.13,0 L 29.13 0" class="primitive"/>
        </g>
        <g transform="translate(155.87,93.43)" id="img-c0a80237-10">
          <path fill="none" d="M-29.13,0 L 29.13 0" class="primitive"/>
        </g>
        <g transform="translate(155.87,90.71)" id="img-c0a80237-11">
          <path fill="none" d="M-29.13,0 L 29.13 0" class="primitive"/>
        </g>
        <g transform="translate(155.87,88)" id="img-c0a80237-12">
          <path fill="none" d="M-29.13,0 L 29.13 0" class="primitive"/>
        </g>
        <g transform="translate(155.87,85.29)" id="img-c0a80237-13">
          <path fill="none" d="M-29.13,0 L 29.13 0" class="primitive"/>
        </g>
      </g>
      <g class="guide xgridlines yfixed" stroke-dasharray="0.5,0.5" stroke-width="0.2" stroke="#D0D0E0" id="img-c0a80237-14">
        <g transform="translate(128.74,90.71)" id="img-c0a80237-15">
          <path fill="none" d="M0,-7.43 L 0 7.43" class="primitive"/>
        </g>
        <g transform="translate(142.3,90.71)" id="img-c0a80237-16">
          <path fill="none" d="M0,-7.43 L 0 7.43" class="primitive"/>
        </g>
        <g transform="translate(155.87,90.71)" id="img-c0a80237-17">
          <path fill="none" d="M0,-7.43 L 0 7.43" class="primitive"/>
        </g>
        <g transform="translate(169.43,90.71)" id="img-c0a80237-18">
          <path fill="none" d="M0,-7.43 L 0 7.43" class="primitive"/>
        </g>
        <g transform="translate(183,90.71)" id="img-c0a80237-19">
          <path fill="none" d="M0,-7.43 L 0 7.43" class="primitive"/>
        </g>
      </g>
      <g class="plotpanel" id="img-c0a80237-20">
        <metadata>
          <boundingbox value="126.73666666666666mm 83.28593333333333mm 58.263333333333335mm 14.85796666666667mm"/>
          <unitbox value="-73.71460163400698 1023.6839309999724 2147.4292032680137 -27.367861999944736"/>
        </metadata>
        <g stroke-width="0.3" fill="#000000" fill-opacity="0.000" class="geometry" id="img-c0a80237-21">
          <g class="color_LCHab{Float32}(70.0f0,60.0f0,240.0f0)" stroke-dasharray="none" stroke="#00BFFF" id="img-c0a80237-22">
            <g transform="translate(138.6,88.09)" id="img-c0a80237-23">
              <path fill="none" d="M-9.86,-2.81 L -9.86 -2.81 -9.83 -2.8 -9.79 -2.78 -9.73 -2.76 -9.65 -2.73 -9.56 -2.69 -9.44 -2.65 -9.29 -2.6 -9.1 -2.53 -8.88 -2.45 -8.61 -2.35 -8.3 -2.24 -7.97 -2.13 -7.64 -2.01 -7.33 -1.91 -7.1 -1.83 -6.89 -1.76 -6.71 -1.7 -6.54 -1.64 -6.36 -1.58 -6.19 -1.53 -6.02 -1.47 -5.84 -1.41 -5.67 -1.36 -5.49 -1.3 -5.32 -1.25 -5.14 -1.19 -4.97 -1.14 -4.79 -1.08 -4.61 -1.02 -4.43 -0.97 -4.24 -0.91 -4.06 -0.86 -3.88 -0.8 -3.69 -0.75 -3.51 -0.69 -3.33 -0.64 -3.15 -0.58 -2.96 -0.53 -2.78 -0.48 -2.6 -0.42 -2.42 -0.37 -2.24 -0.32 -2.06 -0.27 -1.88 -0.22 -1.7 -0.17 -1.52 -0.12 -1.34 -0.07 -1.16 -0.02 -0.98 0.03 -0.8 0.08 -0.62 0.13 -0.44 0.18 -0.26 0.23 -0.07 0.28 0.11 0.32 0.29 0.37 0.47 0.42 0.65 0.47 0.83 0.51 1.01 0.56 1.19 0.6 1.37 0.65 1.55 0.7 1.73 0.74 1.91 0.79 2.09 0.83 2.27 0.87 2.45 0.92 2.63 0.96 2.81 1.01 2.99 1.05 3.17 1.09 3.35 1.13 3.53 1.18 3.71 1.22 3.89 1.26 4.07 1.3 4.25 1.34 4.43 1.39 4.61 1.43 4.79 1.47 4.97 1.51 5.15 1.55 5.33 1.59 5.7 1.67 6.07 1.75 6.55 1.85 7.19 1.98 8.14 2.18 9.65 2.47 12.55 3 16.71 3.67 22.26 4.42 29.39 5.21 38.37 5.96 44.4 6.35" class="primitive"/>
            </g>
          </g>
        </g>
      </g>
    </g>
  </g>
  <g class="guide ylabels" font-size="2.82" font-family="'PT Sans Caption','Helvetica Neue','Helvetica',sans-serif" fill="#6C606B" id="img-c0a80237-24">
    <g transform="translate(125.74,96.14)" id="img-c0a80237-25">
      <g class="primitive">
        <text text-anchor="end" dy="0.35em">1000</text>
      </g>
    </g>
    <g transform="translate(125.74,93.43)" id="img-c0a80237-26">
      <g class="primitive">
        <text text-anchor="end" dy="0.35em">1005</text>
      </g>
    </g>
    <g transform="translate(125.74,90.71)" id="img-c0a80237-27">
      <g class="primitive">
        <text text-anchor="end" dy="0.35em">1010</text>
      </g>
    </g>
    <g transform="translate(125.74,88)" id="img-c0a80237-28">
      <g class="primitive">
        <text text-anchor="end" dy="0.35em">1015</text>
      </g>
    </g>
    <g transform="translate(125.74,85.29)" id="img-c0a80237-29">
      <g class="primitive">
        <text text-anchor="end" dy="0.35em">1020</text>
      </g>
    </g>
  </g>
  <g font-size="3.88" font-family="'PT Sans','Helvetica Neue','Helvetica',sans-serif" fill="#564A55" stroke="#000000" stroke-opacity="0.000" id="img-c0a80237-30">
    <g transform="translate(116.04,90.71)" id="img-c0a80237-31">
      <g class="primitive">
        <text text-anchor="end" dy="0.35em">Cows CL</text>
      </g>
    </g>
  </g>
</g>
<g class="plotroot xscalable yscalable" id="img-c0a80237-32">
  <g font-size="3.88" font-family="'PT Sans','Helvetica Neue','Helvetica',sans-serif" fill="#564A55" stroke="#000000" stroke-opacity="0.000" id="img-c0a80237-33">
    <g transform="translate(53.14,105.82)" id="img-c0a80237-34">
      <g class="primitive">
        <text text-anchor="middle" dy="0.6em">time (days)</text>
      </g>
    </g>
  </g>
  <g class="guide xlabels" font-size="2.82" font-family="'PT Sans Caption','Helvetica Neue','Helvetica',sans-serif" fill="#6C606B" id="img-c0a80237-35">
    <g transform="translate(18.28,99.14)" id="img-c0a80237-36">
      <g class="primitive">
        <text text-anchor="middle" dy="0.6em">0</text>
      </g>
    </g>
    <g transform="translate(35.71,99.14)" id="img-c0a80237-37">
      <g class="primitive">
        <text text-anchor="middle" dy="0.6em">500</text>
      </g>
    </g>
    <g transform="translate(53.14,99.14)" id="img-c0a80237-38">
      <g class="primitive">
        <text text-anchor="middle" dy="0.6em">1000</text>
      </g>
    </g>
    <g transform="translate(70.57,99.14)" id="img-c0a80237-39">
      <g class="primitive">
        <text text-anchor="middle" dy="0.6em">1500</text>
      </g>
    </g>
    <g transform="translate(88,99.14)" id="img-c0a80237-40">
      <g class="primitive">
        <text text-anchor="middle" dy="0.6em">2000</text>
      </g>
    </g>
  </g>
  <g clip-path="url(#img-c0a80237-41)">
    <g id="img-c0a80237-42">
      <g pointer-events="visible" fill="#000000" fill-opacity="0.000" stroke="#000000" stroke-opacity="0.000" class="guide background" id="img-c0a80237-43">
        <g transform="translate(53.14,90.71)" id="img-c0a80237-44">
          <path d="M-36.86,-7.43 L 36.86 -7.43 36.86 7.43 -36.86 7.43 z" class="primitive"/>
        </g>
      </g>
      <g class="guide ygridlines xfixed" stroke-dasharray="0.5,0.5" stroke-width="0.2" stroke="#D0D0E0" id="img-c0a80237-45">
        <g transform="translate(53.14,90.71)" id="img-c0a80237-46">
          <path fill="none" d="M-36.86,0 L 36.86 0" class="primitive"/>
        </g>
      </g>
      <g class="guide xgridlines yfixed" stroke-dasharray="0.5,0.5" stroke-width="0.2" stroke="#D0D0E0" id="img-c0a80237-47">
        <g transform="translate(18.28,90.71)" id="img-c0a80237-48">
          <path fill="none" d="M0,-7.43 L 0 7.43" class="primitive"/>
        </g>
        <g transform="translate(35.71,90.71)" id="img-c0a80237-49">
          <path fill="none" d="M0,-7.43 L 0 7.43" class="primitive"/>
        </g>
        <g transform="translate(53.14,90.71)" id="img-c0a80237-50">
          <path fill="none" d="M0,-7.43 L 0 7.43" class="primitive"/>
        </g>
        <g transform="translate(70.57,90.71)" id="img-c0a80237-51">
          <path fill="none" d="M0,-7.43 L 0 7.43" class="primitive"/>
        </g>
        <g transform="translate(88,90.71)" id="img-c0a80237-52">
          <path fill="none" d="M0,-7.43 L 0 7.43" class="primitive"/>
        </g>
      </g>
      <g class="plotpanel" id="img-c0a80237-53">
        <metadata>
          <boundingbox value="16.284999999999997mm 83.28593333333333mm 73.715mm 14.857966666666666mm"/>
          <unitbox value="-57.37646130674891 1.3683930999972371 2114.752922613498 -2.7367861999944743"/>
        </metadata>
        <g stroke-width="0.3" fill="#000000" fill-opacity="0.000" class="geometry" id="img-c0a80237-54">
          <g class="color_LCHab{Float32}(70.0f0,60.0f0,240.0f0)" stroke-dasharray="none" stroke="#00BFFF" id="img-c0a80237-55">
            <g transform="translate(30.95,90.71)" id="img-c0a80237-56">
              <path fill="none" d="M-12.67,-0 L -12.67 -0 -12.63 -0 -12.58 -0 -12.5 -0 -12.4 -0 -12.28 -0 -12.12 -0 -11.93 -0 -11.69 -0 -11.4 -0 -11.06 -0 -10.66 -0 -10.24 -0 -9.82 -0 -9.42 -0 -9.12 -0 -8.85 -0 -8.62 -0 -8.4 -0 -8.18 -0 -7.95 -0 -7.73 -0 -7.51 -0 -7.28 -0 -7.06 -0 -6.83 -0 -6.61 -0 -6.38 -0 -6.15 -0 -5.92 -0 -5.69 -0 -5.45 -0 -5.22 -0 -4.98 -0 -4.75 -0 -4.51 -0 -4.28 -0 -4.04 -0 -3.81 -0 -3.57 -0 -3.34 -0 -3.11 -0 -2.88 -0 -2.64 -0 -2.41 -0 -2.18 -0 -1.95 -0 -1.72 -0 -1.49 -0 -1.25 -0 -1.02 -0 -0.79 -0 -0.56 -0 -0.33 -0 -0.1 -0 0.14 -0 0.37 -0 0.6 -0 0.83 -0 1.06 -0 1.29 -0 1.52 -0 1.76 -0 1.99 -0 2.22 -0 2.45 -0 2.68 -0 2.91 -0 3.14 -0 3.38 -0 3.61 -0 3.84 -0 4.07 -0 4.3 -0 4.54 -0 4.77 -0 5 -0 5.23 -0 5.46 -0 5.69 -0 5.93 -0 6.16 -0 6.39 -0 6.62 -0 6.85 -0 7.32 -0 7.8 -0 8.41 -0 9.24 -0 10.46 -0 12.39 -0 16.12 -0 21.47 -0 28.59 -0 37.77 -0 49.29 -0 57.05 -0" class="primitive"/>
            </g>
          </g>
        </g>
      </g>
    </g>
  </g>
  <g class="guide ylabels" font-size="2.82" font-family="'PT Sans Caption','Helvetica Neue','Helvetica',sans-serif" fill="#6C606B" id="img-c0a80237-57">
    <g transform="translate(15.28,90.71)" id="img-c0a80237-58">
      <g class="primitive">
        <text text-anchor="end" dy="0.35em">0</text>
      </g>
    </g>
  </g>
  <g font-size="3.88" font-family="'PT Sans','Helvetica Neue','Helvetica',sans-serif" fill="#564A55" stroke="#000000" stroke-opacity="0.000" id="img-c0a80237-59">
    <g transform="translate(8.81,88.71)" id="img-c0a80237-60">
      <g class="primitive">
        <text text-anchor="middle" dy="0.35em" transform="rotate(-90,0, 2)">T_c</text>
      </g>
    </g>
  </g>
</g>
<g class="plotroot xscalable yscalable" id="img-c0a80237-61">
  <g font-size="3.88" font-family="'PT Sans','Helvetica Neue','Helvetica',sans-serif" fill="#564A55" stroke="#000000" stroke-opacity="0.000" id="img-c0a80237-62">
    <g transform="translate(150.65,66.67)" id="img-c0a80237-63">
      <g class="primitive">
        <text text-anchor="middle" dy="0.6em">time (days)</text>
      </g>
    </g>
  </g>
  <g class="guide xlabels" font-size="2.82" font-family="'PT Sans Caption','Helvetica Neue','Helvetica',sans-serif" fill="#6C606B" id="img-c0a80237-64">
    <g transform="translate(118.3,60)" id="img-c0a80237-65">
      <g class="primitive">
        <text text-anchor="middle" dy="0.6em">0</text>
      </g>
    </g>
    <g transform="translate(134.48,60)" id="img-c0a80237-66">
      <g class="primitive">
        <text text-anchor="middle" dy="0.6em">500</text>
      </g>
    </g>
    <g transform="translate(150.65,60)" id="img-c0a80237-67">
      <g class="primitive">
        <text text-anchor="middle" dy="0.6em">1000</text>
      </g>
    </g>
    <g transform="translate(166.83,60)" id="img-c0a80237-68">
      <g class="primitive">
        <text text-anchor="middle" dy="0.6em">1500</text>
      </g>
    </g>
    <g transform="translate(183,60)" id="img-c0a80237-69">
      <g class="primitive">
        <text text-anchor="middle" dy="0.6em">2000</text>
      </g>
    </g>
  </g>
  <g clip-path="url(#img-c0a80237-70)">
    <g id="img-c0a80237-71">
      <g pointer-events="visible" fill="#000000" fill-opacity="0.000" stroke="#000000" stroke-opacity="0.000" class="guide background" id="img-c0a80237-72">
        <g transform="translate(150.65,51.57)" id="img-c0a80237-73">
          <path d="M-34.35,-7.43 L 34.35 -7.43 34.35 7.43 -34.35 7.43 z" class="primitive"/>
        </g>
      </g>
      <g class="guide ygridlines xfixed" stroke-dasharray="0.5,0.5" stroke-width="0.2" stroke="#D0D0E0" id="img-c0a80237-74">
        <g transform="translate(150.65,57)" id="img-c0a80237-75">
          <path fill="none" d="M-34.35,0 L 34.35 0" class="primitive"/>
        </g>
        <g transform="translate(150.65,51.57)" id="img-c0a80237-76">
          <path fill="none" d="M-34.35,0 L 34.35 0" class="primitive"/>
        </g>
        <g transform="translate(150.65,46.14)" id="img-c0a80237-77">
          <path fill="none" d="M-34.35,0 L 34.35 0" class="primitive"/>
        </g>
      </g>
      <g class="guide xgridlines yfixed" stroke-dasharray="0.5,0.5" stroke-width="0.2" stroke="#D0D0E0" id="img-c0a80237-78">
        <g transform="translate(118.3,51.57)" id="img-c0a80237-79">
          <path fill="none" d="M0,-7.43 L 0 7.43" class="primitive"/>
        </g>
        <g transform="translate(134.48,51.57)" id="img-c0a80237-80">
          <path fill="none" d="M0,-7.43 L 0 7.43" class="primitive"/>
        </g>
        <g transform="translate(150.65,51.57)" id="img-c0a80237-81">
          <path fill="none" d="M0,-7.43 L 0 7.43" class="primitive"/>
        </g>
        <g transform="translate(166.83,51.57)" id="img-c0a80237-82">
          <path fill="none" d="M0,-7.43 L 0 7.43" class="primitive"/>
        </g>
        <g transform="translate(183,51.57)" id="img-c0a80237-83">
          <path fill="none" d="M0,-7.43 L 0 7.43" class="primitive"/>
        </g>
      </g>
      <g class="plotpanel" id="img-c0a80237-84">
        <metadata>
          <boundingbox value="116.30499999999999mm 44.142966666666666mm 68.695mm 14.857966666666666mm"/>
          <unitbox value="-61.82858026122575 1184.1965499986186 2123.6571605224512 -1368.3930999972372"/>
        </metadata>
        <g stroke-width="0.3" fill="#000000" fill-opacity="0.000" class="geometry" id="img-c0a80237-85">
          <g class="color_LCHab{Float32}(70.0f0,60.0f0,240.0f0)" stroke-dasharray="none" stroke="#00BFFF" id="img-c0a80237-86">
            <g transform="translate(130.06,48.11)" id="img-c0a80237-87">
              <path fill="none" d="M-11.76,8.67 L -11.75 8.67 -11.73 8.67 -11.67 8.67 -11.6 8.67 -11.51 8.66 -11.39 8.66 -11.25 8.64 -11.07 8.59 -10.85 8.5 -10.58 8.31 -10.26 7.93 -9.9 7.24 -9.5 6.09 -9.11 4.54 -8.74 2.96 -8.47 1.94 -8.21 1.15 -8 0.61 -7.79 0.19 -7.59 -0.15 -7.38 -0.44 -7.17 -0.67 -6.97 -0.86 -6.76 -1.02 -6.55 -1.15 -6.34 -1.26 -6.13 -1.35 -5.92 -1.43 -5.71 -1.49 -5.49 -1.54 -5.28 -1.58 -5.06 -1.62 -4.84 -1.65 -4.62 -1.67 -4.4 -1.69 -4.19 -1.71 -3.97 -1.72 -3.75 -1.73 -3.53 -1.74 -3.32 -1.74 -3.1 -1.75 -2.88 -1.75 -2.67 -1.75 -2.45 -1.76 -2.24 -1.76 -2.02 -1.76 -1.81 -1.76 -1.59 -1.76 -1.38 -1.76 -1.16 -1.76 -0.95 -1.76 -0.73 -1.76 -0.52 -1.76 -0.3 -1.76 -0.09 -1.76 0.13 -1.76 0.34 -1.76 0.55 -1.76 0.77 -1.76 0.98 -1.76 1.2 -1.75 1.41 -1.75 1.63 -1.75 1.84 -1.75 2.06 -1.75 2.27 -1.75 2.49 -1.75 2.7 -1.75 2.92 -1.75 3.13 -1.75 3.35 -1.75 3.56 -1.75 3.78 -1.74 3.99 -1.74 4.21 -1.74 4.42 -1.74 4.64 -1.74 4.85 -1.74 5.07 -1.74 5.28 -1.74 5.5 -1.74 5.71 -1.74 5.93 -1.74 6.15 -1.74 6.36 -1.73 6.79 -1.73 7.24 -1.73 7.81 -1.73 8.57 -1.73 9.7 -1.72 11.5 -1.72 14.96 -1.71 19.93 -1.69 26.54 -1.68 35.05 -1.66 45.74 -1.65 52.94 -1.64" class="primitive"/>
            </g>
          </g>
        </g>
      </g>
    </g>
  </g>
  <g class="guide ylabels" font-size="2.82" font-family="'PT Sans Caption','Helvetica Neue','Helvetica',sans-serif" fill="#6C606B" id="img-c0a80237-88">
    <g transform="translate(115.3,57)" id="img-c0a80237-89">
      <g class="primitive">
        <text text-anchor="end" dy="0.35em">0</text>
      </g>
    </g>
    <g transform="translate(115.3,51.57)" id="img-c0a80237-90">
      <g class="primitive">
        <text text-anchor="end" dy="0.35em">500</text>
      </g>
    </g>
    <g transform="translate(115.3,46.14)" id="img-c0a80237-91">
      <g class="primitive">
        <text text-anchor="end" dy="0.35em">1000</text>
      </g>
    </g>
  </g>
  <g font-size="3.88" font-family="'PT Sans','Helvetica Neue','Helvetica',sans-serif" fill="#564A55" stroke="#000000" stroke-opacity="0.000" id="img-c0a80237-92">
    <g transform="translate(103.81,49.57)" id="img-c0a80237-93">
      <g class="primitive">
        <text text-anchor="middle" dy="0.35em" transform="rotate(-90,0, 2)">I_ch</text>
      </g>
    </g>
  </g>
</g>
<g class="plotroot xscalable yscalable" id="img-c0a80237-94">
  <g font-size="3.88" font-family="'PT Sans','Helvetica Neue','Helvetica',sans-serif" fill="#564A55" stroke="#000000" stroke-opacity="0.000" id="img-c0a80237-95">
    <g transform="translate(54.97,66.67)" id="img-c0a80237-96">
      <g class="primitive">
        <text text-anchor="middle" dy="0.6em">time (days)</text>
      </g>
    </g>
  </g>
  <g class="guide xlabels" font-size="2.82" font-family="'PT Sans Caption','Helvetica Neue','Helvetica',sans-serif" fill="#6C606B" id="img-c0a80237-97">
    <g transform="translate(21.95,60)" id="img-c0a80237-98">
      <g class="primitive">
        <text text-anchor="middle" dy="0.6em">0</text>
      </g>
    </g>
    <g transform="translate(38.46,60)" id="img-c0a80237-99">
      <g class="primitive">
        <text text-anchor="middle" dy="0.6em">500</text>
      </g>
    </g>
    <g transform="translate(54.97,60)" id="img-c0a80237-100">
      <g class="primitive">
        <text text-anchor="middle" dy="0.6em">1000</text>
      </g>
    </g>
    <g transform="translate(71.49,60)" id="img-c0a80237-101">
      <g class="primitive">
        <text text-anchor="middle" dy="0.6em">1500</text>
      </g>
    </g>
    <g transform="translate(88,60)" id="img-c0a80237-102">
      <g class="primitive">
        <text text-anchor="middle" dy="0.6em">2000</text>
      </g>
    </g>
  </g>
  <g clip-path="url(#img-c0a80237-103)">
    <g id="img-c0a80237-104">
      <g pointer-events="visible" fill="#000000" fill-opacity="0.000" stroke="#000000" stroke-opacity="0.000" class="guide background" id="img-c0a80237-105">
        <g transform="translate(54.97,51.57)" id="img-c0a80237-106">
          <path d="M-35.03,-7.43 L 35.03 -7.43 35.03 7.43 -35.03 7.43 z" class="primitive"/>
        </g>
      </g>
      <g class="guide ygridlines xfixed" stroke-dasharray="0.5,0.5" stroke-width="0.2" stroke="#D0D0E0" id="img-c0a80237-107">
        <g transform="translate(54.97,57)" id="img-c0a80237-108">
          <path fill="none" d="M-35.03,0 L 35.03 0" class="primitive"/>
        </g>
        <g transform="translate(54.97,55.19)" id="img-c0a80237-109">
          <path fill="none" d="M-35.03,0 L 35.03 0" class="primitive"/>
        </g>
        <g transform="translate(54.97,53.38)" id="img-c0a80237-110">
          <path fill="none" d="M-35.03,0 L 35.03 0" class="primitive"/>
        </g>
        <g transform="translate(54.97,51.57)" id="img-c0a80237-111">
          <path fill="none" d="M-35.03,0 L 35.03 0" class="primitive"/>
        </g>
        <g transform="translate(54.97,49.76)" id="img-c0a80237-112">
          <path fill="none" d="M-35.03,0 L 35.03 0" class="primitive"/>
        </g>
        <g transform="translate(54.97,47.95)" id="img-c0a80237-113">
          <path fill="none" d="M-35.03,0 L 35.03 0" class="primitive"/>
        </g>
        <g transform="translate(54.97,46.14)" id="img-c0a80237-114">
          <path fill="none" d="M-35.03,0 L 35.03 0" class="primitive"/>
        </g>
      </g>
      <g class="guide xgridlines yfixed" stroke-dasharray="0.5,0.5" stroke-width="0.2" stroke="#D0D0E0" id="img-c0a80237-115">
        <g transform="translate(21.95,51.57)" id="img-c0a80237-116">
          <path fill="none" d="M0,-7.43 L 0 7.43" class="primitive"/>
        </g>
        <g transform="translate(38.46,51.57)" id="img-c0a80237-117">
          <path fill="none" d="M0,-7.43 L 0 7.43" class="primitive"/>
        </g>
        <g transform="translate(54.97,51.57)" id="img-c0a80237-118">
          <path fill="none" d="M0,-7.43 L 0 7.43" class="primitive"/>
        </g>
        <g transform="translate(71.49,51.57)" id="img-c0a80237-119">
          <path fill="none" d="M0,-7.43 L 0 7.43" class="primitive"/>
        </g>
        <g transform="translate(88,51.57)" id="img-c0a80237-120">
          <path fill="none" d="M0,-7.43 L 0 7.43" class="primitive"/>
        </g>
      </g>
      <g class="plotpanel" id="img-c0a80237-121">
        <metadata>
          <boundingbox value="19.94749999999999mm 44.142966666666666mm 70.05250000000001mm 14.85796666666667mm"/>
          <unitbox value="-60.557889557548904 71.05179299991711 2121.1157791150977 -82.10358599983421"/>
        </metadata>
        <g stroke-width="0.3" fill="#000000" fill-opacity="0.000" class="geometry" id="img-c0a80237-122">
          <g class="color_LCHab{Float32}(70.0f0,60.0f0,240.0f0)" stroke-dasharray="none" stroke="#00BFFF" id="img-c0a80237-123">
            <g transform="translate(33.95,56.2)" id="img-c0a80237-124">
              <path fill="none" d="M-12,-0.64 L -12 -0.64 -11.97 -0.64 -11.92 -0.65 -11.84 -0.66 -11.75 -0.68 -11.63 -0.72 -11.49 -0.83 -11.3 -1.07 -11.08 -1.59 -10.8 -2.61 -10.48 -4.36 -10.1 -6.7 -9.7 -8.53 -9.3 -8.09 -8.92 -5.58 -8.64 -3.5 -8.39 -2.02 -8.17 -1.16 -7.95 -0.62 -7.75 -0.26 -7.54 -0.01 -7.32 0.16 -7.11 0.29 -6.9 0.38 -6.69 0.45 -6.48 0.5 -6.26 0.55 -6.04 0.58 -5.83 0.61 -5.61 0.63 -5.39 0.64 -5.16 0.66 -4.94 0.67 -4.72 0.68 -4.5 0.68 -4.27 0.69 -4.05 0.69 -3.83 0.7 -3.61 0.7 -3.39 0.7 -3.17 0.7 -2.95 0.71 -2.73 0.71 -2.51 0.71 -2.29 0.71 -2.07 0.71 -1.85 0.71 -1.63 0.71 -1.41 0.71 -1.19 0.71 -0.97 0.71 -0.75 0.71 -0.53 0.71 -0.31 0.71 -0.09 0.71 0.13 0.71 0.35 0.71 0.57 0.71 0.79 0.71 1.01 0.71 1.22 0.71 1.44 0.71 1.66 0.71 1.88 0.71 2.1 0.71 2.32 0.71 2.54 0.71 2.76 0.71 2.98 0.71 3.2 0.71 3.42 0.71 3.64 0.71 3.86 0.71 4.08 0.71 4.3 0.71 4.52 0.71 4.74 0.71 4.96 0.71 5.18 0.71 5.4 0.71 5.61 0.71 5.83 0.71 6.05 0.71 6.27 0.71 6.49 0.71 6.93 0.71 7.39 0.71 7.97 0.71 8.75 0.71 9.91 0.71 11.74 0.71 15.27 0.71 20.34 0.71 27.09 0.71 35.78 0.71 46.7 0.71 54.05 0.71" class="primitive"/>
            </g>
          </g>
        </g>
      </g>
    </g>
  </g>
  <g class="guide ylabels" font-size="2.82" font-family="'PT Sans Caption','Helvetica Neue','Helvetica',sans-serif" fill="#6C606B" id="img-c0a80237-125">
    <g transform="translate(18.95,57)" id="img-c0a80237-126">
      <g class="primitive">
        <text text-anchor="end" dy="0.35em">0</text>
      </g>
    </g>
    <g transform="translate(18.95,55.19)" id="img-c0a80237-127">
      <g class="primitive">
        <text text-anchor="end" dy="0.35em">10</text>
      </g>
    </g>
    <g transform="translate(18.95,53.38)" id="img-c0a80237-128">
      <g class="primitive">
        <text text-anchor="end" dy="0.35em">20</text>
      </g>
    </g>
    <g transform="translate(18.95,51.57)" id="img-c0a80237-129">
      <g class="primitive">
        <text text-anchor="end" dy="0.35em">30</text>
      </g>
    </g>
    <g transform="translate(18.95,49.76)" id="img-c0a80237-130">
      <g class="primitive">
        <text text-anchor="end" dy="0.35em">40</text>
      </g>
    </g>
    <g transform="translate(18.95,47.95)" id="img-c0a80237-131">
      <g class="primitive">
        <text text-anchor="end" dy="0.35em">50</text>
      </g>
    </g>
    <g transform="translate(18.95,46.14)" id="img-c0a80237-132">
      <g class="primitive">
        <text text-anchor="end" dy="0.35em">60</text>
      </g>
    </g>
  </g>
  <g font-size="3.88" font-family="'PT Sans','Helvetica Neue','Helvetica',sans-serif" fill="#564A55" stroke="#000000" stroke-opacity="0.000" id="img-c0a80237-133">
    <g transform="translate(12.6,51.57)" id="img-c0a80237-134">
      <g class="primitive">
        <text text-anchor="end" dy="0.35em">I_cl</text>
      </g>
    </g>
  </g>
</g>
<g class="plotroot xscalable yscalable" id="img-c0a80237-135">
  <g font-size="3.88" font-family="'PT Sans','Helvetica Neue','Helvetica',sans-serif" fill="#564A55" stroke="#000000" stroke-opacity="0.000" id="img-c0a80237-136">
    <g transform="translate(150.68,27.53)" id="img-c0a80237-137">
      <g class="primitive">
        <text text-anchor="middle" dy="0.6em">time (days)</text>
      </g>
    </g>
  </g>
  <g class="guide xlabels" font-size="2.82" font-family="'PT Sans Caption','Helvetica Neue','Helvetica',sans-serif" fill="#6C606B" id="img-c0a80237-138">
    <g transform="translate(118.36,20.86)" id="img-c0a80237-139">
      <g class="primitive">
        <text text-anchor="middle" dy="0.6em">0</text>
      </g>
    </g>
    <g transform="translate(134.52,20.86)" id="img-c0a80237-140">
      <g class="primitive">
        <text text-anchor="middle" dy="0.6em">500</text>
      </g>
    </g>
    <g transform="translate(150.68,20.86)" id="img-c0a80237-141">
      <g class="primitive">
        <text text-anchor="middle" dy="0.6em">1000</text>
      </g>
    </g>
    <g transform="translate(166.84,20.86)" id="img-c0a80237-142">
      <g class="primitive">
        <text text-anchor="middle" dy="0.6em">1500</text>
      </g>
    </g>
    <g transform="translate(183,20.86)" id="img-c0a80237-143">
      <g class="primitive">
        <text text-anchor="middle" dy="0.6em">2000</text>
      </g>
    </g>
  </g>
  <g clip-path="url(#img-c0a80237-144)">
    <g id="img-c0a80237-145">
      <g pointer-events="visible" fill="#000000" fill-opacity="0.000" stroke="#000000" stroke-opacity="0.000" class="guide background" id="img-c0a80237-146">
        <g transform="translate(150.68,12.43)" id="img-c0a80237-147">
          <path d="M-34.32,-7.43 L 34.32 -7.43 34.32 7.43 -34.32 7.43 z" class="primitive"/>
        </g>
      </g>
      <g class="guide ygridlines xfixed" stroke-dasharray="0.5,0.5" stroke-width="0.2" stroke="#D0D0E0" id="img-c0a80237-148">
        <g transform="translate(150.68,17.86)" id="img-c0a80237-149">
          <path fill="none" d="M-34.32,0 L 34.32 0" class="primitive"/>
        </g>
        <g transform="translate(150.68,15.69)" id="img-c0a80237-150">
          <path fill="none" d="M-34.32,0 L 34.32 0" class="primitive"/>
        </g>
        <g transform="translate(150.68,13.51)" id="img-c0a80237-151">
          <path fill="none" d="M-34.32,0 L 34.32 0" class="primitive"/>
        </g>
        <g transform="translate(150.68,11.34)" id="img-c0a80237-152">
          <path fill="none" d="M-34.32,0 L 34.32 0" class="primitive"/>
        </g>
        <g transform="translate(150.68,9.17)" id="img-c0a80237-153">
          <path fill="none" d="M-34.32,0 L 34.32 0" class="primitive"/>
        </g>
        <g transform="translate(150.68,7)" id="img-c0a80237-154">
          <path fill="none" d="M-34.32,0 L 34.32 0" class="primitive"/>
        </g>
      </g>
      <g class="guide xgridlines yfixed" stroke-dasharray="0.5,0.5" stroke-width="0.2" stroke="#D0D0E0" id="img-c0a80237-155">
        <g transform="translate(118.36,12.43)" id="img-c0a80237-156">
          <path fill="none" d="M0,-7.43 L 0 7.43" class="primitive"/>
        </g>
        <g transform="translate(134.52,12.43)" id="img-c0a80237-157">
          <path fill="none" d="M0,-7.43 L 0 7.43" class="primitive"/>
        </g>
        <g transform="translate(150.68,12.43)" id="img-c0a80237-158">
          <path fill="none" d="M0,-7.43 L 0 7.43" class="primitive"/>
        </g>
        <g transform="translate(166.84,12.43)" id="img-c0a80237-159">
          <path fill="none" d="M0,-7.43 L 0 7.43" class="primitive"/>
        </g>
        <g transform="translate(183,12.43)" id="img-c0a80237-160">
          <path fill="none" d="M0,-7.43 L 0 7.43" class="primitive"/>
        </g>
      </g>
      <g class="plotpanel" id="img-c0a80237-161">
        <metadata>
          <boundingbox value="116.36416666666666mm 5.0mm 68.63583333333332mm 14.85796666666667mm"/>
          <unitbox value="-61.8851772107835 592.0982749993093 2123.770354421567 -684.1965499986185"/>
        </metadata>
        <g stroke-width="0.3" fill="#000000" fill-opacity="0.000" class="geometry" id="img-c0a80237-162">
          <g class="color_LCHab{Float32}(70.0f0,60.0f0,240.0f0)" stroke-dasharray="none" stroke="#00BFFF" id="img-c0a80237-163">
            <g transform="translate(130.11,16.45)" id="img-c0a80237-164">
              <path fill="none" d="M-11.75,1.37 L -11.74 1.36 -11.71 1.35 -11.66 1.33 -11.59 1.29 -11.5 1.23 -11.38 1.09 -11.24 0.85 -11.06 0.44 -10.84 -0.24 -10.57 -1.3 -10.25 -2.85 -9.89 -4.92 -9.5 -7.01 -9.1 -7.92 -8.73 -7.14 -8.46 -5.93 -8.21 -4.73 -7.99 -3.81 -7.78 -3.04 -7.58 -2.42 -7.37 -1.88 -7.17 -1.44 -6.96 -1.07 -6.75 -0.76 -6.54 -0.51 -6.34 -0.29 -6.13 -0.12 -5.91 0.03 -5.7 0.15 -5.49 0.25 -5.27 0.34 -5.05 0.41 -4.84 0.47 -4.62 0.51 -4.4 0.55 -4.18 0.58 -3.96 0.61 -3.75 0.63 -3.53 0.65 -3.31 0.66 -3.1 0.67 -2.88 0.68 -2.67 0.69 -2.45 0.7 -2.24 0.7 -2.02 0.71 -1.81 0.71 -1.59 0.71 -1.38 0.72 -1.16 0.72 -0.95 0.72 -0.73 0.72 -0.52 0.72 -0.3 0.72 -0.09 0.72 0.13 0.73 0.34 0.73 0.55 0.73 0.77 0.73 0.98 0.73 1.2 0.73 1.41 0.73 1.63 0.73 1.84 0.73 2.06 0.73 2.27 0.73 2.49 0.73 2.7 0.73 2.92 0.73 3.13 0.73 3.35 0.73 3.56 0.73 3.77 0.73 3.99 0.73 4.2 0.73 4.42 0.73 4.63 0.73 4.85 0.73 5.06 0.73 5.28 0.73 5.49 0.73 5.71 0.73 5.92 0.73 6.14 0.73 6.35 0.73 6.78 0.73 7.23 0.73 7.8 0.73 8.57 0.73 9.7 0.73 11.49 0.73 14.95 0.73 19.91 0.73 26.51 0.73 35.01 0.73 45.7 0.73 52.89 0.73" class="primitive"/>
            </g>
          </g>
        </g>
      </g>
    </g>
  </g>
  <g class="guide ylabels" font-size="2.82" font-family="'PT Sans Caption','Helvetica Neue','Helvetica',sans-serif" fill="#6C606B" id="img-c0a80237-165">
    <g transform="translate(115.36,17.86)" id="img-c0a80237-166">
      <g class="primitive">
        <text text-anchor="end" dy="0.35em">0</text>
      </g>
    </g>
    <g transform="translate(115.36,15.69)" id="img-c0a80237-167">
      <g class="primitive">
        <text text-anchor="end" dy="0.35em">100</text>
      </g>
    </g>
    <g transform="translate(115.36,13.51)" id="img-c0a80237-168">
      <g class="primitive">
        <text text-anchor="end" dy="0.35em">200</text>
      </g>
    </g>
    <g transform="translate(115.36,11.34)" id="img-c0a80237-169">
      <g class="primitive">
        <text text-anchor="end" dy="0.35em">300</text>
      </g>
    </g>
    <g transform="translate(115.36,9.17)" id="img-c0a80237-170">
      <g class="primitive">
        <text text-anchor="end" dy="0.35em">400</text>
      </g>
    </g>
    <g transform="translate(115.36,7)" id="img-c0a80237-171">
      <g class="primitive">
        <text text-anchor="end" dy="0.35em">500</text>
      </g>
    </g>
  </g>
  <g font-size="3.88" font-family="'PT Sans','Helvetica Neue','Helvetica',sans-serif" fill="#564A55" stroke="#000000" stroke-opacity="0.000" id="img-c0a80237-172">
    <g transform="translate(107.34,12.43)" id="img-c0a80237-173">
      <g class="primitive">
        <text text-anchor="end" dy="0.35em">L_c</text>
      </g>
    </g>
  </g>
</g>
<g class="plotroot xscalable yscalable" id="img-c0a80237-174">
  <g font-size="3.88" font-family="'PT Sans','Helvetica Neue','Helvetica',sans-serif" fill="#564A55" stroke="#000000" stroke-opacity="0.000" id="img-c0a80237-175">
    <g transform="translate(55.65,27.53)" id="img-c0a80237-176">
      <g class="primitive">
        <text text-anchor="middle" dy="0.6em">time (days)</text>
      </g>
    </g>
  </g>
  <g class="guide xlabels" font-size="2.82" font-family="'PT Sans Caption','Helvetica Neue','Helvetica',sans-serif" fill="#6C606B" id="img-c0a80237-177">
    <g transform="translate(23.3,20.86)" id="img-c0a80237-178">
      <g class="primitive">
        <text text-anchor="middle" dy="0.6em">0</text>
      </g>
    </g>
    <g transform="translate(39.48,20.86)" id="img-c0a80237-179">
      <g class="primitive">
        <text text-anchor="middle" dy="0.6em">500</text>
      </g>
    </g>
    <g transform="translate(55.65,20.86)" id="img-c0a80237-180">
      <g class="primitive">
        <text text-anchor="middle" dy="0.6em">1000</text>
      </g>
    </g>
    <g transform="translate(71.83,20.86)" id="img-c0a80237-181">
      <g class="primitive">
        <text text-anchor="middle" dy="0.6em">1500</text>
      </g>
    </g>
    <g transform="translate(88,20.86)" id="img-c0a80237-182">
      <g class="primitive">
        <text text-anchor="middle" dy="0.6em">2000</text>
      </g>
    </g>
  </g>
  <g clip-path="url(#img-c0a80237-183)">
    <g id="img-c0a80237-184">
      <g pointer-events="visible" fill="#000000" fill-opacity="0.000" stroke="#000000" stroke-opacity="0.000" class="guide background" id="img-c0a80237-185">
        <g transform="translate(55.65,12.43)" id="img-c0a80237-186">
          <path d="M-34.35,-7.43 L 34.35 -7.43 34.35 7.43 -34.35 7.43 z" class="primitive"/>
        </g>
      </g>
      <g class="guide ygridlines xfixed" stroke-dasharray="0.5,0.5" stroke-width="0.2" stroke="#D0D0E0" id="img-c0a80237-187">
        <g transform="translate(55.65,17.86)" id="img-c0a80237-188">
          <path fill="none" d="M-34.35,0 L 34.35 0" class="primitive"/>
        </g>
        <g transform="translate(55.65,12.43)" id="img-c0a80237-189">
          <path fill="none" d="M-34.35,0 L 34.35 0" class="primitive"/>
        </g>
        <g transform="translate(55.65,7)" id="img-c0a80237-190">
          <path fill="none" d="M-34.35,0 L 34.35 0" class="primitive"/>
        </g>
      </g>
      <g class="guide xgridlines yfixed" stroke-dasharray="0.5,0.5" stroke-width="0.2" stroke="#D0D0E0" id="img-c0a80237-191">
        <g transform="translate(23.3,12.43)" id="img-c0a80237-192">
          <path fill="none" d="M0,-7.43 L 0 7.43" class="primitive"/>
        </g>
        <g transform="translate(39.48,12.43)" id="img-c0a80237-193">
          <path fill="none" d="M0,-7.43 L 0 7.43" class="primitive"/>
        </g>
        <g transform="translate(55.65,12.43)" id="img-c0a80237-194">
          <path fill="none" d="M0,-7.43 L 0 7.43" class="primitive"/>
        </g>
        <g transform="translate(71.83,12.43)" id="img-c0a80237-195">
          <path fill="none" d="M0,-7.43 L 0 7.43" class="primitive"/>
        </g>
        <g transform="translate(88,12.43)" id="img-c0a80237-196">
          <path fill="none" d="M0,-7.43 L 0 7.43" class="primitive"/>
        </g>
      </g>
      <g class="plotpanel" id="img-c0a80237-197">
        <metadata>
          <boundingbox value="21.304999999999993mm 5.0mm 68.695mm 14.857966666666666mm"/>
          <unitbox value="-61.82858026122575 1184.1965499986186 2123.6571605224512 -1368.3930999972372"/>
        </metadata>
        <g stroke-width="0.3" fill="#000000" fill-opacity="0.000" class="geometry" id="img-c0a80237-198">
          <g class="color_LCHab{Float32}(70.0f0,60.0f0,240.0f0)" stroke-dasharray="none" stroke="#00BFFF" id="img-c0a80237-199">
            <g transform="translate(35.06,16.48)" id="img-c0a80237-200">
              <path fill="none" d="M-11.76,-9.37 L -11.75 -9.37 -11.73 -9.36 -11.67 -9.35 -11.6 -9.33 -11.51 -9.29 -11.39 -9.21 -11.25 -9.07 -11.07 -8.8 -10.85 -8.33 -10.58 -7.55 -10.26 -6.29 -9.9 -4.43 -9.5 -2.12 -9.11 -0.13 -8.74 0.9 -8.47 1.2 -8.21 1.3 -8 1.33 -7.79 1.34 -7.59 1.34 -7.38 1.35 -7.17 1.35 -6.97 1.35 -6.76 1.35 -6.55 1.35 -6.34 1.35 -6.13 1.36 -5.92 1.36 -5.71 1.36 -5.49 1.36 -5.28 1.36 -5.06 1.36 -4.84 1.36 -4.62 1.36 -4.4 1.36 -4.19 1.36 -3.97 1.36 -3.75 1.36 -3.53 1.36 -3.32 1.36 -3.1 1.36 -2.88 1.36 -2.67 1.36 -2.45 1.36 -2.24 1.36 -2.02 1.36 -1.81 1.36 -1.59 1.36 -1.38 1.36 -1.16 1.36 -0.95 1.36 -0.73 1.36 -0.52 1.36 -0.3 1.36 -0.09 1.36 0.13 1.36 0.34 1.36 0.55 1.36 0.77 1.36 0.98 1.36 1.2 1.36 1.41 1.36 1.63 1.36 1.84 1.36 2.06 1.36 2.27 1.36 2.49 1.36 2.7 1.36 2.92 1.36 3.13 1.36 3.35 1.36 3.56 1.36 3.78 1.36 3.99 1.36 4.21 1.36 4.42 1.36 4.64 1.36 4.85 1.36 5.07 1.36 5.28 1.36 5.5 1.36 5.71 1.36 5.93 1.36 6.15 1.36 6.36 1.36 6.79 1.36 7.24 1.36 7.81 1.36 8.57 1.36 9.7 1.36 11.5 1.36 14.96 1.36 19.93 1.36 26.54 1.36 35.05 1.36 45.74 1.36 52.94 1.36" class="primitive"/>
            </g>
          </g>
        </g>
      </g>
    </g>
  </g>
  <g class="guide ylabels" font-size="2.82" font-family="'PT Sans Caption','Helvetica Neue','Helvetica',sans-serif" fill="#6C606B" id="img-c0a80237-201">
    <g transform="translate(20.3,17.86)" id="img-c0a80237-202">
      <g class="primitive">
        <text text-anchor="end" dy="0.35em">0</text>
      </g>
    </g>
    <g transform="translate(20.3,12.43)" id="img-c0a80237-203">
      <g class="primitive">
        <text text-anchor="end" dy="0.35em">500</text>
      </g>
    </g>
    <g transform="translate(20.3,7)" id="img-c0a80237-204">
      <g class="primitive">
        <text text-anchor="end" dy="0.35em">1000</text>
      </g>
    </g>
  </g>
  <g font-size="3.88" font-family="'PT Sans','Helvetica Neue','Helvetica',sans-serif" fill="#564A55" stroke="#000000" stroke-opacity="0.000" id="img-c0a80237-205">
    <g transform="translate(8.81,10.43)" id="img-c0a80237-206">
      <g class="primitive">
        <text text-anchor="middle" dy="0.35em" transform="rotate(-90,0, 2)">S_c</text>
      </g>
    </g>
  </g>
</g>
<defs>
  <clipPath id="img-c0a80237-4">
    <path d="M126.74,83.29 L 185 83.29 185 98.14 126.74 98.14" />
  </clipPath>
  <clipPath id="img-c0a80237-41">
    <path d="M16.28,83.29 L 90 83.29 90 98.14 16.28 98.14" />
  </clipPath>
  <clipPath id="img-c0a80237-70">
    <path d="M116.3,44.14 L 185 44.14 185 59 116.3 59" />
  </clipPath>
  <clipPath id="img-c0a80237-103">
    <path d="M19.95,44.14 L 90 44.14 90 59 19.95 59" />
  </clipPath>
  <clipPath id="img-c0a80237-144">
    <path d="M116.36,5 L 185 5 185 19.86 116.36 19.86" />
  </clipPath>
  <clipPath id="img-c0a80237-183">
    <path d="M21.3,5 L 90 5 90 19.86 21.3 19.86" />
  </clipPath>
</defs>
</svg>
