<?xml version="1.0" encoding="UTF-8"?>
<svg xmlns="http://www.w3.org/2000/svg"
     xmlns:xlink="http://www.w3.org/1999/xlink"
     xmlns:gadfly="http://www.gadflyjl.org/ns"
     version="1.2"
     width="190mm" height="117.43mm" viewBox="0 0 190 117.43"
     stroke="none"
     fill="#000000"
     stroke-width="0.3"
     font-size="3.88"
>
<defs>
  <marker id="arrow" markerWidth="15" markerHeight="7" refX="5" refY="3.5" orient="auto" markerUnits="strokeWidth">
    <path d="M0,0 L15,3.5 L0,7 z" stroke="context-stroke" fill="context-stroke"/>
  </marker>
</defs>
<g class="plotroot xscalable yscalable" id="img-065955f1-1">
  <g font-size="3.88" font-family="'PT Sans','Helvetica Neue','Helvetica',sans-serif" fill="#564A55" stroke="#000000" stroke-opacity="0.000" id="img-065955f1-2">
    <g transform="translate(155.87,105.82)">
      <g class="primitive">
        <text text-anchor="middle" dy="0.6em">time (days)</text>
      </g>
    </g>
  </g>
  <g class="guide xlabels" font-size="2.82" font-family="'PT Sans Caption','Helvetica Neue','Helvetica',sans-serif" fill="#6C606B" id="img-065955f1-3">
    <g transform="translate(128.74,99.14)">
      <g class="primitive">
        <text text-anchor="middle" dy="0.6em">0</text>
      </g>
    </g>
    <g transform="translate(142.3,99.14)">
      <g class="primitive">
        <text text-anchor="middle" dy="0.6em">500</text>
      </g>
    </g>
    <g transform="translate(155.87,99.14)">
      <g class="primitive">
        <text text-anchor="middle" dy="0.6em">1000</text>
      </g>
    </g>
    <g transform="translate(169.43,99.14)">
      <g class="primitive">
        <text text-anchor="middle" dy="0.6em">1500</text>
      </g>
    </g>
    <g transform="translate(183,99.14)">
      <g class="primitive">
        <text text-anchor="middle" dy="0.6em">2000</text>
      </g>
    </g>
  </g>
  <g clip-path="url(#img-065955f1-4)">
    <g id="img-065955f1-5">
      <g pointer-events="visible" fill="#000000" fill-opacity="0.000" stroke="#000000" stroke-opacity="0.000" class="guide background" id="img-065955f1-6">
        <g transform="translate(155.87,90.71)" id="img-065955f1-7">
          <path d="M-29.13,-7.43 L 29.13 -7.43 29.13 7.43 -29.13 7.43 z" class="primitive"/>
        </g>
      </g>
      <g class="guide ygridlines xfixed" stroke-dasharray="0.5,0.5" stroke-width="0.2" stroke="#D0D0E0" id="img-065955f1-8">
        <g transform="translate(155.87,96.14)" id="img-065955f1-9">
          <path fill="none" d="M-29.13,0 L 29.13 0" class="primitive"/>
        </g>
        <g transform="translate(155.87,90.71)" id="img-065955f1-10">
          <path fill="none" d="M-29.13,0 L 29.13 0" class="primitive"/>
        </g>
        <g transform="translate(155.87,85.29)" id="img-065955f1-11">
          <path fill="none" d="M-29.13,0 L 29.13 0" class="primitive"/>
        </g>
      </g>
      <g class="guide xgridlines yfixed" stroke-dasharray="0.5,0.5" stroke-width="0.2" stroke="#D0D0E0" id="img-065955f1-12">
        <g transform="translate(128.74,90.71)" id="img-065955f1-13">
          <path fill="none" d="M0,-7.43 L 0 7.43" class="primitive"/>
        </g>
        <g transform="translate(142.3,90.71)" id="img-065955f1-14">
          <path fill="none" d="M0,-7.43 L 0 7.43" class="primitive"/>
        </g>
        <g transform="translate(155.87,90.71)" id="img-065955f1-15">
          <path fill="none" d="M0,-7.43 L 0 7.43" class="primitive"/>
        </g>
        <g transform="translate(169.43,90.71)" id="img-065955f1-16">
          <path fill="none" d="M0,-7.43 L 0 7.43" class="primitive"/>
        </g>
        <g transform="translate(183,90.71)" id="img-065955f1-17">
          <path fill="none" d="M0,-7.43 L 0 7.43" class="primitive"/>
        </g>
      </g>
      <g class="plotpanel" id="img-065955f1-18">
        <metadata>
          <boundingbox value="126.73666666666666mm 83.28593333333333mm 58.263333333333335mm 14.857966666666666mm"/>
          <unitbox value="-73.71460163400698 1184.1965499986186 2147.4292032680137 -1368.3930999972372"/>
        </metadata>
        <g stroke-width="0.3" fill="#000000" fill-opacity="0.000" class="geometry" id="img-065955f1-19">
          <g class="color_LCHab{Float32}(70.0f0,60.0f0,240.0f0)" stroke-dasharray="none" stroke="#00BFFF" id="img-065955f1-20">
            <g transform="translate(142.81,93.84)" id="img-065955f1-21">
              <path fill="none" d="M-14.08,-8.56 L -14.07 -8.55 -14.07 -8.51 -14.04 -8.27 -13.98 -7.74 -13.88 -7.03 -13.76 -6.2 -13.61 -5.27 -13.43 -4.3 -13.23 -3.34 -12.99 -2.45 -12.74 -1.63 -12.46 -0.92 -12.16 -0.32 -11.85 0.17 -11.52 0.57 -11.17 0.88 -10.82 1.13 -10.44 1.32 -10.06 1.46 -9.66 1.57 -9.23 1.65 -8.78 1.71 -8.28 1.76 -7.74 1.79 -7.13 1.81 -6.46 1.83 -5.72 1.84 -4.94 1.84 -4.13 1.85 -3.28 1.85 -2.38 1.85 -1.44 1.85 -0.42 1.85 0.67 1.85 1.88 1.85 3.24 1.85 4.78 1.85 5.94 1.85 6.94 1.85 7.88 1.85 8.82 1.85 9.78 1.85 10.78 1.85 11.81 1.85 12.85 1.85 13.88 1.85 14.9 1.85 15.92 1.85 16.93 1.85 17.94 1.85 19.97 1.85 22.08 1.85 24.75 1.85 28.36 1.85 33.66 1.85 40.19 1.85" class="primitive"/>
            </g>
          </g>
        </g>
      </g>
    </g>
  </g>
  <g class="guide ylabels" font-size="2.82" font-family="'PT Sans Caption','Helvetica Neue','Helvetica',sans-serif" fill="#6C606B" id="img-065955f1-22">
    <g transform="translate(125.74,96.14)" id="img-065955f1-23">
      <g class="primitive">
        <text text-anchor="end" dy="0.35em">0</text>
      </g>
    </g>
    <g transform="translate(125.74,90.71)" id="img-065955f1-24">
      <g class="primitive">
        <text text-anchor="end" dy="0.35em">500</text>
      </g>
    </g>
    <g transform="translate(125.74,85.29)" id="img-065955f1-25">
      <g class="primitive">
        <text text-anchor="end" dy="0.35em">1000</text>
      </g>
    </g>
  </g>
  <g font-size="3.88" font-family="'PT Sans','Helvetica Neue','Helvetica',sans-serif" fill="#564A55" stroke="#000000" stroke-opacity="0.000" id="img-065955f1-26">
    <g transform="translate(116.04,90.71)" id="img-065955f1-27">
      <g class="primitive">
        <text text-anchor="end" dy="0.35em">Cows CL</text>
      </g>
    </g>
  </g>
</g>
<g class="plotroot xscalable yscalable" id="img-065955f1-28">
  <g font-size="3.88" font-family="'PT Sans','Helvetica Neue','Helvetica',sans-serif" fill="#564A55" stroke="#000000" stroke-opacity="0.000" id="img-065955f1-29">
    <g transform="translate(53.14,105.82)" id="img-065955f1-30">
      <g class="primitive">
        <text text-anchor="middle" dy="0.6em">time (days)</text>
      </g>
    </g>
  </g>
  <g class="guide xlabels" font-size="2.82" font-family="'PT Sans Caption','Helvetica Neue','Helvetica',sans-serif" fill="#6C606B" id="img-065955f1-31">
    <g transform="translate(18.28,99.14)" id="img-065955f1-32">
      <g class="primitive">
        <text text-anchor="middle" dy="0.6em">0</text>
      </g>
    </g>
    <g transform="translate(35.71,99.14)" id="img-065955f1-33">
      <g class="primitive">
        <text text-anchor="middle" dy="0.6em">500</text>
      </g>
    </g>
    <g transform="translate(53.14,99.14)" id="img-065955f1-34">
      <g class="primitive">
        <text text-anchor="middle" dy="0.6em">1000</text>
      </g>
    </g>
    <g transform="translate(70.57,99.14)" id="img-065955f1-35">
      <g class="primitive">
        <text text-anchor="middle" dy="0.6em">1500</text>
      </g>
    </g>
    <g transform="translate(88,99.14)" id="img-065955f1-36">
      <g class="primitive">
        <text text-anchor="middle" dy="0.6em">2000</text>
      </g>
    </g>
  </g>
  <g clip-path="url(#img-065955f1-37)">
    <g id="img-065955f1-38">
      <g pointer-events="visible" fill="#000000" fill-opacity="0.000" stroke="#000000" stroke-opacity="0.000" class="guide background" id="img-065955f1-39">
        <g transform="translate(53.14,90.71)" id="img-065955f1-40">
          <path d="M-36.86,-7.43 L 36.86 -7.43 36.86 7.43 -36.86 7.43 z" class="primitive"/>
        </g>
      </g>
      <g class="guide ygridlines xfixed" stroke-dasharray="0.5,0.5" stroke-width="0.2" stroke="#D0D0E0" id="img-065955f1-41">
        <g transform="translate(53.14,90.71)" id="img-065955f1-42">
          <path fill="none" d="M-36.86,0 L 36.86 0" class="primitive"/>
        </g>
      </g>
      <g class="guide xgridlines yfixed" stroke-dasharray="0.5,0.5" stroke-width="0.2" stroke="#D0D0E0" id="img-065955f1-43">
        <g transform="translate(18.28,90.71)" id="img-065955f1-44">
          <path fill="none" d="M0,-7.43 L 0 7.43" class="primitive"/>
        </g>
        <g transform="translate(35.71,90.71)" id="img-065955f1-45">
          <path fill="none" d="M0,-7.43 L 0 7.43" class="primitive"/>
        </g>
        <g transform="translate(53.14,90.71)" id="img-065955f1-46">
          <path fill="none" d="M0,-7.43 L 0 7.43" class="primitive"/>
        </g>
        <g transform="translate(70.57,90.71)" id="img-065955f1-47">
          <path fill="none" d="M0,-7.43 L 0 7.43" class="primitive"/>
        </g>
        <g transform="translate(88,90.71)" id="img-065955f1-48">
          <path fill="none" d="M0,-7.43 L 0 7.43" class="primitive"/>
        </g>
      </g>
      <g class="plotpanel" id="img-065955f1-49">
        <metadata>
          <boundingbox value="16.284999999999997mm 83.28593333333333mm 73.715mm 14.857966666666666mm"/>
          <unitbox value="-57.37646130674891 1.3683930999972371 2114.752922613498 -2.7367861999944743"/>
        </metadata>
        <g stroke-width="0.3" fill="#000000" fill-opacity="0.000" class="geometry" id="img-065955f1-50">
          <g class="color_LCHab{Float32}(70.0f0,60.0f0,240.0f0)" stroke-dasharray="none" stroke="#00BFFF" id="img-065955f1-51">
            <g transform="translate(36.37,90.71)" id="img-065955f1-52">
              <path fill="none" d="M-18.08,-0 L -18.08 -0 -18.08 -0 -18.04 -0 -17.96 -0 -17.83 -0 -17.68 -0 -17.49 -0 -17.26 -0 -16.99 -0 -16.7 -0 -16.37 -0 -16.01 -0 -15.63 -0 -15.22 -0 -14.8 -0 -14.35 -0 -13.89 -0 -13.42 -0 -12.92 -0 -12.41 -0 -11.86 -0 -11.27 -0 -10.64 -0 -9.94 -0 -9.16 -0 -8.3 -0 -7.35 -0 -6.35 -0 -5.3 -0 -4.21 -0 -3.06 -0 -1.85 -0 -0.55 -0 0.86 -0 2.42 -0 4.17 -0 6.13 -0 7.63 -0 8.92 -0 10.12 -0 11.33 -0 12.57 -0 13.85 -0 15.17 -0 16.5 -0 17.83 -0 19.14 -0 20.45 -0 21.75 -0 23.05 -0 25.65 -0 28.37 -0 31.8 -0 36.44 -0 43.25 -0 51.63 -0" class="primitive"/>
            </g>
          </g>
        </g>
      </g>
    </g>
  </g>
  <g class="guide ylabels" font-size="2.82" font-family="'PT Sans Caption','Helvetica Neue','Helvetica',sans-serif" fill="#6C606B" id="img-065955f1-53">
    <g transform="translate(15.28,90.71)" id="img-065955f1-54">
      <g class="primitive">
        <text text-anchor="end" dy="0.35em">0</text>
      </g>
    </g>
  </g>
  <g font-size="3.88" font-family="'PT Sans','Helvetica Neue','Helvetica',sans-serif" fill="#564A55" stroke="#000000" stroke-opacity="0.000" id="img-065955f1-55">
    <g transform="translate(8.81,88.71)" id="img-065955f1-56">
      <g class="primitive">
        <text text-anchor="middle" dy="0.35em" transform="rotate(-90,0, 2)">T_c</text>
      </g>
    </g>
  </g>
</g>
<g class="plotroot xscalable yscalable" id="img-065955f1-57">
  <g font-size="3.88" font-family="'PT Sans','Helvetica Neue','Helvetica',sans-serif" fill="#564A55" stroke="#000000" stroke-opacity="0.000" id="img-065955f1-58">
    <g transform="translate(149.87,66.67)" id="img-065955f1-59">
      <g class="primitive">
        <text text-anchor="middle" dy="0.6em">time (days)</text>
      </g>
    </g>
  </g>
  <g class="guide xlabels" font-size="2.82" font-family="'PT Sans Caption','Helvetica Neue','Helvetica',sans-serif" fill="#6C606B" id="img-065955f1-60">
    <g transform="translate(116.74,60)" id="img-065955f1-61">
      <g class="primitive">
        <text text-anchor="middle" dy="0.6em">0</text>
      </g>
    </g>
    <g transform="translate(133.31,60)" id="img-065955f1-62">
      <g class="primitive">
        <text text-anchor="middle" dy="0.6em">500</text>
      </g>
    </g>
    <g transform="translate(149.87,60)" id="img-065955f1-63">
      <g class="primitive">
        <text text-anchor="middle" dy="0.6em">1000</text>
      </g>
    </g>
    <g transform="translate(166.44,60)" id="img-065955f1-64">
      <g class="primitive">
        <text text-anchor="middle" dy="0.6em">1500</text>
      </g>
    </g>
    <g transform="translate(183,60)" id="img-065955f1-65">
      <g class="primitive">
        <text text-anchor="middle" dy="0.6em">2000</text>
      </g>
    </g>
  </g>
  <g clip-path="url(#img-065955f1-66)">
    <g id="img-065955f1-67">
      <g pointer-events="visible" fill="#000000" fill-opacity="0.000" stroke="#000000" stroke-opacity="0.000" class="guide background" id="img-065955f1-68">
        <g transform="translate(149.87,51.57)" id="img-065955f1-69">
          <path d="M-35.13,-7.43 L 35.13 -7.43 35.13 7.43 -35.13 7.43 z" class="primitive"/>
        </g>
      </g>
      <g class="guide ygridlines xfixed" stroke-dasharray="0.5,0.5" stroke-width="0.2" stroke="#D0D0E0" id="img-065955f1-70">
        <g transform="translate(149.87,57)" id="img-065955f1-71">
          <path fill="none" d="M-35.13,0 L 35.13 0" class="primitive"/>
        </g>
        <g transform="translate(149.87,54.29)" id="img-065955f1-72">
          <path fill="none" d="M-35.13,0 L 35.13 0" class="primitive"/>
        </g>
        <g transform="translate(149.87,51.57)" id="img-065955f1-73">
          <path fill="none" d="M-35.13,0 L 35.13 0" class="primitive"/>
        </g>
        <g transform="translate(149.87,48.86)" id="img-065955f1-74">
          <path fill="none" d="M-35.13,0 L 35.13 0" class="primitive"/>
        </g>
        <g transform="translate(149.87,46.14)" id="img-065955f1-75">
          <path fill="none" d="M-35.13,0 L 35.13 0" class="primitive"/>
        </g>
      </g>
      <g class="guide xgridlines yfixed" stroke-dasharray="0.5,0.5" stroke-width="0.2" stroke="#D0D0E0" id="img-065955f1-76">
        <g transform="translate(116.74,51.57)" id="img-065955f1-77">
          <path fill="none" d="M0,-7.43 L 0 7.43" class="primitive"/>
        </g>
        <g transform="translate(133.31,51.57)" id="img-065955f1-78">
          <path fill="none" d="M0,-7.43 L 0 7.43" class="primitive"/>
        </g>
        <g transform="translate(149.87,51.57)" id="img-065955f1-79">
          <path fill="none" d="M0,-7.43 L 0 7.43" class="primitive"/>
        </g>
        <g transform="translate(166.44,51.57)" id="img-065955f1-80">
          <path fill="none" d="M0,-7.43 L 0 7.43" class="primitive"/>
        </g>
        <g transform="translate(183,51.57)" id="img-065955f1-81">
          <path fill="none" d="M0,-7.43 L 0 7.43" class="primitive"/>
        </g>
      </g>
      <g class="plotpanel" id="img-065955f1-82">
        <metadata>
          <boundingbox value="114.745mm 44.142966666666666mm 70.255mm 14.85796666666667mm"/>
          <unitbox value="-60.372802052675276 1.868393099997237 2120.7456041053506 -2.736786199994474"/>
        </metadata>
        <g stroke-width="0.3" fill="#000000" fill-opacity="0.000" class="geometry" id="img-065955f1-83">
          <g class="color_LCHab{Float32}(70.0f0,60.0f0,240.0f0)" stroke-dasharray="none" stroke="#00BFFF" id="img-065955f1-84">
            <g transform="translate(133.93,53.1)" id="img-065955f1-85">
              <path fill="none" d="M-17.19,1.19 L -17.19 1.17 -17.18 1.04 -17.14 0.27 -17.06 -1.19 -16.95 -2.82 -16.8 -4.23 -16.62 -5.26 -16.4 -5.76 -16.15 -5.74 -15.87 -5.3 -15.55 -4.59 -15.21 -3.76 -14.85 -2.9 -14.47 -2.1 -14.06 -1.4 -13.64 -0.81 -13.21 -0.33 -12.75 0.05 -12.28 0.35 -11.79 0.58 -11.27 0.76 -10.72 0.89 -10.11 0.99 -9.45 1.06 -8.71 1.11 -7.88 1.14 -6.99 1.16 -6.04 1.17 -5.04 1.18 -4 1.18 -2.91 1.19 -1.75 1.19 -0.52 1.19 0.82 1.19 2.3 1.19 3.96 1.19 5.83 1.19 7.25 1.19 8.48 1.19 9.62 1.19 10.76 1.19 11.94 1.19 13.17 1.19 14.42 1.19 15.68 1.19 16.94 1.19 18.19 1.19 19.44 1.19 20.67 1.19 21.91 1.19 24.38 1.19 26.96 1.19 30.22 1.19 34.63 1.19 41.1 1.19 49.07 1.19" class="primitive"/>
            </g>
          </g>
        </g>
      </g>
    </g>
  </g>
  <g class="guide ylabels" font-size="2.82" font-family="'PT Sans Caption','Helvetica Neue','Helvetica',sans-serif" fill="#6C606B" id="img-065955f1-86">
    <g transform="translate(113.74,57)" id="img-065955f1-87">
      <g class="primitive">
        <text text-anchor="end" dy="0.35em">-0.5</text>
      </g>
    </g>
    <g transform="translate(113.74,54.29)" id="img-065955f1-88">
      <g class="primitive">
        <text text-anchor="end" dy="0.35em">0.0</text>
      </g>
    </g>
    <g transform="translate(113.74,51.57)" id="img-065955f1-89">
      <g class="primitive">
        <text text-anchor="end" dy="0.35em">0.5</text>
      </g>
    </g>
    <g transform="translate(113.74,48.86)" id="img-065955f1-90">
      <g class="primitive">
        <text text-anchor="end" dy="0.35em">1.0</text>
      </g>
    </g>
    <g transform="translate(113.74,46.14)" id="img-065955f1-91">
      <g class="primitive">
        <text text-anchor="end" dy="0.35em">1.5</text>
      </g>
    </g>
  </g>
  <g font-size="3.88" font-family="'PT Sans','Helvetica Neue','Helvetica',sans-serif" fill="#564A55" stroke="#000000" stroke-opacity="0.000" id="img-065955f1-92">
    <g transform="translate(103.81,49.57)" id="img-065955f1-93">
      <g class="primitive">
        <text text-anchor="middle" dy="0.35em" transform="rotate(-90,0, 2)">I_ch</text>
      </g>
    </g>
  </g>
</g>
<g class="plotroot xscalable yscalable" id="img-065955f1-94">
  <g font-size="3.88" font-family="'PT Sans','Helvetica Neue','Helvetica',sans-serif" fill="#564A55" stroke="#000000" stroke-opacity="0.000" id="img-065955f1-95">
    <g transform="translate(54.69,66.67)" id="img-065955f1-96">
      <g class="primitive">
        <text text-anchor="middle" dy="0.6em">time (days)</text>
      </g>
    </g>
  </g>
  <g class="guide xlabels" font-size="2.82" font-family="'PT Sans Caption','Helvetica Neue','Helvetica',sans-serif" fill="#6C606B" id="img-065955f1-97">
    <g transform="translate(21.39,60)" id="img-065955f1-98">
      <g class="primitive">
        <text text-anchor="middle" dy="0.6em">0</text>
      </g>
    </g>
    <g transform="translate(38.04,60)" id="img-065955f1-99">
      <g class="primitive">
        <text text-anchor="middle" dy="0.6em">500</text>
      </g>
    </g>
    <g transform="translate(54.69,60)" id="img-065955f1-100">
      <g class="primitive">
        <text text-anchor="middle" dy="0.6em">1000</text>
      </g>
    </g>
    <g transform="translate(71.35,60)" id="img-065955f1-101">
      <g class="primitive">
        <text text-anchor="middle" dy="0.6em">1500</text>
      </g>
    </g>
    <g transform="translate(88,60)" id="img-065955f1-102">
      <g class="primitive">
        <text text-anchor="middle" dy="0.6em">2000</text>
      </g>
    </g>
  </g>
  <g clip-path="url(#img-065955f1-103)">
    <g id="img-065955f1-104">
      <g pointer-events="visible" fill="#000000" fill-opacity="0.000" stroke="#000000" stroke-opacity="0.000" class="guide background" id="img-065955f1-105">
        <g transform="translate(54.69,51.57)" id="img-065955f1-106">
          <path d="M-35.31,-7.43 L 35.31 -7.43 35.31 7.43 -35.31 7.43 z" class="primitive"/>
        </g>
      </g>
      <g class="guide ygridlines xfixed" stroke-dasharray="0.5,0.5" stroke-width="0.2" stroke="#D0D0E0" id="img-065955f1-107">
        <g transform="translate(54.69,57)" id="img-065955f1-108">
          <path fill="none" d="M-35.31,0 L 35.31 0" class="primitive"/>
        </g>
        <g transform="translate(54.69,54.83)" id="img-065955f1-109">
          <path fill="none" d="M-35.31,0 L 35.31 0" class="primitive"/>
        </g>
        <g transform="translate(54.69,52.66)" id="img-065955f1-110">
          <path fill="none" d="M-35.31,0 L 35.31 0" class="primitive"/>
        </g>
        <g transform="translate(54.69,50.49)" id="img-065955f1-111">
          <path fill="none" d="M-35.31,0 L 35.31 0" class="primitive"/>
        </g>
        <g transform="translate(54.69,48.31)" id="img-065955f1-112">
          <path fill="none" d="M-35.31,0 L 35.31 0" class="primitive"/>
        </g>
        <g transform="translate(54.69,46.14)" id="img-065955f1-113">
          <path fill="none" d="M-35.31,0 L 35.31 0" class="primitive"/>
        </g>
      </g>
      <g class="guide xgridlines yfixed" stroke-dasharray="0.5,0.5" stroke-width="0.2" stroke="#D0D0E0" id="img-065955f1-114">
        <g transform="translate(21.39,51.57)" id="img-065955f1-115">
          <path fill="none" d="M0,-7.43 L 0 7.43" class="primitive"/>
        </g>
        <g transform="translate(38.04,51.57)" id="img-065955f1-116">
          <path fill="none" d="M0,-7.43 L 0 7.43" class="primitive"/>
        </g>
        <g transform="translate(54.69,51.57)" id="img-065955f1-117">
          <path fill="none" d="M0,-7.43 L 0 7.43" class="primitive"/>
        </g>
        <g transform="translate(71.35,51.57)" id="img-065955f1-118">
          <path fill="none" d="M0,-7.43 L 0 7.43" class="primitive"/>
        </g>
        <g transform="translate(88,51.57)" id="img-065955f1-119">
          <path fill="none" d="M0,-7.43 L 0 7.43" class="primitive"/>
        </g>
      </g>
      <g class="plotpanel" id="img-065955f1-120">
        <metadata>
          <boundingbox value="19.387500000000003mm 44.142966666666666mm 70.6125mm 14.85796666666667mm"/>
          <unitbox value="-60.048789641583795 9.841965499986184 2120.0975792831678 -13.683930999972368"/>
        </metadata>
        <g stroke-width="0.3" fill="#000000" fill-opacity="0.000" class="geometry" id="img-065955f1-121">
          <g class="color_LCHab{Float32}(70.0f0,60.0f0,240.0f0)" stroke-dasharray="none" stroke="#00BFFF" id="img-065955f1-122">
            <g transform="translate(38.67,53.28)" id="img-065955f1-123">
              <path fill="none" d="M-17.28,-7.14 L -17.28 -7.13 -17.27 -7.1 -17.24 -6.9 -17.16 -6.47 -17.04 -5.88 -16.89 -5.2 -16.71 -4.42 -16.49 -3.62 -16.24 -2.82 -15.95 -2.06 -15.64 -1.38 -15.3 -0.79 -14.93 -0.28 -14.54 0.13 -14.14 0.47 -13.72 0.73 -13.28 0.94 -12.82 1.1 -12.35 1.22 -11.85 1.31 -11.33 1.38 -10.77 1.43 -10.17 1.47 -9.5 1.5 -8.76 1.52 -7.93 1.53 -7.02 1.54 -6.07 1.54 -5.07 1.55 -4.02 1.55 -2.92 1.55 -1.76 1.55 -0.52 1.55 0.83 1.55 2.31 1.55 3.98 1.55 5.86 1.55 7.29 1.55 8.52 1.55 9.67 1.55 10.82 1.55 12.01 1.55 13.24 1.55 14.5 1.55 15.77 1.55 17.04 1.55 18.29 1.55 19.54 1.55 20.78 1.55 22.03 1.55 24.51 1.55 27.1 1.55 30.38 1.55 34.82 1.55 41.32 1.55 49.33 1.55" class="primitive"/>
            </g>
          </g>
        </g>
      </g>
    </g>
  </g>
  <g class="guide ylabels" font-size="2.82" font-family="'PT Sans Caption','Helvetica Neue','Helvetica',sans-serif" fill="#6C606B" id="img-065955f1-124">
    <g transform="translate(18.39,57)" id="img-065955f1-125">
      <g class="primitive">
        <text text-anchor="end" dy="0.35em">-2</text>
      </g>
    </g>
    <g transform="translate(18.39,54.83)" id="img-065955f1-126">
      <g class="primitive">
        <text text-anchor="end" dy="0.35em">0</text>
      </g>
    </g>
    <g transform="translate(18.39,52.66)" id="img-065955f1-127">
      <g class="primitive">
        <text text-anchor="end" dy="0.35em">2</text>
      </g>
    </g>
    <g transform="translate(18.39,50.49)" id="img-065955f1-128">
      <g class="primitive">
        <text text-anchor="end" dy="0.35em">4</text>
      </g>
    </g>
    <g transform="translate(18.39,48.31)" id="img-065955f1-129">
      <g class="primitive">
        <text text-anchor="end" dy="0.35em">6</text>
      </g>
    </g>
    <g transform="translate(18.39,46.14)" id="img-065955f1-130">
      <g class="primitive">
        <text text-anchor="end" dy="0.35em">8</text>
      </g>
    </g>
  </g>
  <g font-size="3.88" font-family="'PT Sans','Helvetica Neue','Helvetica',sans-serif" fill="#564A55" stroke="#000000" stroke-opacity="0.000" id="img-065955f1-131">
    <g transform="translate(12.6,51.57)" id="img-065955f1-132">
      <g class="primitive">
        <text text-anchor="end" dy="0.35em">I_cl</text>
      </g>
    </g>
  </g>
</g>
<g class="plotroot xscalable yscalable" id="img-065955f1-133">
  <g font-size="3.88" font-family="'PT Sans','Helvetica Neue','Helvetica',sans-serif" fill="#564A55" stroke="#000000" stroke-opacity="0.000" id="img-065955f1-134">
    <g transform="translate(150.74,27.53)" id="img-065955f1-135">
      <g class="primitive">
        <text text-anchor="middle" dy="0.6em">time (days)</text>
      </g>
    </g>
  </g>
  <g class="guide xlabels" font-size="2.82" font-family="'PT Sans Caption','Helvetica Neue','Helvetica',sans-serif" fill="#6C606B" id="img-065955f1-136">
    <g transform="translate(118.48,20.86)" id="img-065955f1-137">
      <g class="primitive">
        <text text-anchor="middle" dy="0.6em">0</text>
      </g>
    </g>
    <g transform="translate(134.61,20.86)" id="img-065955f1-138">
      <g class="primitive">
        <text text-anchor="middle" dy="0.6em">500</text>
      </g>
    </g>
    <g transform="translate(150.74,20.86)" id="img-065955f1-139">
      <g class="primitive">
        <text text-anchor="middle" dy="0.6em">1000</text>
      </g>
    </g>
    <g transform="translate(166.87,20.86)" id="img-065955f1-140">
      <g class="primitive">
        <text text-anchor="middle" dy="0.6em">1500</text>
      </g>
    </g>
    <g transform="translate(183,20.86)" id="img-065955f1-141">
      <g class="primitive">
        <text text-anchor="middle" dy="0.6em">2000</text>
      </g>
    </g>
  </g>
  <g clip-path="url(#img-065955f1-142)">
    <g id="img-065955f1-143">
      <g pointer-events="visible" fill="#000000" fill-opacity="0.000" stroke="#000000" stroke-opacity="0.000" class="guide background" id="img-065955f1-144">
        <g transform="translate(150.74,12.43)" id="img-065955f1-145">
          <path d="M-34.26,-7.43 L 34.26 -7.43 34.26 7.43 -34.26 7.43 z" class="primitive"/>
        </g>
      </g>
      <g class="guide ygridlines xfixed" stroke-dasharray="0.5,0.5" stroke-width="0.2" stroke="#D0D0E0" id="img-065955f1-146">
        <g transform="translate(150.74,17.86)" id="img-065955f1-147">
          <path fill="none" d="M-34.26,0 L 34.26 0" class="primitive"/>
        </g>
        <g transform="translate(150.74,15.69)" id="img-065955f1-148">
          <path fill="none" d="M-34.26,0 L 34.26 0" class="primitive"/>
        </g>
        <g transform="translate(150.74,13.51)" id="img-065955f1-149">
          <path fill="none" d="M-34.26,0 L 34.26 0" class="primitive"/>
        </g>
        <g transform="translate(150.74,11.34)" id="img-065955f1-150">
          <path fill="none" d="M-34.26,0 L 34.26 0" class="primitive"/>
        </g>
        <g transform="translate(150.74,9.17)" id="img-065955f1-151">
          <path fill="none" d="M-34.26,0 L 34.26 0" class="primitive"/>
        </g>
        <g transform="translate(150.74,7)" id="img-065955f1-152">
          <path fill="none" d="M-34.26,0 L 34.26 0" class="primitive"/>
        </g>
      </g>
      <g class="guide xgridlines yfixed" stroke-dasharray="0.5,0.5" stroke-width="0.2" stroke="#D0D0E0" id="img-065955f1-153">
        <g transform="translate(118.48,12.43)" id="img-065955f1-154">
          <path fill="none" d="M0,-7.43 L 0 7.43" class="primitive"/>
        </g>
        <g transform="translate(134.61,12.43)" id="img-065955f1-155">
          <path fill="none" d="M0,-7.43 L 0 7.43" class="primitive"/>
        </g>
        <g transform="translate(150.74,12.43)" id="img-065955f1-156">
          <path fill="none" d="M0,-7.43 L 0 7.43" class="primitive"/>
        </g>
        <g transform="translate(166.87,12.43)" id="img-065955f1-157">
          <path fill="none" d="M0,-7.43 L 0 7.43" class="primitive"/>
        </g>
        <g transform="translate(183,12.43)" id="img-065955f1-158">
          <path fill="none" d="M0,-7.43 L 0 7.43" class="primitive"/>
        </g>
      </g>
      <g class="plotpanel" id="img-065955f1-159">
        <metadata>
          <boundingbox value="116.4775mm 5.0mm 68.52250000000001mm 14.85796666666667mm"/>
          <unitbox value="-61.99387810453718 2.460491374996546 2123.9877562090746 -3.420982749993092"/>
        </metadata>
        <g stroke-width="0.3" fill="#000000" fill-opacity="0.000" class="geometry" id="img-065955f1-160">
          <g class="color_LCHab{Float32}(70.0f0,60.0f0,240.0f0)" stroke-dasharray="none" stroke="#00BFFF" id="img-065955f1-161">
            <g transform="translate(135.21,14.64)" id="img-065955f1-162">
              <path fill="none" d="M-16.74,-7.64 L -16.74 -7.63 -16.73 -7.54 -16.7 -6.97 -16.62 -5.85 -16.51 -4.52 -16.36 -3.22 -16.19 -2.04 -15.97 -1.09 -15.73 -0.36 -15.45 0.15 -15.15 0.49 -14.82 0.71 -14.46 0.85 -14.09 0.93 -13.69 0.98 -13.28 1.01 -12.86 1.02 -12.42 1.03 -11.96 1.04 -11.48 1.04 -10.98 1.04 -10.44 1.04 -9.85 1.04 -9.2 1.04 -8.48 1.04 -7.68 1.04 -6.8 1.04 -5.88 1.04 -4.91 1.04 -3.89 1.04 -2.83 1.04 -1.71 1.04 -0.51 1.04 0.8 1.04 2.24 1.04 3.86 1.04 5.68 1.04 7.06 1.04 8.26 1.04 9.37 1.04 10.48 1.04 11.63 1.04 12.82 1.04 14.04 1.04 15.27 1.04 16.5 1.04 17.72 1.04 18.93 1.04 20.13 1.04 21.33 1.04 23.74 1.04 26.25 1.04 29.43 1.04 33.72 1.04 40.02 1.04 47.79 1.04" class="primitive"/>
            </g>
          </g>
        </g>
      </g>
    </g>
  </g>
  <g class="guide ylabels" font-size="2.82" font-family="'PT Sans Caption','Helvetica Neue','Helvetica',sans-serif" fill="#6C606B" id="img-065955f1-163">
    <g transform="translate(115.48,17.86)" id="img-065955f1-164">
      <g class="primitive">
        <text text-anchor="end" dy="0.35em">-0.5</text>
      </g>
    </g>
    <g transform="translate(115.48,15.69)" id="img-065955f1-165">
      <g class="primitive">
        <text text-anchor="end" dy="0.35em">0.0</text>
      </g>
    </g>
    <g transform="translate(115.48,13.51)" id="img-065955f1-166">
      <g class="primitive">
        <text text-anchor="end" dy="0.35em">0.5</text>
      </g>
    </g>
    <g transform="translate(115.48,11.34)" id="img-065955f1-167">
      <g class="primitive">
        <text text-anchor="end" dy="0.35em">1.0</text>
      </g>
    </g>
    <g transform="translate(115.48,9.17)" id="img-065955f1-168">
      <g class="primitive">
        <text text-anchor="end" dy="0.35em">1.5</text>
      </g>
    </g>
    <g transform="translate(115.48,7)" id="img-065955f1-169">
      <g class="primitive">
        <text text-anchor="end" dy="0.35em">2.0</text>
      </g>
    </g>
  </g>
  <g font-size="3.88" font-family="'PT Sans','Helvetica Neue','Helvetica',sans-serif" fill="#564A55" stroke="#000000" stroke-opacity="0.000" id="img-065955f1-170">
    <g transform="translate(107.34,12.43)" id="img-065955f1-171">
      <g class="primitive">
        <text text-anchor="end" dy="0.35em">L_c</text>
      </g>
    </g>
  </g>
</g>
<g class="plotroot xscalable yscalable" id="img-065955f1-172">
  <g font-size="3.88" font-family="'PT Sans','Helvetica Neue','Helvetica',sans-serif" fill="#564A55" stroke="#000000" stroke-opacity="0.000" id="img-065955f1-173">
    <g transform="translate(55.65,27.53)" id="img-065955f1-174">
      <g class="primitive">
        <text text-anchor="middle" dy="0.6em">time (days)</text>
      </g>
    </g>
  </g>
  <g class="guide xlabels" font-size="2.82" font-family="'PT Sans Caption','Helvetica Neue','Helvetica',sans-serif" fill="#6C606B" id="img-065955f1-175">
    <g transform="translate(23.3,20.86)" id="img-065955f1-176">
      <g class="primitive">
        <text text-anchor="middle" dy="0.6em">0</text>
      </g>
    </g>
    <g transform="translate(39.48,20.86)" id="img-065955f1-177">
      <g class="primitive">
        <text text-anchor="middle" dy="0.6em">500</text>
      </g>
    </g>
    <g transform="translate(55.65,20.86)" id="img-065955f1-178">
      <g class="primitive">
        <text text-anchor="middle" dy="0.6em">1000</text>
      </g>
    </g>
    <g transform="translate(71.83,20.86)" id="img-065955f1-179">
      <g class="primitive">
        <text text-anchor="middle" dy="0.6em">1500</text>
      </g>
    </g>
    <g transform="translate(88,20.86)" id="img-065955f1-180">
      <g class="primitive">
        <text text-anchor="middle" dy="0.6em">2000</text>
      </g>
    </g>
  </g>
  <g clip-path="url(#img-065955f1-181)">
    <g id="img-065955f1-182">
      <g pointer-events="visible" fill="#000000" fill-opacity="0.000" stroke="#000000" stroke-opacity="0.000" class="guide background" id="img-065955f1-183">
        <g transform="translate(55.65,12.43)" id="img-065955f1-184">
          <path d="M-34.35,-7.43 L 34.35 -7.43 34.35 7.43 -34.35 7.43 z" class="primitive"/>
        </g>
      </g>
      <g class="guide ygridlines xfixed" stroke-dasharray="0.5,0.5" stroke-width="0.2" stroke="#D0D0E0" id="img-065955f1-185">
        <g transform="translate(55.65,17.86)" id="img-065955f1-186">
          <path fill="none" d="M-34.35,0 L 34.35 0" class="primitive"/>
        </g>
        <g transform="translate(55.65,12.43)" id="img-065955f1-187">
          <path fill="none" d="M-34.35,0 L 34.35 0" class="primitive"/>
        </g>
        <g transform="translate(55.65,7)" id="img-065955f1-188">
          <path fill="none" d="M-34.35,0 L 34.35 0" class="primitive"/>
        </g>
      </g>
      <g class="guide xgridlines yfixed" stroke-dasharray="0.5,0.5" stroke-width="0.2" stroke="#D0D0E0" id="img-065955f1-189">
        <g transform="translate(23.3,12.43)" id="img-065955f1-190">
          <path fill="none" d="M0,-7.43 L 0 7.43" class="primitive"/>
        </g>
        <g transform="translate(39.48,12.43)" id="img-065955f1-191">
          <path fill="none" d="M0,-7.43 L 0 7.43" class="primitive"/>
        </g>
        <g transform="translate(55.65,12.43)" id="img-065955f1-192">
          <path fill="none" d="M0,-7.43 L 0 7.43" class="primitive"/>
        </g>
        <g transform="translate(71.83,12.43)" id="img-065955f1-193">
          <path fill="none" d="M0,-7.43 L 0 7.43" class="primitive"/>
        </g>
        <g transform="translate(88,12.43)" id="img-065955f1-194">
          <path fill="none" d="M0,-7.43 L 0 7.43" class="primitive"/>
        </g>
      </g>
      <g class="plotpanel" id="img-065955f1-195">
        <metadata>
          <boundingbox value="21.304999999999993mm 5.0mm 68.695mm 14.857966666666666mm"/>
          <unitbox value="-61.82858026122575 1184.1965499986186 2123.6571605224512 -1368.3930999972372"/>
        </metadata>
        <g stroke-width="0.3" fill="#000000" fill-opacity="0.000" class="geometry" id="img-065955f1-196">
          <g class="color_LCHab{Float32}(70.0f0,60.0f0,240.0f0)" stroke-dasharray="none" stroke="#00BFFF" id="img-065955f1-197">
            <g transform="translate(40.09,15.58)" id="img-065955f1-198">
              <path fill="none" d="M-16.78,-8.47 L -16.78 -8.46 -16.77 -8.42 -16.74 -8.18 -16.66 -7.66 -16.55 -6.96 -16.41 -6.13 -16.23 -5.21 -16.02 -4.25 -15.77 -3.3 -15.49 -2.41 -15.19 -1.61 -14.86 -0.91 -14.5 -0.32 -14.13 0.17 -13.73 0.56 -13.32 0.88 -12.89 1.12 -12.45 1.3 -11.99 1.45 -11.51 1.55 -11.01 1.63 -10.46 1.69 -9.87 1.74 -9.23 1.77 -8.5 1.79 -7.7 1.81 -6.82 1.82 -5.89 1.82 -4.92 1.83 -3.9 1.83 -2.84 1.83 -1.71 1.83 -0.51 1.83 0.8 1.83 2.25 1.83 3.87 1.83 5.69 1.83 7.08 1.83 8.28 1.83 9.39 1.83 10.51 1.83 11.66 1.83 12.86 1.83 14.08 1.83 15.31 1.83 16.55 1.83 17.77 1.83 18.98 1.83 20.18 1.83 21.39 1.83 23.81 1.83 26.32 1.83 29.51 1.83 33.81 1.83 40.13 1.83 47.91 1.83" class="primitive"/>
            </g>
          </g>
        </g>
      </g>
    </g>
  </g>
  <g class="guide ylabels" font-size="2.82" font-family="'PT Sans Caption','Helvetica Neue','Helvetica',sans-serif" fill="#6C606B" id="img-065955f1-199">
    <g transform="translate(20.3,17.86)" id="img-065955f1-200">
      <g class="primitive">
        <text text-anchor="end" dy="0.35em">0</text>
      </g>
    </g>
    <g transform="translate(20.3,12.43)" id="img-065955f1-201">
      <g class="primitive">
        <text text-anchor="end" dy="0.35em">500</text>
      </g>
    </g>
    <g transform="translate(20.3,7)" id="img-065955f1-202">
      <g class="primitive">
        <text text-anchor="end" dy="0.35em">1000</text>
      </g>
    </g>
  </g>
  <g font-size="3.88" font-family="'PT Sans','Helvetica Neue','Helvetica',sans-serif" fill="#564A55" stroke="#000000" stroke-opacity="0.000" id="img-065955f1-203">
    <g transform="translate(8.81,10.43)" id="img-065955f1-204">
      <g class="primitive">
        <text text-anchor="middle" dy="0.35em" transform="rotate(-90,0, 2)">S_c</text>
      </g>
    </g>
  </g>
</g>
<defs>
  <clipPath id="img-065955f1-4">
    <path d="M126.74,83.29 L 185 83.29 185 98.14 126.74 98.14" />
  </clipPath>
  <clipPath id="img-065955f1-37">
    <path d="M16.28,83.29 L 90 83.29 90 98.14 16.28 98.14" />
  </clipPath>
  <clipPath id="img-065955f1-66">
    <path d="M114.74,44.14 L 185 44.14 185 59 114.74 59" />
  </clipPath>
  <clipPath id="img-065955f1-103">
    <path d="M19.39,44.14 L 90 44.14 90 59 19.39 59" />
  </clipPath>
  <clipPath id="img-065955f1-142">
    <path d="M116.48,5 L 185 5 185 19.86 116.48 19.86" />
  </clipPath>
  <clipPath id="img-065955f1-181">
    <path d="M21.3,5 L 90 5 90 19.86 21.3 19.86" />
  </clipPath>
</defs>
</svg>
