<?xml version="1.0" encoding="UTF-8"?>
<svg xmlns="http://www.w3.org/2000/svg"
     xmlns:xlink="http://www.w3.org/1999/xlink"
     xmlns:gadfly="http://www.gadflyjl.org/ns"
     version="1.2"
     width="190mm" height="117.43mm" viewBox="0 0 190 117.43"
     stroke="none"
     fill="#000000"
     stroke-width="0.3"
     font-size="3.88"
>
<defs>
  <marker id="arrow" markerWidth="15" markerHeight="7" refX="5" refY="3.5" orient="auto" markerUnits="strokeWidth">
    <path d="M0,0 L15,3.5 L0,7 z" stroke="context-stroke" fill="context-stroke"/>
  </marker>
</defs>
<g class="plotroot xscalable yscalable" id="img-ebc8dbd3-1">
  <g font-size="3.88" font-family="'PT Sans','Helvetica Neue','Helvetica',sans-serif" fill="#564A55" stroke="#000000" stroke-opacity="0.000" id="img-ebc8dbd3-2">
    <g transform="translate(105.86,105.82)">
      <g class="primitive">
        <text text-anchor="middle" dy="0.6em">time (days)</text>
      </g>
    </g>
  </g>
  <g class="guide xlabels" font-size="2.82" font-family="'PT Sans Caption','Helvetica Neue','Helvetica',sans-serif" fill="#6C606B" id="img-ebc8dbd3-3">
    <g transform="translate(28.73,99.14)">
      <g class="primitive">
        <text text-anchor="middle" dy="0.6em">0</text>
      </g>
    </g>
    <g transform="translate(67.29,99.14)">
      <g class="primitive">
        <text text-anchor="middle" dy="0.6em">500</text>
      </g>
    </g>
    <g transform="translate(105.86,99.14)">
      <g class="primitive">
        <text text-anchor="middle" dy="0.6em">1000</text>
      </g>
    </g>
    <g transform="translate(144.43,99.14)">
      <g class="primitive">
        <text text-anchor="middle" dy="0.6em">1500</text>
      </g>
    </g>
    <g transform="translate(183,99.14)">
      <g class="primitive">
        <text text-anchor="middle" dy="0.6em">2000</text>
      </g>
    </g>
  </g>
  <g clip-path="url(#img-ebc8dbd3-4)">
    <g id="img-ebc8dbd3-5">
      <g pointer-events="visible" fill="#000000" fill-opacity="0.000" stroke="#000000" stroke-opacity="0.000" class="guide background" id="img-ebc8dbd3-6">
        <g transform="translate(105.86,80.93)" id="img-ebc8dbd3-7">
          <path d="M-79.14,-17.21 L 79.14 -17.21 79.14 17.21 -79.14 17.21 z" class="primitive"/>
        </g>
      </g>
      <g class="guide ygridlines xfixed" stroke-dasharray="0.5,0.5" stroke-width="0.2" stroke="#D0D0E0" id="img-ebc8dbd3-8">
        <g transform="translate(105.86,96.14)" id="img-ebc8dbd3-9">
          <path fill="none" d="M-79.14,0 L 79.14 0" class="primitive"/>
        </g>
        <g transform="translate(105.86,91.07)" id="img-ebc8dbd3-10">
          <path fill="none" d="M-79.14,0 L 79.14 0" class="primitive"/>
        </g>
        <g transform="translate(105.86,86)" id="img-ebc8dbd3-11">
          <path fill="none" d="M-79.14,0 L 79.14 0" class="primitive"/>
        </g>
        <g transform="translate(105.86,80.93)" id="img-ebc8dbd3-12">
          <path fill="none" d="M-79.14,0 L 79.14 0" class="primitive"/>
        </g>
        <g transform="translate(105.86,75.86)" id="img-ebc8dbd3-13">
          <path fill="none" d="M-79.14,0 L 79.14 0" class="primitive"/>
        </g>
        <g transform="translate(105.86,70.79)" id="img-ebc8dbd3-14">
          <path fill="none" d="M-79.14,0 L 79.14 0" class="primitive"/>
        </g>
        <g transform="translate(105.86,65.71)" id="img-ebc8dbd3-15">
          <path fill="none" d="M-79.14,0 L 79.14 0" class="primitive"/>
        </g>
      </g>
      <g class="guide xgridlines yfixed" stroke-dasharray="0.5,0.5" stroke-width="0.2" stroke="#D0D0E0" id="img-ebc8dbd3-16">
        <g transform="translate(28.73,80.93)" id="img-ebc8dbd3-17">
          <path fill="none" d="M0,-17.21 L 0 17.21" class="primitive"/>
        </g>
        <g transform="translate(67.29,80.93)" id="img-ebc8dbd3-18">
          <path fill="none" d="M0,-17.21 L 0 17.21" class="primitive"/>
        </g>
        <g transform="translate(105.86,80.93)" id="img-ebc8dbd3-19">
          <path fill="none" d="M0,-17.21 L 0 17.21" class="primitive"/>
        </g>
        <g transform="translate(144.43,80.93)" id="img-ebc8dbd3-20">
          <path fill="none" d="M0,-17.21 L 0 17.21" class="primitive"/>
        </g>
        <g transform="translate(183,80.93)" id="img-ebc8dbd3-21">
          <path fill="none" d="M0,-17.21 L 0 17.21" class="primitive"/>
        </g>
      </g>
      <g class="plotpanel" id="img-ebc8dbd3-22">
        <metadata>
          <boundingbox value="26.725000000000023mm 63.71445mm 158.275mm 34.42945mm"/>
          <unitbox value="-25.92772646248582 233943.5481088222 2051.8554529249714 -67887.09621764442"/>
        </metadata>
        <g stroke-width="0.3" fill="#000000" fill-opacity="0.000" class="geometry" id="img-ebc8dbd3-23">
          <g class="color_LCHab{Float32}(70.0f0,60.0f0,240.0f0)" stroke-dasharray="none" stroke="#00BFFF" id="img-ebc8dbd3-24">
            <g transform="translate(84.96,90.45)" id="img-ebc8dbd3-25">
              <path fill="none" d="M-56.24,-22.2 L -56.23 -22.12 -56.15 -21.38 -55.99 -19.95 -55.78 -18.21 -55.5 -16.16 -55.17 -13.9 -54.75 -11.48 -54.25 -8.99 -53.65 -6.56 -52.94 -4.32 -52.15 -2.42 -51.29 -0.89 -50.34 0.3 -49.32 1.2 -48.22 1.85 -47.02 2.32 -45.72 2.64 -44.25 2.86 -42.34 3.01 -40.75 3.07 -38.99 3.11 -37.25 3.13 -35.37 3.14 -33.39 3.15 -31.18 3.15 -28.59 3.15 -25.71 3.15 -23.24 3.15 -20.75 3.15 -18.22 3.15 -15.64 3.15 -13.04 3.15 -10.4 3.15 -7.74 3.15 -5.07 3.15 -2.39 3.15 0.29 3.15 2.98 3.15 5.68 3.15 8.38 3.15 11.09 3.15 13.82 3.15 16.56 3.15 19.31 3.15 22.08 3.15 24.85 3.15 27.64 3.15 30.42 3.15 33.2 3.15 35.96 3.15 38.71 3.15 41.43 3.15 44.14 3.15 46.83 3.15 49.52 3.15 52.22 3.15 54.93 3.15 57.65 3.15 60.39 3.15 63.15 3.15 65.92 3.15 71.5 3.15 75.91 3.15 80.55 3.15 85.35 3.15 90.46 3.15 96.06 3.15 98.04 3.15" class="primitive"/>
            </g>
          </g>
        </g>
      </g>
    </g>
  </g>
  <g class="guide ylabels" font-size="2.82" font-family="'PT Sans Caption','Helvetica Neue','Helvetica',sans-serif" fill="#6C606B" id="img-ebc8dbd3-26">
    <g transform="translate(25.72,96.14)" id="img-ebc8dbd3-27">
      <g class="primitive">
        <text text-anchor="end" dy="0.35em">1.7×10⁵</text>
      </g>
    </g>
    <g transform="translate(25.72,91.07)" id="img-ebc8dbd3-28">
      <g class="primitive">
        <text text-anchor="end" dy="0.35em">1.8×10⁵</text>
      </g>
    </g>
    <g transform="translate(25.72,86)" id="img-ebc8dbd3-29">
      <g class="primitive">
        <text text-anchor="end" dy="0.35em">1.9×10⁵</text>
      </g>
    </g>
    <g transform="translate(25.72,80.93)" id="img-ebc8dbd3-30">
      <g class="primitive">
        <text text-anchor="end" dy="0.35em">2.0×10⁵</text>
      </g>
    </g>
    <g transform="translate(25.72,75.86)" id="img-ebc8dbd3-31">
      <g class="primitive">
        <text text-anchor="end" dy="0.35em">2.1×10⁵</text>
      </g>
    </g>
    <g transform="translate(25.72,70.79)" id="img-ebc8dbd3-32">
      <g class="primitive">
        <text text-anchor="end" dy="0.35em">2.2×10⁵</text>
      </g>
    </g>
    <g transform="translate(25.72,65.71)" id="img-ebc8dbd3-33">
      <g class="primitive">
        <text text-anchor="end" dy="0.35em">2.3×10⁵</text>
      </g>
    </g>
  </g>
  <g font-size="3.88" font-family="'PT Sans','Helvetica Neue','Helvetica',sans-serif" fill="#564A55" stroke="#000000" stroke-opacity="0.000" id="img-ebc8dbd3-34">
    <g transform="translate(8.81,78.93)" id="img-ebc8dbd3-35">
      <g class="primitive">
        <text text-anchor="middle" dy="0.35em" transform="rotate(-90,0, 2)">Flyes CL</text>
      </g>
    </g>
  </g>
</g>
<g class="plotroot xscalable yscalable" id="img-ebc8dbd3-36">
  <g font-size="3.88" font-family="'PT Sans','Helvetica Neue','Helvetica',sans-serif" fill="#564A55" stroke="#000000" stroke-opacity="0.000" id="img-ebc8dbd3-37">
    <g transform="translate(165.65,47.1)" id="img-ebc8dbd3-38">
      <g class="primitive">
        <text text-anchor="middle" dy="0.6em">time (days)</text>
      </g>
    </g>
  </g>
  <g class="guide xlabels" font-size="2.82" font-family="'PT Sans Caption','Helvetica Neue','Helvetica',sans-serif" fill="#6C606B" id="img-ebc8dbd3-39">
    <g transform="translate(148.3,40.43)" id="img-ebc8dbd3-40">
      <g class="primitive">
        <text text-anchor="middle" dy="0.6em">0</text>
      </g>
    </g>
    <g transform="translate(156.97,40.43)" id="img-ebc8dbd3-41">
      <g class="primitive">
        <text text-anchor="middle" dy="0.6em">500</text>
      </g>
    </g>
    <g transform="translate(165.65,40.43)" id="img-ebc8dbd3-42">
      <g class="primitive">
        <text text-anchor="middle" dy="0.6em">1000</text>
      </g>
    </g>
    <g transform="translate(174.32,40.43)" id="img-ebc8dbd3-43">
      <g class="primitive">
        <text text-anchor="middle" dy="0.6em">1500</text>
      </g>
    </g>
    <g transform="translate(183,40.43)" id="img-ebc8dbd3-44">
      <g class="primitive">
        <text text-anchor="middle" dy="0.6em">2000</text>
      </g>
    </g>
  </g>
  <g clip-path="url(#img-ebc8dbd3-45)">
    <g id="img-ebc8dbd3-46">
      <g pointer-events="visible" fill="#000000" fill-opacity="0.000" stroke="#000000" stroke-opacity="0.000" class="guide background" id="img-ebc8dbd3-47">
        <g transform="translate(165.65,22.21)" id="img-ebc8dbd3-48">
          <path d="M-19.35,-17.21 L 19.35 -17.21 19.35 17.21 -19.35 17.21 z" class="primitive"/>
        </g>
      </g>
      <g class="guide ygridlines xfixed" stroke-dasharray="0.5,0.5" stroke-width="0.2" stroke="#D0D0E0" id="img-ebc8dbd3-49">
        <g transform="translate(165.65,37.43)" id="img-ebc8dbd3-50">
          <path fill="none" d="M-19.35,0 L 19.35 0" class="primitive"/>
        </g>
        <g transform="translate(165.65,29.82)" id="img-ebc8dbd3-51">
          <path fill="none" d="M-19.35,0 L 19.35 0" class="primitive"/>
        </g>
        <g transform="translate(165.65,22.21)" id="img-ebc8dbd3-52">
          <path fill="none" d="M-19.35,0 L 19.35 0" class="primitive"/>
        </g>
        <g transform="translate(165.65,14.61)" id="img-ebc8dbd3-53">
          <path fill="none" d="M-19.35,0 L 19.35 0" class="primitive"/>
        </g>
        <g transform="translate(165.65,7)" id="img-ebc8dbd3-54">
          <path fill="none" d="M-19.35,0 L 19.35 0" class="primitive"/>
        </g>
      </g>
      <g class="guide xgridlines yfixed" stroke-dasharray="0.5,0.5" stroke-width="0.2" stroke="#D0D0E0" id="img-ebc8dbd3-55">
        <g transform="translate(148.3,22.21)" id="img-ebc8dbd3-56">
          <path fill="none" d="M0,-17.21 L 0 17.21" class="primitive"/>
        </g>
        <g transform="translate(156.97,22.21)" id="img-ebc8dbd3-57">
          <path fill="none" d="M0,-17.21 L 0 17.21" class="primitive"/>
        </g>
        <g transform="translate(165.65,22.21)" id="img-ebc8dbd3-58">
          <path fill="none" d="M0,-17.21 L 0 17.21" class="primitive"/>
        </g>
        <g transform="translate(174.32,22.21)" id="img-ebc8dbd3-59">
          <path fill="none" d="M0,-17.21 L 0 17.21" class="primitive"/>
        </g>
        <g transform="translate(183,22.21)" id="img-ebc8dbd3-60">
          <path fill="none" d="M0,-17.21 L 0 17.21" class="primitive"/>
        </g>
      </g>
      <g class="plotpanel" id="img-ebc8dbd3-61">
        <metadata>
          <boundingbox value="146.29833333333332mm 5.0mm 38.70166666666666mm 34.42945mm"/>
          <unitbox value="-115.26823879736806 426.2903207254814 2230.536477594736 -452.5806414509628"/>
        </metadata>
        <g stroke-width="0.3" fill="#000000" fill-opacity="0.000" class="geometry" id="img-ebc8dbd3-62">
          <g class="color_LCHab{Float32}(70.0f0,60.0f0,240.0f0)" stroke-dasharray="none" stroke="#00BFFF" id="img-ebc8dbd3-63">
            <g transform="translate(160.95,31.9)" id="img-ebc8dbd3-64">
              <path fill="none" d="M-12.65,0.97 L -12.65 0.98 -12.63 1.05 -12.59 1.05 -12.55 0.81 -12.48 0.2 -12.41 -0.89 -12.32 -2.53 -12.2 -4.71 -12.07 -7.34 -11.91 -10.19 -11.73 -13.02 -11.54 -15.64 -11.32 -17.95 -11.09 -19.79 -10.85 -21.01 -10.58 -21.44 -10.28 -20.94 -9.95 -19.39 -9.52 -16.35 -9.17 -13.43 -8.77 -10.22 -8.38 -7.3 -7.96 -4.6 -7.51 -2.27 -7.01 -0.26 -6.43 1.45 -5.78 2.77 -5.23 3.56 -4.67 4.12 -4.1 4.53 -3.52 4.82 -2.93 5.03 -2.34 5.18 -1.74 5.28 -1.14 5.36 -0.54 5.41 0.07 5.45 0.67 5.47 1.28 5.49 1.88 5.5 2.5 5.51 3.11 5.52 3.72 5.52 4.34 5.52 4.97 5.53 5.59 5.53 6.22 5.53 6.84 5.53 7.47 5.53 8.09 5.53 8.71 5.53 9.32 5.53 9.93 5.53 10.53 5.53 11.14 5.53 11.75 5.53 12.35 5.53 12.97 5.53 13.58 5.53 14.2 5.53 14.83 5.53 16.08 5.53 17.08 5.53 18.12 5.53 19.2 5.53 20.35 5.53 21.61 5.53 22.05 5.53" class="primitive"/>
            </g>
          </g>
        </g>
      </g>
    </g>
  </g>
  <g class="guide ylabels" font-size="2.82" font-family="'PT Sans Caption','Helvetica Neue','Helvetica',sans-serif" fill="#6C606B" id="img-ebc8dbd3-65">
    <g transform="translate(145.3,37.43)" id="img-ebc8dbd3-66">
      <g class="primitive">
        <text text-anchor="end" dy="0.35em">0</text>
      </g>
    </g>
    <g transform="translate(145.3,29.82)" id="img-ebc8dbd3-67">
      <g class="primitive">
        <text text-anchor="end" dy="0.35em">100</text>
      </g>
    </g>
    <g transform="translate(145.3,22.21)" id="img-ebc8dbd3-68">
      <g class="primitive">
        <text text-anchor="end" dy="0.35em">200</text>
      </g>
    </g>
    <g transform="translate(145.3,14.61)" id="img-ebc8dbd3-69">
      <g class="primitive">
        <text text-anchor="end" dy="0.35em">300</text>
      </g>
    </g>
    <g transform="translate(145.3,7)" id="img-ebc8dbd3-70">
      <g class="primitive">
        <text text-anchor="end" dy="0.35em">400</text>
      </g>
    </g>
  </g>
  <g font-size="3.88" font-family="'PT Sans','Helvetica Neue','Helvetica',sans-serif" fill="#564A55" stroke="#000000" stroke-opacity="0.000" id="img-ebc8dbd3-71">
    <g transform="translate(135.47,20.21)" id="img-ebc8dbd3-72">
      <g class="primitive">
        <text text-anchor="middle" dy="0.35em" transform="rotate(-90,0, 2)">I_f</text>
      </g>
    </g>
  </g>
</g>
<g class="plotroot xscalable yscalable" id="img-ebc8dbd3-73">
  <g font-size="3.88" font-family="'PT Sans','Helvetica Neue','Helvetica',sans-serif" fill="#564A55" stroke="#000000" stroke-opacity="0.000" id="img-ebc8dbd3-74">
    <g transform="translate(103.15,47.1)" id="img-ebc8dbd3-75">
      <g class="primitive">
        <text text-anchor="middle" dy="0.6em">time (days)</text>
      </g>
    </g>
  </g>
  <g class="guide xlabels" font-size="2.82" font-family="'PT Sans Caption','Helvetica Neue','Helvetica',sans-serif" fill="#6C606B" id="img-ebc8dbd3-76">
    <g transform="translate(86.64,40.43)" id="img-ebc8dbd3-77">
      <g class="primitive">
        <text text-anchor="middle" dy="0.6em">0</text>
      </g>
    </g>
    <g transform="translate(94.9,40.43)" id="img-ebc8dbd3-78">
      <g class="primitive">
        <text text-anchor="middle" dy="0.6em">500</text>
      </g>
    </g>
    <g transform="translate(103.15,40.43)" id="img-ebc8dbd3-79">
      <g class="primitive">
        <text text-anchor="middle" dy="0.6em">1000</text>
      </g>
    </g>
    <g transform="translate(111.41,40.43)" id="img-ebc8dbd3-80">
      <g class="primitive">
        <text text-anchor="middle" dy="0.6em">1500</text>
      </g>
    </g>
    <g transform="translate(119.67,40.43)" id="img-ebc8dbd3-81">
      <g class="primitive">
        <text text-anchor="middle" dy="0.6em">2000</text>
      </g>
    </g>
  </g>
  <g clip-path="url(#img-ebc8dbd3-82)">
    <g id="img-ebc8dbd3-83">
      <g pointer-events="visible" fill="#000000" fill-opacity="0.000" stroke="#000000" stroke-opacity="0.000" class="guide background" id="img-ebc8dbd3-84">
        <g transform="translate(103.15,22.21)" id="img-ebc8dbd3-85">
          <path d="M-18.51,-17.21 L 18.51 -17.21 18.51 17.21 -18.51 17.21 z" class="primitive"/>
        </g>
      </g>
      <g class="guide ygridlines xfixed" stroke-dasharray="0.5,0.5" stroke-width="0.2" stroke="#D0D0E0" id="img-ebc8dbd3-86">
        <g transform="translate(103.15,37.43)" id="img-ebc8dbd3-87">
          <path fill="none" d="M-18.51,0 L 18.51 0" class="primitive"/>
        </g>
        <g transform="translate(103.15,27.29)" id="img-ebc8dbd3-88">
          <path fill="none" d="M-18.51,0 L 18.51 0" class="primitive"/>
        </g>
        <g transform="translate(103.15,17.14)" id="img-ebc8dbd3-89">
          <path fill="none" d="M-18.51,0 L 18.51 0" class="primitive"/>
        </g>
        <g transform="translate(103.15,7)" id="img-ebc8dbd3-90">
          <path fill="none" d="M-18.51,0 L 18.51 0" class="primitive"/>
        </g>
      </g>
      <g class="guide xgridlines yfixed" stroke-dasharray="0.5,0.5" stroke-width="0.2" stroke="#D0D0E0" id="img-ebc8dbd3-91">
        <g transform="translate(86.64,22.21)" id="img-ebc8dbd3-92">
          <path fill="none" d="M0,-17.21 L 0 17.21" class="primitive"/>
        </g>
        <g transform="translate(94.9,22.21)" id="img-ebc8dbd3-93">
          <path fill="none" d="M0,-17.21 L 0 17.21" class="primitive"/>
        </g>
        <g transform="translate(103.15,22.21)" id="img-ebc8dbd3-94">
          <path fill="none" d="M0,-17.21 L 0 17.21" class="primitive"/>
        </g>
        <g transform="translate(111.41,22.21)" id="img-ebc8dbd3-95">
          <path fill="none" d="M0,-17.21 L 0 17.21" class="primitive"/>
        </g>
        <g transform="translate(119.67,22.21)" id="img-ebc8dbd3-96">
          <path fill="none" d="M0,-17.21 L 0 17.21" class="primitive"/>
        </g>
      </g>
      <g class="plotpanel" id="img-ebc8dbd3-97">
        <metadata>
          <boundingbox value="84.63833333333332mm 5.0mm 37.02833333333333mm 34.42945mm"/>
          <unitbox value="-121.1081394762073 1598.5887027205551 2242.2162789524145 -1697.1774054411103"/>
        </metadata>
        <g stroke-width="0.3" fill="#000000" fill-opacity="0.000" class="geometry" id="img-ebc8dbd3-98">
          <g class="color_LCHab{Float32}(70.0f0,60.0f0,240.0f0)" stroke-dasharray="none" stroke="#00BFFF" id="img-ebc8dbd3-99">
            <g transform="translate(98.68,32.66)" id="img-ebc8dbd3-100">
              <path fill="none" d="M-12.04,3.96 L -12.04 3.82 -12.02 2.57 -11.99 0.28 -11.94 -2.28 -11.88 -4.99 -11.81 -7.63 -11.72 -10.03 -11.61 -12.09 -11.49 -13.77 -11.33 -15.11 -11.17 -16.18 -10.98 -17.01 -10.78 -17.52 -10.56 -17.55 -10.32 -16.99 -10.07 -15.76 -9.79 -13.89 -9.47 -11.46 -9.06 -8.26 -8.72 -5.85 -8.35 -3.59 -7.98 -1.78 -7.57 -0.26 -7.15 0.96 -6.67 1.97 -6.12 2.8 -5.5 3.44 -4.97 3.81 -4.44 4.08 -3.9 4.28 -3.35 4.42 -2.79 4.52 -2.23 4.6 -1.66 4.65 -1.09 4.68 -0.51 4.71 0.06 4.73 0.64 4.74 1.22 4.75 1.79 4.75 2.37 4.76 2.96 4.76 3.54 4.76 4.13 4.76 4.73 4.77 5.32 4.77 5.92 4.77 6.51 4.77 7.11 4.77 7.7 4.77 8.29 4.77 8.87 4.77 9.45 4.77 10.03 4.77 10.6 4.77 11.18 4.77 11.76 4.77 12.34 4.77 12.93 4.77 13.52 4.77 14.11 4.77 15.31 4.77 16.25 4.77 17.25 4.77 18.27 4.77 19.37 4.77 20.57 4.77 20.99 4.77" class="primitive"/>
            </g>
          </g>
        </g>
      </g>
    </g>
  </g>
  <g class="guide ylabels" font-size="2.82" font-family="'PT Sans Caption','Helvetica Neue','Helvetica',sans-serif" fill="#6C606B" id="img-ebc8dbd3-101">
    <g transform="translate(83.64,37.43)" id="img-ebc8dbd3-102">
      <g class="primitive">
        <text text-anchor="end" dy="0.35em">0</text>
      </g>
    </g>
    <g transform="translate(83.64,27.29)" id="img-ebc8dbd3-103">
      <g class="primitive">
        <text text-anchor="end" dy="0.35em">500</text>
      </g>
    </g>
    <g transform="translate(83.64,17.14)" id="img-ebc8dbd3-104">
      <g class="primitive">
        <text text-anchor="end" dy="0.35em">1000</text>
      </g>
    </g>
    <g transform="translate(83.64,7)" id="img-ebc8dbd3-105">
      <g class="primitive">
        <text text-anchor="end" dy="0.35em">1500</text>
      </g>
    </g>
  </g>
  <g font-size="3.88" font-family="'PT Sans','Helvetica Neue','Helvetica',sans-serif" fill="#564A55" stroke="#000000" stroke-opacity="0.000" id="img-ebc8dbd3-106">
    <g transform="translate(72.14,20.21)" id="img-ebc8dbd3-107">
      <g class="primitive">
        <text text-anchor="middle" dy="0.35em" transform="rotate(-90,0, 2)">L_f</text>
      </g>
    </g>
  </g>
</g>
<g class="plotroot xscalable yscalable" id="img-ebc8dbd3-108">
  <g font-size="3.88" font-family="'PT Sans','Helvetica Neue','Helvetica',sans-serif" fill="#564A55" stroke="#000000" stroke-opacity="0.000" id="img-ebc8dbd3-109">
    <g transform="translate(42.53,47.1)" id="img-ebc8dbd3-110">
      <g class="primitive">
        <text text-anchor="middle" dy="0.6em">time (days)</text>
      </g>
    </g>
  </g>
  <g class="guide xlabels" font-size="2.82" font-family="'PT Sans Caption','Helvetica Neue','Helvetica',sans-serif" fill="#6C606B" id="img-ebc8dbd3-111">
    <g transform="translate(28.72,40.43)" id="img-ebc8dbd3-112">
      <g class="primitive">
        <text text-anchor="middle" dy="0.6em">0</text>
      </g>
    </g>
    <g transform="translate(35.63,40.43)" id="img-ebc8dbd3-113">
      <g class="primitive">
        <text text-anchor="middle" dy="0.6em">500</text>
      </g>
    </g>
    <g transform="translate(42.53,40.43)" id="img-ebc8dbd3-114">
      <g class="primitive">
        <text text-anchor="middle" dy="0.6em">1000</text>
      </g>
    </g>
    <g transform="translate(49.43,40.43)" id="img-ebc8dbd3-115">
      <g class="primitive">
        <text text-anchor="middle" dy="0.6em">1500</text>
      </g>
    </g>
    <g transform="translate(56.33,40.43)" id="img-ebc8dbd3-116">
      <g class="primitive">
        <text text-anchor="middle" dy="0.6em">2000</text>
      </g>
    </g>
  </g>
  <g clip-path="url(#img-ebc8dbd3-117)">
    <g id="img-ebc8dbd3-118">
      <g pointer-events="visible" fill="#000000" fill-opacity="0.000" stroke="#000000" stroke-opacity="0.000" class="guide background" id="img-ebc8dbd3-119">
        <g transform="translate(42.53,22.21)" id="img-ebc8dbd3-120">
          <path d="M-15.8,-17.21 L 15.8 -17.21 15.8 17.21 -15.8 17.21 z" class="primitive"/>
        </g>
      </g>
      <g class="guide ygridlines xfixed" stroke-dasharray="0.5,0.5" stroke-width="0.2" stroke="#D0D0E0" id="img-ebc8dbd3-121">
        <g transform="translate(42.53,37.43)" id="img-ebc8dbd3-122">
          <path fill="none" d="M-15.8,0 L 15.8 0" class="primitive"/>
        </g>
        <g transform="translate(42.53,32.36)" id="img-ebc8dbd3-123">
          <path fill="none" d="M-15.8,0 L 15.8 0" class="primitive"/>
        </g>
        <g transform="translate(42.53,27.29)" id="img-ebc8dbd3-124">
          <path fill="none" d="M-15.8,0 L 15.8 0" class="primitive"/>
        </g>
        <g transform="translate(42.53,22.21)" id="img-ebc8dbd3-125">
          <path fill="none" d="M-15.8,0 L 15.8 0" class="primitive"/>
        </g>
        <g transform="translate(42.53,17.14)" id="img-ebc8dbd3-126">
          <path fill="none" d="M-15.8,0 L 15.8 0" class="primitive"/>
        </g>
        <g transform="translate(42.53,12.07)" id="img-ebc8dbd3-127">
          <path fill="none" d="M-15.8,0 L 15.8 0" class="primitive"/>
        </g>
        <g transform="translate(42.53,7)" id="img-ebc8dbd3-128">
          <path fill="none" d="M-15.8,0 L 15.8 0" class="primitive"/>
        </g>
      </g>
      <g class="guide xgridlines yfixed" stroke-dasharray="0.5,0.5" stroke-width="0.2" stroke="#D0D0E0" id="img-ebc8dbd3-129">
        <g transform="translate(28.72,22.21)" id="img-ebc8dbd3-130">
          <path fill="none" d="M0,-17.21 L 0 17.21" class="primitive"/>
        </g>
        <g transform="translate(35.63,22.21)" id="img-ebc8dbd3-131">
          <path fill="none" d="M0,-17.21 L 0 17.21" class="primitive"/>
        </g>
        <g transform="translate(42.53,22.21)" id="img-ebc8dbd3-132">
          <path fill="none" d="M0,-17.21 L 0 17.21" class="primitive"/>
        </g>
        <g transform="translate(49.43,22.21)" id="img-ebc8dbd3-133">
          <path fill="none" d="M0,-17.21 L 0 17.21" class="primitive"/>
        </g>
        <g transform="translate(56.33,22.21)" id="img-ebc8dbd3-134">
          <path fill="none" d="M0,-17.21 L 0 17.21" class="primitive"/>
        </g>
      </g>
      <g class="plotpanel" id="img-ebc8dbd3-135">
        <metadata>
          <boundingbox value="26.725mm 5.0mm 31.608333333333327mm 34.42945mm"/>
          <unitbox value="-144.88379112586782 233943.5481088222 2289.767582251736 -67887.09621764442"/>
        </metadata>
        <g stroke-width="0.3" fill="#000000" fill-opacity="0.000" class="geometry" id="img-ebc8dbd3-136">
          <g class="color_LCHab{Float32}(70.0f0,60.0f0,240.0f0)" stroke-dasharray="none" stroke="#00BFFF" id="img-ebc8dbd3-137">
            <g transform="translate(38.79,31.9)" id="img-ebc8dbd3-138">
              <path fill="none" d="M-10.06,-22.31 L -10.06 -22.22 -10.05 -21.45 -10.02 -19.96 -9.98 -18.15 -9.93 -16.04 -9.87 -13.7 -9.8 -11.21 -9.71 -8.66 -9.6 -6.16 -9.47 -3.88 -9.33 -1.93 -9.18 -0.36 -9.01 0.86 -8.83 1.77 -8.63 2.42 -8.42 2.86 -8.18 3.13 -7.92 3.27 -7.58 3.32 -7.29 3.31 -6.98 3.27 -6.67 3.23 -6.33 3.18 -5.97 3.14 -5.58 3.1 -5.12 3.07 -4.6 3.05 -4.16 3.04 -3.71 3.03 -3.26 3.02 -2.8 3.01 -2.33 3.01 -1.86 3.01 -1.39 3 -0.91 3 -0.43 3 0.05 3 0.53 3 1.02 3 1.5 3 1.99 3 2.47 3 2.96 3 3.46 3 3.95 3 4.45 3 4.95 3 5.44 3 5.94 3 6.44 3 6.93 3 7.41 3 7.9 3 8.38 3 8.86 3 9.34 3 9.83 3 10.32 3 10.81 3 11.3 3 11.8 3 12.8 3 13.58 3 14.42 3 15.27 3 16.19 3 17.19 3 17.54 3" class="primitive"/>
            </g>
          </g>
        </g>
      </g>
    </g>
  </g>
  <g class="guide ylabels" font-size="2.82" font-family="'PT Sans Caption','Helvetica Neue','Helvetica',sans-serif" fill="#6C606B" id="img-ebc8dbd3-139">
    <g transform="translate(25.72,37.43)" id="img-ebc8dbd3-140">
      <g class="primitive">
        <text text-anchor="end" dy="0.35em">1.7×10⁵</text>
      </g>
    </g>
    <g transform="translate(25.72,32.36)" id="img-ebc8dbd3-141">
      <g class="primitive">
        <text text-anchor="end" dy="0.35em">1.8×10⁵</text>
      </g>
    </g>
    <g transform="translate(25.72,27.29)" id="img-ebc8dbd3-142">
      <g class="primitive">
        <text text-anchor="end" dy="0.35em">1.9×10⁵</text>
      </g>
    </g>
    <g transform="translate(25.72,22.21)" id="img-ebc8dbd3-143">
      <g class="primitive">
        <text text-anchor="end" dy="0.35em">2.0×10⁵</text>
      </g>
    </g>
    <g transform="translate(25.72,17.14)" id="img-ebc8dbd3-144">
      <g class="primitive">
        <text text-anchor="end" dy="0.35em">2.1×10⁵</text>
      </g>
    </g>
    <g transform="translate(25.72,12.07)" id="img-ebc8dbd3-145">
      <g class="primitive">
        <text text-anchor="end" dy="0.35em">2.2×10⁵</text>
      </g>
    </g>
    <g transform="translate(25.72,7)" id="img-ebc8dbd3-146">
      <g class="primitive">
        <text text-anchor="end" dy="0.35em">2.3×10⁵</text>
      </g>
    </g>
  </g>
  <g font-size="3.88" font-family="'PT Sans','Helvetica Neue','Helvetica',sans-serif" fill="#564A55" stroke="#000000" stroke-opacity="0.000" id="img-ebc8dbd3-147">
    <g transform="translate(8.81,20.21)" id="img-ebc8dbd3-148">
      <g class="primitive">
        <text text-anchor="middle" dy="0.35em" transform="rotate(-90,0, 2)">S_fs</text>
      </g>
    </g>
  </g>
</g>
<defs>
  <clipPath id="img-ebc8dbd3-4">
    <path d="M26.73,63.71 L 185 63.71 185 98.14 26.73 98.14" />
  </clipPath>
  <clipPath id="img-ebc8dbd3-45">
    <path d="M146.3,5 L 185 5 185 39.43 146.3 39.43" />
  </clipPath>
  <clipPath id="img-ebc8dbd3-82">
    <path d="M84.64,5 L 121.67 5 121.67 39.43 84.64 39.43" />
  </clipPath>
  <clipPath id="img-ebc8dbd3-117">
    <path d="M26.72,5 L 58.33 5 58.33 39.43 26.72 39.43" />
  </clipPath>
</defs>
</svg>
