<?xml version="1.0" encoding="UTF-8"?>
<svg xmlns="http://www.w3.org/2000/svg"
     xmlns:xlink="http://www.w3.org/1999/xlink"
     xmlns:gadfly="http://www.gadflyjl.org/ns"
     version="1.2"
     width="190mm" height="117.43mm" viewBox="0 0 190 117.43"
     stroke="none"
     fill="#000000"
     stroke-width="0.3"
     font-size="3.88"
>
<defs>
  <marker id="arrow" markerWidth="15" markerHeight="7" refX="5" refY="3.5" orient="auto" markerUnits="strokeWidth">
    <path d="M0,0 L15,3.5 L0,7 z" stroke="context-stroke" fill="context-stroke"/>
  </marker>
</defs>
<g class="plotroot xscalable yscalable" id="img-c9632dec-1">
  <g font-size="3.88" font-family="'PT Sans','Helvetica Neue','Helvetica',sans-serif" fill="#564A55" stroke="#000000" stroke-opacity="0.000" id="img-c9632dec-2">
    <g transform="translate(106.7,105.82)">
      <g class="primitive">
        <text text-anchor="middle" dy="0.6em">time (days)</text>
      </g>
    </g>
  </g>
  <g class="guide xlabels" font-size="2.82" font-family="'PT Sans Caption','Helvetica Neue','Helvetica',sans-serif" fill="#6C606B" id="img-c9632dec-3">
    <g transform="translate(30.4,99.14)">
      <g class="primitive">
        <text text-anchor="middle" dy="0.6em">0</text>
      </g>
    </g>
    <g transform="translate(68.55,99.14)">
      <g class="primitive">
        <text text-anchor="middle" dy="0.6em">500</text>
      </g>
    </g>
    <g transform="translate(106.7,99.14)">
      <g class="primitive">
        <text text-anchor="middle" dy="0.6em">1000</text>
      </g>
    </g>
    <g transform="translate(144.85,99.14)">
      <g class="primitive">
        <text text-anchor="middle" dy="0.6em">1500</text>
      </g>
    </g>
    <g transform="translate(183,99.14)">
      <g class="primitive">
        <text text-anchor="middle" dy="0.6em">2000</text>
      </g>
    </g>
  </g>
  <g clip-path="url(#img-c9632dec-4)">
    <g id="img-c9632dec-5">
      <g pointer-events="visible" fill="#000000" fill-opacity="0.000" stroke="#000000" stroke-opacity="0.000" class="guide background" id="img-c9632dec-6">
        <g transform="translate(106.7,80.93)" id="img-c9632dec-7">
          <path d="M-78.3,-17.21 L 78.3 -17.21 78.3 17.21 -78.3 17.21 z" class="primitive"/>
        </g>
      </g>
      <g class="guide ygridlines xfixed" stroke-dasharray="0.5,0.5" stroke-width="0.2" stroke="#D0D0E0" id="img-c9632dec-8">
        <g transform="translate(106.7,96.14)" id="img-c9632dec-9">
          <path fill="none" d="M-78.3,0 L 78.3 0" class="primitive"/>
        </g>
        <g transform="translate(106.7,90.06)" id="img-c9632dec-10">
          <path fill="none" d="M-78.3,0 L 78.3 0" class="primitive"/>
        </g>
        <g transform="translate(106.7,83.97)" id="img-c9632dec-11">
          <path fill="none" d="M-78.3,0 L 78.3 0" class="primitive"/>
        </g>
        <g transform="translate(106.7,77.89)" id="img-c9632dec-12">
          <path fill="none" d="M-78.3,0 L 78.3 0" class="primitive"/>
        </g>
        <g transform="translate(106.7,71.8)" id="img-c9632dec-13">
          <path fill="none" d="M-78.3,0 L 78.3 0" class="primitive"/>
        </g>
        <g transform="translate(106.7,65.71)" id="img-c9632dec-14">
          <path fill="none" d="M-78.3,0 L 78.3 0" class="primitive"/>
        </g>
      </g>
      <g class="guide xgridlines yfixed" stroke-dasharray="0.5,0.5" stroke-width="0.2" stroke="#D0D0E0" id="img-c9632dec-15">
        <g transform="translate(30.4,80.93)" id="img-c9632dec-16">
          <path fill="none" d="M0,-17.21 L 0 17.21" class="primitive"/>
        </g>
        <g transform="translate(68.55,80.93)" id="img-c9632dec-17">
          <path fill="none" d="M0,-17.21 L 0 17.21" class="primitive"/>
        </g>
        <g transform="translate(106.7,80.93)" id="img-c9632dec-18">
          <path fill="none" d="M0,-17.21 L 0 17.21" class="primitive"/>
        </g>
        <g transform="translate(144.85,80.93)" id="img-c9632dec-19">
          <path fill="none" d="M0,-17.21 L 0 17.21" class="primitive"/>
        </g>
        <g transform="translate(183,80.93)" id="img-c9632dec-20">
          <path fill="none" d="M0,-17.21 L 0 17.21" class="primitive"/>
        </g>
      </g>
      <g class="plotpanel" id="img-c9632dec-21">
        <metadata>
          <boundingbox value="28.39833333333334mm 63.71445mm 156.60166666666666mm 34.42945mm"/>
          <unitbox value="-26.212033507716168 225000.00000046572 2052.4240670154322 -1.1314602190581413e-6"/>
        </metadata>
        <g stroke-width="0.3" fill="#000000" fill-opacity="0.000" class="geometry" id="img-c9632dec-22">
          <g class="color_LCHab{Float32}(70.0f0,60.0f0,240.0f0)" stroke-dasharray="none" stroke="#00BFFF" id="img-c9632dec-23">
            <g transform="translate(58.13,78.14)" id="img-c9632dec-24">
              <path fill="none" d="M-27.73,-0.25 L -27.72 -0.25 -27.66 -0.25 -27.53 -0.25 -27.36 -0.25 -27.15 -0.25 -26.88 -0.25 -26.54 -0.25 -26.12 -0.25 -25.6 -0.25 -24.96 -0.25 -24.2 -0.25 -23.34 -0.25 -22.42 -0.25 -21.48 -0.25 -20.61 -0.25 -19.97 -0.25 -19.38 -0.25 -18.87 -0.25 -18.38 -0.25 -17.9 -0.25 -17.41 -0.25 -16.92 -0.25 -16.43 -0.25 -15.94 -0.25 -15.45 -0.25 -14.96 -0.25 -14.46 -0.25 -13.96 -0.25 -13.46 -0.25 -12.95 -0.25 -12.44 -0.25 -11.93 -0.25 -11.42 -0.25 -10.9 -0.25 -10.39 -0.25 -9.87 -0.25 -9.36 -0.25 -8.85 -0.25 -8.33 -0.25 -7.82 -0.25 -7.31 -0.25 -6.8 -0.25 -6.3 -0.25 -5.79 -0.25 -5.28 -0.25 -4.77 -0.25 -4.26 -0.25 -3.76 -0.25 -3.25 -0.25 -2.74 -0.25 -2.24 -0.25 -1.73 -0.25 -1.22 -0.25 -0.72 -0.25 -0.21 -0.25 0.3 -0.25 0.8 -0.25 1.31 -0.25 1.82 -0.25 2.32 -0.25 2.83 -0.25 3.34 -0.25 3.84 -0.25 4.35 -0.25 4.86 -0.25 5.36 -0.25 5.87 -0.25 6.38 -0.25 6.88 -0.25 7.39 -0.25 7.9 -0.25 8.41 -0.25 8.91 -0.25 9.42 -0.25 9.93 -0.25 10.43 -0.25 10.94 -0.25 11.45 -0.25 11.96 -0.25 12.46 -0.25 12.97 -0.25 13.48 -0.25 13.99 -0.25 14.49 -0.25 15 -0.25 16.02 0.55 17.08 0.32 18.41 0.23 20.23 0.02 22.89 -0.34 27.13 0.04 35.29 1.25 47 9.47 62.59 15.87 82.67 6.74 107.9 -10.22 124.87 -2.43" class="primitive"/>
            </g>
          </g>
        </g>
      </g>
    </g>
  </g>
  <g class="guide ylabels" font-size="2.82" font-family="'PT Sans Caption','Helvetica Neue','Helvetica',sans-serif" fill="#6C606B" id="img-c9632dec-25">
    <g transform="translate(27.4,96.14)" id="img-c9632dec-26">
      <g class="primitive">
        <text text-anchor="end" dy="0.35em">2.25×10⁵</text>
      </g>
    </g>
    <g transform="translate(27.4,90.06)" id="img-c9632dec-27">
      <g class="primitive">
        <text text-anchor="end" dy="0.35em">2.25×10⁵</text>
      </g>
    </g>
    <g transform="translate(27.4,83.97)" id="img-c9632dec-28">
      <g class="primitive">
        <text text-anchor="end" dy="0.35em">2.25×10⁵</text>
      </g>
    </g>
    <g transform="translate(27.4,77.89)" id="img-c9632dec-29">
      <g class="primitive">
        <text text-anchor="end" dy="0.35em">2.25×10⁵</text>
      </g>
    </g>
    <g transform="translate(27.4,71.8)" id="img-c9632dec-30">
      <g class="primitive">
        <text text-anchor="end" dy="0.35em">2.25×10⁵</text>
      </g>
    </g>
    <g transform="translate(27.4,65.71)" id="img-c9632dec-31">
      <g class="primitive">
        <text text-anchor="end" dy="0.35em">2.25×10⁵</text>
      </g>
    </g>
  </g>
  <g font-size="3.88" font-family="'PT Sans','Helvetica Neue','Helvetica',sans-serif" fill="#564A55" stroke="#000000" stroke-opacity="0.000" id="img-c9632dec-32">
    <g transform="translate(8.81,78.93)" id="img-c9632dec-33">
      <g class="primitive">
        <text text-anchor="middle" dy="0.35em" transform="rotate(-90,0, 2)">Flyes CL</text>
      </g>
    </g>
  </g>
</g>
<g class="plotroot xscalable yscalable" id="img-c9632dec-34">
  <g font-size="3.88" font-family="'PT Sans','Helvetica Neue','Helvetica',sans-serif" fill="#564A55" stroke="#000000" stroke-opacity="0.000" id="img-c9632dec-35">
    <g transform="translate(169.2,47.1)" id="img-c9632dec-36">
      <g class="primitive">
        <text text-anchor="middle" dy="0.6em">time (days)</text>
      </g>
    </g>
  </g>
  <g class="guide xlabels" font-size="2.82" font-family="'PT Sans Caption','Helvetica Neue','Helvetica',sans-serif" fill="#6C606B" id="img-c9632dec-37">
    <g transform="translate(155.39,40.43)" id="img-c9632dec-38">
      <g class="primitive">
        <text text-anchor="middle" dy="0.6em">0</text>
      </g>
    </g>
    <g transform="translate(162.29,40.43)" id="img-c9632dec-39">
      <g class="primitive">
        <text text-anchor="middle" dy="0.6em">500</text>
      </g>
    </g>
    <g transform="translate(169.2,40.43)" id="img-c9632dec-40">
      <g class="primitive">
        <text text-anchor="middle" dy="0.6em">1000</text>
      </g>
    </g>
    <g transform="translate(176.1,40.43)" id="img-c9632dec-41">
      <g class="primitive">
        <text text-anchor="middle" dy="0.6em">1500</text>
      </g>
    </g>
    <g transform="translate(183,40.43)" id="img-c9632dec-42">
      <g class="primitive">
        <text text-anchor="middle" dy="0.6em">2000</text>
      </g>
    </g>
  </g>
  <g clip-path="url(#img-c9632dec-43)">
    <g id="img-c9632dec-44">
      <g pointer-events="visible" fill="#000000" fill-opacity="0.000" stroke="#000000" stroke-opacity="0.000" class="guide background" id="img-c9632dec-45">
        <g transform="translate(169.2,22.21)" id="img-c9632dec-46">
          <path d="M-15.8,-17.21 L 15.8 -17.21 15.8 17.21 -15.8 17.21 z" class="primitive"/>
        </g>
      </g>
      <g class="guide ygridlines xfixed" stroke-dasharray="0.5,0.5" stroke-width="0.2" stroke="#D0D0E0" id="img-c9632dec-47">
        <g transform="translate(169.2,37.43)" id="img-c9632dec-48">
          <path fill="none" d="M-15.8,0 L 15.8 0" class="primitive"/>
        </g>
        <g transform="translate(169.2,32.36)" id="img-c9632dec-49">
          <path fill="none" d="M-15.8,0 L 15.8 0" class="primitive"/>
        </g>
        <g transform="translate(169.2,27.29)" id="img-c9632dec-50">
          <path fill="none" d="M-15.8,0 L 15.8 0" class="primitive"/>
        </g>
        <g transform="translate(169.2,22.21)" id="img-c9632dec-51">
          <path fill="none" d="M-15.8,0 L 15.8 0" class="primitive"/>
        </g>
        <g transform="translate(169.2,17.14)" id="img-c9632dec-52">
          <path fill="none" d="M-15.8,0 L 15.8 0" class="primitive"/>
        </g>
        <g transform="translate(169.2,12.07)" id="img-c9632dec-53">
          <path fill="none" d="M-15.8,0 L 15.8 0" class="primitive"/>
        </g>
        <g transform="translate(169.2,7)" id="img-c9632dec-54">
          <path fill="none" d="M-15.8,0 L 15.8 0" class="primitive"/>
        </g>
      </g>
      <g class="guide xgridlines yfixed" stroke-dasharray="0.5,0.5" stroke-width="0.2" stroke="#D0D0E0" id="img-c9632dec-55">
        <g transform="translate(155.39,22.21)" id="img-c9632dec-56">
          <path fill="none" d="M0,-17.21 L 0 17.21" class="primitive"/>
        </g>
        <g transform="translate(162.29,22.21)" id="img-c9632dec-57">
          <path fill="none" d="M0,-17.21 L 0 17.21" class="primitive"/>
        </g>
        <g transform="translate(169.2,22.21)" id="img-c9632dec-58">
          <path fill="none" d="M0,-17.21 L 0 17.21" class="primitive"/>
        </g>
        <g transform="translate(176.1,22.21)" id="img-c9632dec-59">
          <path fill="none" d="M0,-17.21 L 0 17.21" class="primitive"/>
        </g>
        <g transform="translate(183,22.21)" id="img-c9632dec-60">
          <path fill="none" d="M0,-17.21 L 0 17.21" class="primitive"/>
        </g>
      </g>
      <g class="plotpanel" id="img-c9632dec-61">
        <metadata>
          <boundingbox value="153.39166666666665mm 5.0mm 31.608333333333327mm 34.42945mm"/>
          <unitbox value="-144.88379112586782 63943.54810882221 2289.767582251736 -67887.09621764442"/>
        </metadata>
        <g stroke-width="0.3" fill="#000000" fill-opacity="0.000" class="geometry" id="img-c9632dec-62">
          <g class="color_LCHab{Float32}(70.0f0,60.0f0,240.0f0)" stroke-dasharray="none" stroke="#00BFFF" id="img-c9632dec-63">
            <g transform="translate(160.41,16.42)" id="img-c9632dec-64">
              <path fill="none" d="M-5.02,20.97 L -5.02 20.97 -5 20.97 -4.98 20.97 -4.95 20.95 -4.91 20.92 -4.86 20.88 -4.8 20.81 -4.73 20.72 -4.63 20.59 -4.52 20.38 -4.38 20.02 -4.22 19.36 -4.06 18.19 -3.89 16.4 -3.73 14.15 -3.61 12.24 -3.51 10.38 -3.41 8.77 -3.32 7.26 -3.24 5.84 -3.15 4.49 -3.06 3.25 -2.97 2.12 -2.88 1.1 -2.8 0.19 -2.71 -0.62 -2.62 -1.34 -2.53 -1.97 -2.44 -2.52 -2.34 -2.99 -2.25 -3.4 -2.16 -3.76 -2.07 -4.06 -1.97 -4.32 -1.88 -4.54 -1.79 -4.72 -1.69 -4.88 -1.6 -5.01 -1.51 -5.11 -1.42 -5.21 -1.32 -5.28 -1.23 -5.35 -1.14 -5.4 -1.05 -5.45 -0.96 -5.48 -0.86 -5.51 -0.77 -5.54 -0.68 -5.56 -0.59 -5.58 -0.5 -5.59 -0.4 -5.6 -0.31 -5.61 -0.22 -5.62 -0.13 -5.63 -0.04 -5.63 0.05 -5.64 0.15 -5.64 0.24 -5.64 0.33 -5.64 0.42 -5.64 0.51 -5.64 0.6 -5.64 0.7 -5.64 0.79 -5.64 0.88 -5.64 0.97 -5.64 1.06 -5.64 1.15 -5.64 1.25 -5.64 1.34 -5.64 1.43 -5.64 1.52 -5.63 1.61 -5.63 1.7 -5.63 1.8 -5.63 1.89 -5.63 1.98 -5.63 2.07 -5.63 2.16 -5.63 2.25 -5.62 2.35 -5.62 2.44 -5.62 2.53 -5.62 2.62 -5.62 2.71 -5.62 2.9 -5.61 3.09 -5.61 3.33 -5.61 3.66 -5.6 4.14 -5.6 4.91 -5.58 6.38 -5.57 8.5 -5.54 11.32 -5.51 14.96 -5.49 19.52 -5.46 22.59 -5.44" class="primitive"/>
            </g>
          </g>
        </g>
      </g>
    </g>
  </g>
  <g class="guide ylabels" font-size="2.82" font-family="'PT Sans Caption','Helvetica Neue','Helvetica',sans-serif" fill="#6C606B" id="img-c9632dec-65">
    <g transform="translate(152.39,37.43)" id="img-c9632dec-66">
      <g class="primitive">
        <text text-anchor="end" dy="0.35em">0</text>
      </g>
    </g>
    <g transform="translate(152.39,32.36)" id="img-c9632dec-67">
      <g class="primitive">
        <text text-anchor="end" dy="0.35em">1.0×10⁴</text>
      </g>
    </g>
    <g transform="translate(152.39,27.29)" id="img-c9632dec-68">
      <g class="primitive">
        <text text-anchor="end" dy="0.35em">2.0×10⁴</text>
      </g>
    </g>
    <g transform="translate(152.39,22.21)" id="img-c9632dec-69">
      <g class="primitive">
        <text text-anchor="end" dy="0.35em">3.0×10⁴</text>
      </g>
    </g>
    <g transform="translate(152.39,17.14)" id="img-c9632dec-70">
      <g class="primitive">
        <text text-anchor="end" dy="0.35em">4.0×10⁴</text>
      </g>
    </g>
    <g transform="translate(152.39,12.07)" id="img-c9632dec-71">
      <g class="primitive">
        <text text-anchor="end" dy="0.35em">5.0×10⁴</text>
      </g>
    </g>
    <g transform="translate(152.39,7)" id="img-c9632dec-72">
      <g class="primitive">
        <text text-anchor="end" dy="0.35em">6.0×10⁴</text>
      </g>
    </g>
  </g>
  <g font-size="3.88" font-family="'PT Sans','Helvetica Neue','Helvetica',sans-serif" fill="#564A55" stroke="#000000" stroke-opacity="0.000" id="img-c9632dec-73">
    <g transform="translate(135.47,20.21)" id="img-c9632dec-74">
      <g class="primitive">
        <text text-anchor="middle" dy="0.35em" transform="rotate(-90,0, 2)">I_f</text>
      </g>
    </g>
  </g>
</g>
<g class="plotroot xscalable yscalable" id="img-c9632dec-75">
  <g font-size="3.88" font-family="'PT Sans','Helvetica Neue','Helvetica',sans-serif" fill="#564A55" stroke="#000000" stroke-opacity="0.000" id="img-c9632dec-76">
    <g transform="translate(105.86,47.1)" id="img-c9632dec-77">
      <g class="primitive">
        <text text-anchor="middle" dy="0.6em">time (days)</text>
      </g>
    </g>
  </g>
  <g class="guide xlabels" font-size="2.82" font-family="'PT Sans Caption','Helvetica Neue','Helvetica',sans-serif" fill="#6C606B" id="img-c9632dec-78">
    <g transform="translate(92.06,40.43)" id="img-c9632dec-79">
      <g class="primitive">
        <text text-anchor="middle" dy="0.6em">0</text>
      </g>
    </g>
    <g transform="translate(98.96,40.43)" id="img-c9632dec-80">
      <g class="primitive">
        <text text-anchor="middle" dy="0.6em">500</text>
      </g>
    </g>
    <g transform="translate(105.86,40.43)" id="img-c9632dec-81">
      <g class="primitive">
        <text text-anchor="middle" dy="0.6em">1000</text>
      </g>
    </g>
    <g transform="translate(112.76,40.43)" id="img-c9632dec-82">
      <g class="primitive">
        <text text-anchor="middle" dy="0.6em">1500</text>
      </g>
    </g>
    <g transform="translate(119.67,40.43)" id="img-c9632dec-83">
      <g class="primitive">
        <text text-anchor="middle" dy="0.6em">2000</text>
      </g>
    </g>
  </g>
  <g clip-path="url(#img-c9632dec-84)">
    <g id="img-c9632dec-85">
      <g pointer-events="visible" fill="#000000" fill-opacity="0.000" stroke="#000000" stroke-opacity="0.000" class="guide background" id="img-c9632dec-86">
        <g transform="translate(105.86,22.21)" id="img-c9632dec-87">
          <path d="M-15.8,-17.21 L 15.8 -17.21 15.8 17.21 -15.8 17.21 z" class="primitive"/>
        </g>
      </g>
      <g class="guide ygridlines xfixed" stroke-dasharray="0.5,0.5" stroke-width="0.2" stroke="#D0D0E0" id="img-c9632dec-88">
        <g transform="translate(105.86,37.43)" id="img-c9632dec-89">
          <path fill="none" d="M-15.8,0 L 15.8 0" class="primitive"/>
        </g>
        <g transform="translate(105.86,29.82)" id="img-c9632dec-90">
          <path fill="none" d="M-15.8,0 L 15.8 0" class="primitive"/>
        </g>
        <g transform="translate(105.86,22.21)" id="img-c9632dec-91">
          <path fill="none" d="M-15.8,0 L 15.8 0" class="primitive"/>
        </g>
        <g transform="translate(105.86,14.61)" id="img-c9632dec-92">
          <path fill="none" d="M-15.8,0 L 15.8 0" class="primitive"/>
        </g>
        <g transform="translate(105.86,7)" id="img-c9632dec-93">
          <path fill="none" d="M-15.8,0 L 15.8 0" class="primitive"/>
        </g>
      </g>
      <g class="guide xgridlines yfixed" stroke-dasharray="0.5,0.5" stroke-width="0.2" stroke="#D0D0E0" id="img-c9632dec-94">
        <g transform="translate(92.06,22.21)" id="img-c9632dec-95">
          <path fill="none" d="M0,-17.21 L 0 17.21" class="primitive"/>
        </g>
        <g transform="translate(98.96,22.21)" id="img-c9632dec-96">
          <path fill="none" d="M0,-17.21 L 0 17.21" class="primitive"/>
        </g>
        <g transform="translate(105.86,22.21)" id="img-c9632dec-97">
          <path fill="none" d="M0,-17.21 L 0 17.21" class="primitive"/>
        </g>
        <g transform="translate(112.76,22.21)" id="img-c9632dec-98">
          <path fill="none" d="M0,-17.21 L 0 17.21" class="primitive"/>
        </g>
        <g transform="translate(119.67,22.21)" id="img-c9632dec-99">
          <path fill="none" d="M0,-17.21 L 0 17.21" class="primitive"/>
        </g>
      </g>
      <g class="plotpanel" id="img-c9632dec-100">
        <metadata>
          <boundingbox value="90.05833333333334mm 5.0mm 31.608333333333327mm 34.42945mm"/>
          <unitbox value="-144.88379112586782 21314.51603627407 2289.767582251736 -22629.03207254814"/>
        </metadata>
        <g stroke-width="0.3" fill="#000000" fill-opacity="0.000" class="geometry" id="img-c9632dec-101">
          <g class="color_LCHab{Float32}(70.0f0,60.0f0,240.0f0)" stroke-dasharray="none" stroke="#00BFFF" id="img-c9632dec-102">
            <g transform="translate(97.08,16.29)" id="img-c9632dec-103">
              <path fill="none" d="M-5.02,21.08 L -5.02 21.07 -5 20.99 -4.98 20.86 -4.95 20.72 -4.91 20.58 -4.86 20.43 -4.8 20.29 -4.73 20.12 -4.63 19.86 -4.52 19.35 -4.38 18.34 -4.22 16.46 -4.06 13.46 -3.89 9.56 -3.73 5.66 -3.61 3.06 -3.51 1.05 -3.41 -0.34 -3.32 -1.39 -3.24 -2.18 -3.15 -2.79 -3.06 -3.23 -2.97 -3.54 -2.88 -3.75 -2.8 -3.9 -2.71 -3.99 -2.62 -4.04 -2.53 -4.06 -2.44 -4.06 -2.34 -4.06 -2.25 -4.04 -2.16 -4.02 -2.07 -3.99 -1.97 -3.97 -1.88 -3.95 -1.79 -3.93 -1.69 -3.9 -1.6 -3.89 -1.51 -3.87 -1.42 -3.85 -1.32 -3.84 -1.23 -3.83 -1.14 -3.82 -1.05 -3.81 -0.96 -3.8 -0.86 -3.79 -0.77 -3.78 -0.68 -3.78 -0.59 -3.77 -0.5 -3.77 -0.4 -3.76 -0.31 -3.76 -0.22 -3.76 -0.13 -3.75 -0.04 -3.75 0.05 -3.75 0.15 -3.75 0.24 -3.74 0.33 -3.74 0.42 -3.74 0.51 -3.74 0.6 -3.74 0.7 -3.73 0.79 -3.73 0.88 -3.73 0.97 -3.73 1.06 -3.73 1.15 -3.73 1.25 -3.72 1.34 -3.72 1.43 -3.72 1.52 -3.72 1.61 -3.72 1.7 -3.72 1.8 -3.72 1.89 -3.71 1.98 -3.71 2.07 -3.71 2.16 -3.71 2.25 -3.71 2.35 -3.71 2.44 -3.71 2.53 -3.7 2.62 -3.7 2.71 -3.7 2.9 -3.7 3.09 -3.7 3.33 -3.69 3.66 -3.69 4.14 -3.68 4.91 -3.67 6.38 -3.66 8.5 -3.63 11.32 -3.61 14.96 -3.58 19.52 -3.56 22.59 -3.55" class="primitive"/>
            </g>
          </g>
        </g>
      </g>
    </g>
  </g>
  <g class="guide ylabels" font-size="2.82" font-family="'PT Sans Caption','Helvetica Neue','Helvetica',sans-serif" fill="#6C606B" id="img-c9632dec-104">
    <g transform="translate(89.06,37.43)" id="img-c9632dec-105">
      <g class="primitive">
        <text text-anchor="end" dy="0.35em">0</text>
      </g>
    </g>
    <g transform="translate(89.06,29.82)" id="img-c9632dec-106">
      <g class="primitive">
        <text text-anchor="end" dy="0.35em">5.0×10³</text>
      </g>
    </g>
    <g transform="translate(89.06,22.21)" id="img-c9632dec-107">
      <g class="primitive">
        <text text-anchor="end" dy="0.35em">1.0×10⁴</text>
      </g>
    </g>
    <g transform="translate(89.06,14.61)" id="img-c9632dec-108">
      <g class="primitive">
        <text text-anchor="end" dy="0.35em">1.5×10⁴</text>
      </g>
    </g>
    <g transform="translate(89.06,7)" id="img-c9632dec-109">
      <g class="primitive">
        <text text-anchor="end" dy="0.35em">2.0×10⁴</text>
      </g>
    </g>
  </g>
  <g font-size="3.88" font-family="'PT Sans','Helvetica Neue','Helvetica',sans-serif" fill="#564A55" stroke="#000000" stroke-opacity="0.000" id="img-c9632dec-110">
    <g transform="translate(72.14,20.21)" id="img-c9632dec-111">
      <g class="primitive">
        <text text-anchor="middle" dy="0.35em" transform="rotate(-90,0, 2)">L_f</text>
      </g>
    </g>
  </g>
</g>
<g class="plotroot xscalable yscalable" id="img-c9632dec-112">
  <g font-size="3.88" font-family="'PT Sans','Helvetica Neue','Helvetica',sans-serif" fill="#564A55" stroke="#000000" stroke-opacity="0.000" id="img-c9632dec-113">
    <g transform="translate(43.37,47.1)" id="img-c9632dec-114">
      <g class="primitive">
        <text text-anchor="middle" dy="0.6em">time (days)</text>
      </g>
    </g>
  </g>
  <g class="guide xlabels" font-size="2.82" font-family="'PT Sans Caption','Helvetica Neue','Helvetica',sans-serif" fill="#6C606B" id="img-c9632dec-115">
    <g transform="translate(30.4,40.43)" id="img-c9632dec-116">
      <g class="primitive">
        <text text-anchor="middle" dy="0.6em">0</text>
      </g>
    </g>
    <g transform="translate(36.88,40.43)" id="img-c9632dec-117">
      <g class="primitive">
        <text text-anchor="middle" dy="0.6em">500</text>
      </g>
    </g>
    <g transform="translate(43.37,40.43)" id="img-c9632dec-118">
      <g class="primitive">
        <text text-anchor="middle" dy="0.6em">1000</text>
      </g>
    </g>
    <g transform="translate(49.85,40.43)" id="img-c9632dec-119">
      <g class="primitive">
        <text text-anchor="middle" dy="0.6em">1500</text>
      </g>
    </g>
    <g transform="translate(56.33,40.43)" id="img-c9632dec-120">
      <g class="primitive">
        <text text-anchor="middle" dy="0.6em">2000</text>
      </g>
    </g>
  </g>
  <g clip-path="url(#img-c9632dec-121)">
    <g id="img-c9632dec-122">
      <g pointer-events="visible" fill="#000000" fill-opacity="0.000" stroke="#000000" stroke-opacity="0.000" class="guide background" id="img-c9632dec-123">
        <g transform="translate(43.37,22.21)" id="img-c9632dec-124">
          <path d="M-14.97,-17.21 L 14.97 -17.21 14.97 17.21 -14.97 17.21 z" class="primitive"/>
        </g>
      </g>
      <g class="guide ygridlines xfixed" stroke-dasharray="0.5,0.5" stroke-width="0.2" stroke="#D0D0E0" id="img-c9632dec-125">
        <g transform="translate(43.37,37.43)" id="img-c9632dec-126">
          <path fill="none" d="M-14.97,0 L 14.97 0" class="primitive"/>
        </g>
        <g transform="translate(43.37,27.29)" id="img-c9632dec-127">
          <path fill="none" d="M-14.97,0 L 14.97 0" class="primitive"/>
        </g>
        <g transform="translate(43.37,17.14)" id="img-c9632dec-128">
          <path fill="none" d="M-14.97,0 L 14.97 0" class="primitive"/>
        </g>
        <g transform="translate(43.37,7)" id="img-c9632dec-129">
          <path fill="none" d="M-14.97,0 L 14.97 0" class="primitive"/>
        </g>
      </g>
      <g class="guide xgridlines yfixed" stroke-dasharray="0.5,0.5" stroke-width="0.2" stroke="#D0D0E0" id="img-c9632dec-130">
        <g transform="translate(30.4,22.21)" id="img-c9632dec-131">
          <path fill="none" d="M0,-17.21 L 0 17.21" class="primitive"/>
        </g>
        <g transform="translate(36.88,22.21)" id="img-c9632dec-132">
          <path fill="none" d="M0,-17.21 L 0 17.21" class="primitive"/>
        </g>
        <g transform="translate(43.37,22.21)" id="img-c9632dec-133">
          <path fill="none" d="M0,-17.21 L 0 17.21" class="primitive"/>
        </g>
        <g transform="translate(49.85,22.21)" id="img-c9632dec-134">
          <path fill="none" d="M0,-17.21 L 0 17.21" class="primitive"/>
        </g>
        <g transform="translate(56.33,22.21)" id="img-c9632dec-135">
          <path fill="none" d="M0,-17.21 L 0 17.21" class="primitive"/>
        </g>
      </g>
      <g class="plotpanel" id="img-c9632dec-136">
        <metadata>
          <boundingbox value="28.398333333333333mm 5.0mm 29.934999999999995mm 34.42945mm"/>
          <unitbox value="-154.23173317910164 229929.43513602775 2308.4634663582033 -84858.87027205552"/>
        </metadata>
        <g stroke-width="0.3" fill="#000000" fill-opacity="0.000" class="geometry" id="img-c9632dec-137">
          <g class="color_LCHab{Float32}(70.0f0,60.0f0,240.0f0)" stroke-dasharray="none" stroke="#00BFFF" id="img-c9632dec-138">
            <g transform="translate(35.11,29.44)" id="img-c9632dec-139">
              <path fill="none" d="M-4.71,-22.4 L -4.71 -22.4 -4.7 -22.38 -4.68 -22.34 -4.65 -22.29 -4.61 -22.22 -4.57 -22.15 -4.51 -22.06 -4.44 -21.94 -4.35 -21.76 -4.24 -21.46 -4.11 -20.91 -3.97 -19.88 -3.81 -18.14 -3.65 -15.67 -3.5 -12.83 -3.39 -10.61 -3.29 -8.59 -3.21 -6.93 -3.12 -5.44 -3.04 -4.09 -2.96 -2.85 -2.88 -1.74 -2.79 -0.75 -2.71 0.12 -2.63 0.89 -2.54 1.56 -2.46 2.15 -2.37 2.66 -2.29 3.1 -2.2 3.48 -2.11 3.8 -2.03 4.08 -1.94 4.31 -1.85 4.51 -1.77 4.68 -1.68 4.82 -1.59 4.94 -1.5 5.04 -1.42 5.12 -1.33 5.19 -1.24 5.25 -1.16 5.3 -1.07 5.34 -0.98 5.37 -0.9 5.4 -0.81 5.42 -0.72 5.44 -0.64 5.46 -0.55 5.47 -0.47 5.48 -0.38 5.49 -0.29 5.49 -0.21 5.5 -0.12 5.5 -0.04 5.51 0.05 5.51 0.14 5.51 0.22 5.51 0.31 5.51 0.39 5.51 0.48 5.51 0.57 5.51 0.65 5.51 0.74 5.51 0.83 5.51 0.91 5.51 1 5.51 1.08 5.51 1.17 5.5 1.26 5.5 1.34 5.5 1.43 5.5 1.51 5.5 1.6 5.5 1.69 5.5 1.77 5.49 1.86 5.49 1.95 5.49 2.03 5.49 2.12 5.49 2.2 5.49 2.29 5.48 2.38 5.48 2.46 5.48 2.55 5.48 2.72 5.48 2.9 5.47 3.13 5.47 3.44 5.47 3.89 5.46 4.61 5.45 6 5.43 7.99 5.4 10.64 5.37 14.05 5.34 18.34 5.32 21.22 5.3" class="primitive"/>
            </g>
          </g>
        </g>
      </g>
    </g>
  </g>
  <g class="guide ylabels" font-size="2.82" font-family="'PT Sans Caption','Helvetica Neue','Helvetica',sans-serif" fill="#6C606B" id="img-c9632dec-140">
    <g transform="translate(27.4,37.43)" id="img-c9632dec-141">
      <g class="primitive">
        <text text-anchor="end" dy="0.35em">1.50×10⁵</text>
      </g>
    </g>
    <g transform="translate(27.4,27.29)" id="img-c9632dec-142">
      <g class="primitive">
        <text text-anchor="end" dy="0.35em">1.75×10⁵</text>
      </g>
    </g>
    <g transform="translate(27.4,17.14)" id="img-c9632dec-143">
      <g class="primitive">
        <text text-anchor="end" dy="0.35em">2.00×10⁵</text>
      </g>
    </g>
    <g transform="translate(27.4,7)" id="img-c9632dec-144">
      <g class="primitive">
        <text text-anchor="end" dy="0.35em">2.25×10⁵</text>
      </g>
    </g>
  </g>
  <g font-size="3.88" font-family="'PT Sans','Helvetica Neue','Helvetica',sans-serif" fill="#564A55" stroke="#000000" stroke-opacity="0.000" id="img-c9632dec-145">
    <g transform="translate(8.81,20.21)" id="img-c9632dec-146">
      <g class="primitive">
        <text text-anchor="middle" dy="0.35em" transform="rotate(-90,0, 2)">S_fs</text>
      </g>
    </g>
  </g>
</g>
<defs>
  <clipPath id="img-c9632dec-4">
    <path d="M28.4,63.71 L 185 63.71 185 98.14 28.4 98.14" />
  </clipPath>
  <clipPath id="img-c9632dec-43">
    <path d="M153.39,5 L 185 5 185 39.43 153.39 39.43" />
  </clipPath>
  <clipPath id="img-c9632dec-84">
    <path d="M90.06,5 L 121.67 5 121.67 39.43 90.06 39.43" />
  </clipPath>
  <clipPath id="img-c9632dec-121">
    <path d="M28.4,5 L 58.33 5 58.33 39.43 28.4 39.43" />
  </clipPath>
</defs>
</svg>
