<?xml version="1.0" encoding="UTF-8"?>
<svg xmlns="http://www.w3.org/2000/svg"
     xmlns:xlink="http://www.w3.org/1999/xlink"
     xmlns:gadfly="http://www.gadflyjl.org/ns"
     version="1.2"
     width="190mm" height="117.43mm" viewBox="0 0 190 117.43"
     stroke="none"
     fill="#000000"
     stroke-width="0.3"
     font-size="3.88"
>
<defs>
  <marker id="arrow" markerWidth="15" markerHeight="7" refX="5" refY="3.5" orient="auto" markerUnits="strokeWidth">
    <path d="M0,0 L15,3.5 L0,7 z" stroke="context-stroke" fill="context-stroke"/>
  </marker>
</defs>
<g class="plotroot xscalable yscalable" id="img-771244c8-1">
  <g font-size="3.88" font-family="'PT Sans','Helvetica Neue','Helvetica',sans-serif" fill="#564A55" stroke="#000000" stroke-opacity="0.000" id="img-771244c8-2">
    <g transform="translate(105.86,105.82)">
      <g class="primitive">
        <text text-anchor="middle" dy="0.6em">time (days)</text>
      </g>
    </g>
  </g>
  <g class="guide xlabels" font-size="2.82" font-family="'PT Sans Caption','Helvetica Neue','Helvetica',sans-serif" fill="#6C606B" id="img-771244c8-3">
    <g transform="translate(28.73,99.14)">
      <g class="primitive">
        <text text-anchor="middle" dy="0.6em">0</text>
      </g>
    </g>
    <g transform="translate(67.29,99.14)">
      <g class="primitive">
        <text text-anchor="middle" dy="0.6em">500</text>
      </g>
    </g>
    <g transform="translate(105.86,99.14)">
      <g class="primitive">
        <text text-anchor="middle" dy="0.6em">1000</text>
      </g>
    </g>
    <g transform="translate(144.43,99.14)">
      <g class="primitive">
        <text text-anchor="middle" dy="0.6em">1500</text>
      </g>
    </g>
    <g transform="translate(183,99.14)">
      <g class="primitive">
        <text text-anchor="middle" dy="0.6em">2000</text>
      </g>
    </g>
  </g>
  <g clip-path="url(#img-771244c8-4)">
    <g id="img-771244c8-5">
      <g pointer-events="visible" fill="#000000" fill-opacity="0.000" stroke="#000000" stroke-opacity="0.000" class="guide background" id="img-771244c8-6">
        <g transform="translate(105.86,80.93)" id="img-771244c8-7">
          <path d="M-79.14,-17.21 L 79.14 -17.21 79.14 17.21 -79.14 17.21 z" class="primitive"/>
        </g>
      </g>
      <g class="guide ygridlines xfixed" stroke-dasharray="0.5,0.5" stroke-width="0.2" stroke="#D0D0E0" id="img-771244c8-8">
        <g transform="translate(105.86,96.14)" id="img-771244c8-9">
          <path fill="none" d="M-79.14,0 L 79.14 0" class="primitive"/>
        </g>
        <g transform="translate(105.86,91.07)" id="img-771244c8-10">
          <path fill="none" d="M-79.14,0 L 79.14 0" class="primitive"/>
        </g>
        <g transform="translate(105.86,86)" id="img-771244c8-11">
          <path fill="none" d="M-79.14,0 L 79.14 0" class="primitive"/>
        </g>
        <g transform="translate(105.86,80.93)" id="img-771244c8-12">
          <path fill="none" d="M-79.14,0 L 79.14 0" class="primitive"/>
        </g>
        <g transform="translate(105.86,75.86)" id="img-771244c8-13">
          <path fill="none" d="M-79.14,0 L 79.14 0" class="primitive"/>
        </g>
        <g transform="translate(105.86,70.79)" id="img-771244c8-14">
          <path fill="none" d="M-79.14,0 L 79.14 0" class="primitive"/>
        </g>
        <g transform="translate(105.86,65.71)" id="img-771244c8-15">
          <path fill="none" d="M-79.14,0 L 79.14 0" class="primitive"/>
        </g>
      </g>
      <g class="guide xgridlines yfixed" stroke-dasharray="0.5,0.5" stroke-width="0.2" stroke="#D0D0E0" id="img-771244c8-16">
        <g transform="translate(28.73,80.93)" id="img-771244c8-17">
          <path fill="none" d="M0,-17.21 L 0 17.21" class="primitive"/>
        </g>
        <g transform="translate(67.29,80.93)" id="img-771244c8-18">
          <path fill="none" d="M0,-17.21 L 0 17.21" class="primitive"/>
        </g>
        <g transform="translate(105.86,80.93)" id="img-771244c8-19">
          <path fill="none" d="M0,-17.21 L 0 17.21" class="primitive"/>
        </g>
        <g transform="translate(144.43,80.93)" id="img-771244c8-20">
          <path fill="none" d="M0,-17.21 L 0 17.21" class="primitive"/>
        </g>
        <g transform="translate(183,80.93)" id="img-771244c8-21">
          <path fill="none" d="M0,-17.21 L 0 17.21" class="primitive"/>
        </g>
      </g>
      <g class="plotpanel" id="img-771244c8-22">
        <metadata>
          <boundingbox value="26.725000000000023mm 63.71445mm 158.275mm 34.42945mm"/>
          <unitbox value="-25.92772646248582 23394.35481088222 2051.8554529249714 -6788.709621764441"/>
        </metadata>
        <g stroke-width="0.3" fill="#000000" fill-opacity="0.000" class="geometry" id="img-771244c8-23">
          <g class="color_LCHab{Float32}(70.0f0,60.0f0,240.0f0)" stroke-dasharray="none" stroke="#00BFFF" id="img-771244c8-24">
            <g transform="translate(68.74,89.56)" id="img-771244c8-25">
              <path fill="none" d="M-40.02,-21.3 L -40.02 -21.29 -40 -21.17 -39.92 -20.4 -39.73 -18.79 -39.47 -16.63 -39.13 -14.18 -38.7 -11.51 -38.19 -8.85 -37.61 -6.33 -36.95 -4.08 -36.22 -2.15 -35.43 -0.58 -34.58 0.67 -33.68 1.62 -32.74 2.34 -31.76 2.86 -30.75 3.23 -29.69 3.5 -28.6 3.68 -27.45 3.81 -26.24 3.9 -24.95 3.96 -23.55 4 -22 4.02 -20.28 4.04 -18.36 4.04 -16.27 4.05 -14.05 4.05 -11.74 4.05 -9.31 4.05 -6.77 4.05 -4.08 4.05 -1.21 4.05 1.91 4.05 5.36 4.05 9.22 4.05 13.58 4.05 16.89 4.05 19.74 4.05 22.4 4.05 25.06 4.05 27.81 4.05 30.66 4.05 33.58 4.05 36.52 4.05 39.46 4.05 42.37 4.05 45.26 4.05 48.13 4.05 51.01 4.05 56.77 4.05 62.77 4.05 70.36 4.05 80.63 4.05 95.7 4.05 114.26 4.05" class="primitive"/>
            </g>
          </g>
        </g>
      </g>
    </g>
  </g>
  <g class="guide ylabels" font-size="2.82" font-family="'PT Sans Caption','Helvetica Neue','Helvetica',sans-serif" fill="#6C606B" id="img-771244c8-26">
    <g transform="translate(25.72,96.14)" id="img-771244c8-27">
      <g class="primitive">
        <text text-anchor="end" dy="0.35em">1.7×10⁴</text>
      </g>
    </g>
    <g transform="translate(25.72,91.07)" id="img-771244c8-28">
      <g class="primitive">
        <text text-anchor="end" dy="0.35em">1.8×10⁴</text>
      </g>
    </g>
    <g transform="translate(25.72,86)" id="img-771244c8-29">
      <g class="primitive">
        <text text-anchor="end" dy="0.35em">1.9×10⁴</text>
      </g>
    </g>
    <g transform="translate(25.72,80.93)" id="img-771244c8-30">
      <g class="primitive">
        <text text-anchor="end" dy="0.35em">2.0×10⁴</text>
      </g>
    </g>
    <g transform="translate(25.72,75.86)" id="img-771244c8-31">
      <g class="primitive">
        <text text-anchor="end" dy="0.35em">2.1×10⁴</text>
      </g>
    </g>
    <g transform="translate(25.72,70.79)" id="img-771244c8-32">
      <g class="primitive">
        <text text-anchor="end" dy="0.35em">2.2×10⁴</text>
      </g>
    </g>
    <g transform="translate(25.72,65.71)" id="img-771244c8-33">
      <g class="primitive">
        <text text-anchor="end" dy="0.35em">2.3×10⁴</text>
      </g>
    </g>
  </g>
  <g font-size="3.88" font-family="'PT Sans','Helvetica Neue','Helvetica',sans-serif" fill="#564A55" stroke="#000000" stroke-opacity="0.000" id="img-771244c8-34">
    <g transform="translate(8.81,78.93)" id="img-771244c8-35">
      <g class="primitive">
        <text text-anchor="middle" dy="0.35em" transform="rotate(-90,0, 2)">Flyes CL</text>
      </g>
    </g>
  </g>
</g>
<g class="plotroot xscalable yscalable" id="img-771244c8-36">
  <g font-size="3.88" font-family="'PT Sans','Helvetica Neue','Helvetica',sans-serif" fill="#564A55" stroke="#000000" stroke-opacity="0.000" id="img-771244c8-37">
    <g transform="translate(165.37,47.1)" id="img-771244c8-38">
      <g class="primitive">
        <text text-anchor="middle" dy="0.6em">time (days)</text>
      </g>
    </g>
  </g>
  <g class="guide xlabels" font-size="2.82" font-family="'PT Sans Caption','Helvetica Neue','Helvetica',sans-serif" fill="#6C606B" id="img-771244c8-39">
    <g transform="translate(147.74,40.43)" id="img-771244c8-40">
      <g class="primitive">
        <text text-anchor="middle" dy="0.6em">0</text>
      </g>
    </g>
    <g transform="translate(156.55,40.43)" id="img-771244c8-41">
      <g class="primitive">
        <text text-anchor="middle" dy="0.6em">500</text>
      </g>
    </g>
    <g transform="translate(165.37,40.43)" id="img-771244c8-42">
      <g class="primitive">
        <text text-anchor="middle" dy="0.6em">1000</text>
      </g>
    </g>
    <g transform="translate(174.18,40.43)" id="img-771244c8-43">
      <g class="primitive">
        <text text-anchor="middle" dy="0.6em">1500</text>
      </g>
    </g>
    <g transform="translate(183,40.43)" id="img-771244c8-44">
      <g class="primitive">
        <text text-anchor="middle" dy="0.6em">2000</text>
      </g>
    </g>
  </g>
  <g clip-path="url(#img-771244c8-45)">
    <g id="img-771244c8-46">
      <g pointer-events="visible" fill="#000000" fill-opacity="0.000" stroke="#000000" stroke-opacity="0.000" class="guide background" id="img-771244c8-47">
        <g transform="translate(165.37,22.21)" id="img-771244c8-48">
          <path d="M-19.63,-17.21 L 19.63 -17.21 19.63 17.21 -19.63 17.21 z" class="primitive"/>
        </g>
      </g>
      <g class="guide ygridlines xfixed" stroke-dasharray="0.5,0.5" stroke-width="0.2" stroke="#D0D0E0" id="img-771244c8-49">
        <g transform="translate(165.37,37.43)" id="img-771244c8-50">
          <path fill="none" d="M-19.63,0 L 19.63 0" class="primitive"/>
        </g>
        <g transform="translate(165.37,29.82)" id="img-771244c8-51">
          <path fill="none" d="M-19.63,0 L 19.63 0" class="primitive"/>
        </g>
        <g transform="translate(165.37,22.21)" id="img-771244c8-52">
          <path fill="none" d="M-19.63,0 L 19.63 0" class="primitive"/>
        </g>
        <g transform="translate(165.37,14.61)" id="img-771244c8-53">
          <path fill="none" d="M-19.63,0 L 19.63 0" class="primitive"/>
        </g>
        <g transform="translate(165.37,7)" id="img-771244c8-54">
          <path fill="none" d="M-19.63,0 L 19.63 0" class="primitive"/>
        </g>
      </g>
      <g class="guide xgridlines yfixed" stroke-dasharray="0.5,0.5" stroke-width="0.2" stroke="#D0D0E0" id="img-771244c8-55">
        <g transform="translate(147.74,22.21)" id="img-771244c8-56">
          <path fill="none" d="M0,-17.21 L 0 17.21" class="primitive"/>
        </g>
        <g transform="translate(156.55,22.21)" id="img-771244c8-57">
          <path fill="none" d="M0,-17.21 L 0 17.21" class="primitive"/>
        </g>
        <g transform="translate(165.37,22.21)" id="img-771244c8-58">
          <path fill="none" d="M0,-17.21 L 0 17.21" class="primitive"/>
        </g>
        <g transform="translate(174.18,22.21)" id="img-771244c8-59">
          <path fill="none" d="M0,-17.21 L 0 17.21" class="primitive"/>
        </g>
        <g transform="translate(183,22.21)" id="img-771244c8-60">
          <path fill="none" d="M0,-17.21 L 0 17.21" class="primitive"/>
        </g>
      </g>
      <g class="plotpanel" id="img-771244c8-61">
        <metadata>
          <boundingbox value="145.73833333333332mm 5.0mm 39.26166666666666mm 34.42945mm"/>
          <unitbox value="-113.43763293472611 65.25806414509628 2226.8752658694525 -90.51612829019255"/>
        </metadata>
        <g stroke-width="0.3" fill="#000000" fill-opacity="0.000" class="geometry" id="img-771244c8-62">
          <g class="color_LCHab{Float32}(70.0f0,60.0f0,240.0f0)" stroke-dasharray="none" stroke="#00BFFF" id="img-771244c8-63">
            <g transform="translate(156.88,26.13)" id="img-771244c8-64">
              <path fill="none" d="M-9.15,-19.13 L -9.15 -19.12 -9.14 -19.01 -9.12 -18.34 -9.08 -16.92 -9.02 -15.02 -8.94 -12.85 -8.85 -10.48 -8.73 -8.11 -8.6 -5.86 -8.44 -3.84 -8.28 -2.1 -8.1 -0.67 -7.9 0.48 -7.7 1.36 -7.48 2.02 -7.26 2.52 -7.03 2.87 -6.79 3.13 -6.54 3.31 -6.27 3.43 -6 3.52 -5.7 3.58 -5.38 3.62 -5.03 3.65 -4.64 3.67 -4.2 3.68 -3.72 3.68 -3.21 3.69 -2.68 3.69 -2.13 3.69 -1.55 3.69 -0.93 3.69 -0.28 3.69 0.44 3.69 1.22 3.69 2.11 3.69 3.1 3.69 3.86 3.69 4.51 3.69 5.12 3.69 5.73 3.69 6.36 3.69 7.01 3.69 7.67 3.69 8.35 3.69 9.02 3.69 9.68 3.69 10.34 3.69 11 3.69 11.66 3.69 12.98 3.69 14.35 3.69 16.08 3.69 18.43 3.69 21.87 3.69 26.12 3.69" class="primitive"/>
            </g>
          </g>
        </g>
      </g>
    </g>
  </g>
  <g class="guide ylabels" font-size="2.82" font-family="'PT Sans Caption','Helvetica Neue','Helvetica',sans-serif" fill="#6C606B" id="img-771244c8-65">
    <g transform="translate(144.74,37.43)" id="img-771244c8-66">
      <g class="primitive">
        <text text-anchor="end" dy="0.35em">-20</text>
      </g>
    </g>
    <g transform="translate(144.74,29.82)" id="img-771244c8-67">
      <g class="primitive">
        <text text-anchor="end" dy="0.35em">0</text>
      </g>
    </g>
    <g transform="translate(144.74,22.21)" id="img-771244c8-68">
      <g class="primitive">
        <text text-anchor="end" dy="0.35em">20</text>
      </g>
    </g>
    <g transform="translate(144.74,14.61)" id="img-771244c8-69">
      <g class="primitive">
        <text text-anchor="end" dy="0.35em">40</text>
      </g>
    </g>
    <g transform="translate(144.74,7)" id="img-771244c8-70">
      <g class="primitive">
        <text text-anchor="end" dy="0.35em">60</text>
      </g>
    </g>
  </g>
  <g font-size="3.88" font-family="'PT Sans','Helvetica Neue','Helvetica',sans-serif" fill="#564A55" stroke="#000000" stroke-opacity="0.000" id="img-771244c8-71">
    <g transform="translate(135.47,20.21)" id="img-771244c8-72">
      <g class="primitive">
        <text text-anchor="middle" dy="0.35em" transform="rotate(-90,0, 2)">I_f</text>
      </g>
    </g>
  </g>
</g>
<g class="plotroot xscalable yscalable" id="img-771244c8-73">
  <g font-size="3.88" font-family="'PT Sans','Helvetica Neue','Helvetica',sans-serif" fill="#564A55" stroke="#000000" stroke-opacity="0.000" id="img-771244c8-74">
    <g transform="translate(102.04,47.1)" id="img-771244c8-75">
      <g class="primitive">
        <text text-anchor="middle" dy="0.6em">time (days)</text>
      </g>
    </g>
  </g>
  <g class="guide xlabels" font-size="2.82" font-family="'PT Sans Caption','Helvetica Neue','Helvetica',sans-serif" fill="#6C606B" id="img-771244c8-76">
    <g transform="translate(84.4,40.43)" id="img-771244c8-77">
      <g class="primitive">
        <text text-anchor="middle" dy="0.6em">0</text>
      </g>
    </g>
    <g transform="translate(93.22,40.43)" id="img-771244c8-78">
      <g class="primitive">
        <text text-anchor="middle" dy="0.6em">500</text>
      </g>
    </g>
    <g transform="translate(102.04,40.43)" id="img-771244c8-79">
      <g class="primitive">
        <text text-anchor="middle" dy="0.6em">1000</text>
      </g>
    </g>
    <g transform="translate(110.85,40.43)" id="img-771244c8-80">
      <g class="primitive">
        <text text-anchor="middle" dy="0.6em">1500</text>
      </g>
    </g>
    <g transform="translate(119.67,40.43)" id="img-771244c8-81">
      <g class="primitive">
        <text text-anchor="middle" dy="0.6em">2000</text>
      </g>
    </g>
  </g>
  <g clip-path="url(#img-771244c8-82)">
    <g id="img-771244c8-83">
      <g pointer-events="visible" fill="#000000" fill-opacity="0.000" stroke="#000000" stroke-opacity="0.000" class="guide background" id="img-771244c8-84">
        <g transform="translate(102.04,22.21)" id="img-771244c8-85">
          <path d="M-19.63,-17.21 L 19.63 -17.21 19.63 17.21 -19.63 17.21 z" class="primitive"/>
        </g>
      </g>
      <g class="guide ygridlines xfixed" stroke-dasharray="0.5,0.5" stroke-width="0.2" stroke="#D0D0E0" id="img-771244c8-86">
        <g transform="translate(102.04,37.43)" id="img-771244c8-87">
          <path fill="none" d="M-19.63,0 L 19.63 0" class="primitive"/>
        </g>
        <g transform="translate(102.04,31.34)" id="img-771244c8-88">
          <path fill="none" d="M-19.63,0 L 19.63 0" class="primitive"/>
        </g>
        <g transform="translate(102.04,25.26)" id="img-771244c8-89">
          <path fill="none" d="M-19.63,0 L 19.63 0" class="primitive"/>
        </g>
        <g transform="translate(102.04,19.17)" id="img-771244c8-90">
          <path fill="none" d="M-19.63,0 L 19.63 0" class="primitive"/>
        </g>
        <g transform="translate(102.04,13.09)" id="img-771244c8-91">
          <path fill="none" d="M-19.63,0 L 19.63 0" class="primitive"/>
        </g>
        <g transform="translate(102.04,7)" id="img-771244c8-92">
          <path fill="none" d="M-19.63,0 L 19.63 0" class="primitive"/>
        </g>
      </g>
      <g class="guide xgridlines yfixed" stroke-dasharray="0.5,0.5" stroke-width="0.2" stroke="#D0D0E0" id="img-771244c8-93">
        <g transform="translate(84.4,22.21)" id="img-771244c8-94">
          <path fill="none" d="M0,-17.21 L 0 17.21" class="primitive"/>
        </g>
        <g transform="translate(93.22,22.21)" id="img-771244c8-95">
          <path fill="none" d="M0,-17.21 L 0 17.21" class="primitive"/>
        </g>
        <g transform="translate(102.04,22.21)" id="img-771244c8-96">
          <path fill="none" d="M0,-17.21 L 0 17.21" class="primitive"/>
        </g>
        <g transform="translate(110.85,22.21)" id="img-771244c8-97">
          <path fill="none" d="M0,-17.21 L 0 17.21" class="primitive"/>
        </g>
        <g transform="translate(119.67,22.21)" id="img-771244c8-98">
          <path fill="none" d="M0,-17.21 L 0 17.21" class="primitive"/>
        </g>
      </g>
      <g class="plotpanel" id="img-771244c8-99">
        <metadata>
          <boundingbox value="82.405mm 5.0mm 39.26166666666666mm 34.42945mm"/>
          <unitbox value="-113.43763293472611 43.28629009068518 2226.8752658694525 -56.57258018137035"/>
        </metadata>
        <g stroke-width="0.3" fill="#000000" fill-opacity="0.000" class="geometry" id="img-771244c8-100">
          <g class="color_LCHab{Float32}(70.0f0,60.0f0,240.0f0)" stroke-dasharray="none" stroke="#00BFFF" id="img-771244c8-101">
            <g transform="translate(93.55,27.17)" id="img-771244c8-102">
              <path fill="none" d="M-9.15,-20.17 L -9.15 -20.16 -9.14 -20.06 -9.12 -19.41 -9.08 -18.05 -9.02 -16.21 -8.94 -14.12 -8.85 -11.8 -8.73 -9.45 -8.6 -7.16 -8.44 -5.06 -8.28 -3.2 -8.1 -1.61 -7.9 -0.29 -7.7 0.77 -7.48 1.61 -7.26 2.27 -7.03 2.77 -6.79 3.15 -6.54 3.43 -6.27 3.65 -6 3.8 -5.7 3.92 -5.38 4 -5.03 4.07 -4.64 4.11 -4.2 4.13 -3.72 4.15 -3.21 4.16 -2.68 4.17 -2.13 4.17 -1.55 4.17 -0.93 4.17 -0.28 4.17 0.44 4.17 1.22 4.17 2.11 4.17 3.1 4.17 3.86 4.17 4.51 4.17 5.12 4.17 5.73 4.17 6.36 4.17 7.01 4.17 7.67 4.17 8.35 4.17 9.02 4.17 9.68 4.17 10.34 4.17 11 4.17 11.66 4.17 12.98 4.17 14.35 4.17 16.08 4.17 18.43 4.17 21.87 4.17 26.12 4.17" class="primitive"/>
            </g>
          </g>
        </g>
      </g>
    </g>
  </g>
  <g class="guide ylabels" font-size="2.82" font-family="'PT Sans Caption','Helvetica Neue','Helvetica',sans-serif" fill="#6C606B" id="img-771244c8-103">
    <g transform="translate(81.4,37.43)" id="img-771244c8-104">
      <g class="primitive">
        <text text-anchor="end" dy="0.35em">-10</text>
      </g>
    </g>
    <g transform="translate(81.4,31.34)" id="img-771244c8-105">
      <g class="primitive">
        <text text-anchor="end" dy="0.35em">0</text>
      </g>
    </g>
    <g transform="translate(81.4,25.26)" id="img-771244c8-106">
      <g class="primitive">
        <text text-anchor="end" dy="0.35em">10</text>
      </g>
    </g>
    <g transform="translate(81.4,19.17)" id="img-771244c8-107">
      <g class="primitive">
        <text text-anchor="end" dy="0.35em">20</text>
      </g>
    </g>
    <g transform="translate(81.4,13.09)" id="img-771244c8-108">
      <g class="primitive">
        <text text-anchor="end" dy="0.35em">30</text>
      </g>
    </g>
    <g transform="translate(81.4,7)" id="img-771244c8-109">
      <g class="primitive">
        <text text-anchor="end" dy="0.35em">40</text>
      </g>
    </g>
  </g>
  <g font-size="3.88" font-family="'PT Sans','Helvetica Neue','Helvetica',sans-serif" fill="#564A55" stroke="#000000" stroke-opacity="0.000" id="img-771244c8-110">
    <g transform="translate(72.14,20.21)" id="img-771244c8-111">
      <g class="primitive">
        <text text-anchor="middle" dy="0.35em" transform="rotate(-90,0, 2)">L_f</text>
      </g>
    </g>
  </g>
</g>
<g class="plotroot xscalable yscalable" id="img-771244c8-112">
  <g font-size="3.88" font-family="'PT Sans','Helvetica Neue','Helvetica',sans-serif" fill="#564A55" stroke="#000000" stroke-opacity="0.000" id="img-771244c8-113">
    <g transform="translate(42.53,47.1)" id="img-771244c8-114">
      <g class="primitive">
        <text text-anchor="middle" dy="0.6em">time (days)</text>
      </g>
    </g>
  </g>
  <g class="guide xlabels" font-size="2.82" font-family="'PT Sans Caption','Helvetica Neue','Helvetica',sans-serif" fill="#6C606B" id="img-771244c8-115">
    <g transform="translate(28.72,40.43)" id="img-771244c8-116">
      <g class="primitive">
        <text text-anchor="middle" dy="0.6em">0</text>
      </g>
    </g>
    <g transform="translate(35.63,40.43)" id="img-771244c8-117">
      <g class="primitive">
        <text text-anchor="middle" dy="0.6em">500</text>
      </g>
    </g>
    <g transform="translate(42.53,40.43)" id="img-771244c8-118">
      <g class="primitive">
        <text text-anchor="middle" dy="0.6em">1000</text>
      </g>
    </g>
    <g transform="translate(49.43,40.43)" id="img-771244c8-119">
      <g class="primitive">
        <text text-anchor="middle" dy="0.6em">1500</text>
      </g>
    </g>
    <g transform="translate(56.33,40.43)" id="img-771244c8-120">
      <g class="primitive">
        <text text-anchor="middle" dy="0.6em">2000</text>
      </g>
    </g>
  </g>
  <g clip-path="url(#img-771244c8-121)">
    <g id="img-771244c8-122">
      <g pointer-events="visible" fill="#000000" fill-opacity="0.000" stroke="#000000" stroke-opacity="0.000" class="guide background" id="img-771244c8-123">
        <g transform="translate(42.53,22.21)" id="img-771244c8-124">
          <path d="M-15.8,-17.21 L 15.8 -17.21 15.8 17.21 -15.8 17.21 z" class="primitive"/>
        </g>
      </g>
      <g class="guide ygridlines xfixed" stroke-dasharray="0.5,0.5" stroke-width="0.2" stroke="#D0D0E0" id="img-771244c8-125">
        <g transform="translate(42.53,37.43)" id="img-771244c8-126">
          <path fill="none" d="M-15.8,0 L 15.8 0" class="primitive"/>
        </g>
        <g transform="translate(42.53,32.36)" id="img-771244c8-127">
          <path fill="none" d="M-15.8,0 L 15.8 0" class="primitive"/>
        </g>
        <g transform="translate(42.53,27.29)" id="img-771244c8-128">
          <path fill="none" d="M-15.8,0 L 15.8 0" class="primitive"/>
        </g>
        <g transform="translate(42.53,22.21)" id="img-771244c8-129">
          <path fill="none" d="M-15.8,0 L 15.8 0" class="primitive"/>
        </g>
        <g transform="translate(42.53,17.14)" id="img-771244c8-130">
          <path fill="none" d="M-15.8,0 L 15.8 0" class="primitive"/>
        </g>
        <g transform="translate(42.53,12.07)" id="img-771244c8-131">
          <path fill="none" d="M-15.8,0 L 15.8 0" class="primitive"/>
        </g>
        <g transform="translate(42.53,7)" id="img-771244c8-132">
          <path fill="none" d="M-15.8,0 L 15.8 0" class="primitive"/>
        </g>
      </g>
      <g class="guide xgridlines yfixed" stroke-dasharray="0.5,0.5" stroke-width="0.2" stroke="#D0D0E0" id="img-771244c8-133">
        <g transform="translate(28.72,22.21)" id="img-771244c8-134">
          <path fill="none" d="M0,-17.21 L 0 17.21" class="primitive"/>
        </g>
        <g transform="translate(35.63,22.21)" id="img-771244c8-135">
          <path fill="none" d="M0,-17.21 L 0 17.21" class="primitive"/>
        </g>
        <g transform="translate(42.53,22.21)" id="img-771244c8-136">
          <path fill="none" d="M0,-17.21 L 0 17.21" class="primitive"/>
        </g>
        <g transform="translate(49.43,22.21)" id="img-771244c8-137">
          <path fill="none" d="M0,-17.21 L 0 17.21" class="primitive"/>
        </g>
        <g transform="translate(56.33,22.21)" id="img-771244c8-138">
          <path fill="none" d="M0,-17.21 L 0 17.21" class="primitive"/>
        </g>
      </g>
      <g class="plotpanel" id="img-771244c8-139">
        <metadata>
          <boundingbox value="26.725mm 5.0mm 31.608333333333327mm 34.42945mm"/>
          <unitbox value="-144.88379112586782 23394.35481088222 2289.767582251736 -6788.709621764441"/>
        </metadata>
        <g stroke-width="0.3" fill="#000000" fill-opacity="0.000" class="geometry" id="img-771244c8-140">
          <g class="color_LCHab{Float32}(70.0f0,60.0f0,240.0f0)" stroke-dasharray="none" stroke="#00BFFF" id="img-771244c8-141">
            <g transform="translate(35.89,30.92)" id="img-771244c8-142">
              <path fill="none" d="M-7.16,-20.88 L -7.16 -20.87 -7.16 -20.75 -7.14 -19.99 -7.11 -18.41 -7.06 -16.3 -7 -13.89 -6.93 -11.27 -6.83 -8.66 -6.73 -6.19 -6.61 -3.98 -6.48 -2.1 -6.34 -0.55 -6.19 0.67 -6.03 1.6 -5.86 2.3 -5.68 2.81 -5.5 3.17 -5.31 3.43 -5.12 3.61 -4.91 3.74 -4.7 3.82 -4.47 3.88 -4.21 3.91 -3.94 3.94 -3.63 3.95 -3.28 3.96 -2.91 3.97 -2.52 3.97 -2.1 3.97 -1.67 3.97 -1.21 3.97 -0.73 3.97 -0.22 3.97 0.34 3.97 0.96 3.97 1.65 3.97 2.43 3.97 3.02 3.97 3.53 3.97 4.01 3.97 4.49 3.97 4.98 3.97 5.49 3.97 6.01 3.97 6.54 3.97 7.06 3.97 7.58 3.97 8.1 3.97 8.61 3.97 9.13 3.97 10.16 3.97 11.23 3.97 12.59 3.97 14.43 3.97 17.13 3.97 20.45 3.97" class="primitive"/>
            </g>
          </g>
        </g>
      </g>
    </g>
  </g>
  <g class="guide ylabels" font-size="2.82" font-family="'PT Sans Caption','Helvetica Neue','Helvetica',sans-serif" fill="#6C606B" id="img-771244c8-143">
    <g transform="translate(25.72,37.43)" id="img-771244c8-144">
      <g class="primitive">
        <text text-anchor="end" dy="0.35em">1.7×10⁴</text>
      </g>
    </g>
    <g transform="translate(25.72,32.36)" id="img-771244c8-145">
      <g class="primitive">
        <text text-anchor="end" dy="0.35em">1.8×10⁴</text>
      </g>
    </g>
    <g transform="translate(25.72,27.29)" id="img-771244c8-146">
      <g class="primitive">
        <text text-anchor="end" dy="0.35em">1.9×10⁴</text>
      </g>
    </g>
    <g transform="translate(25.72,22.21)" id="img-771244c8-147">
      <g class="primitive">
        <text text-anchor="end" dy="0.35em">2.0×10⁴</text>
      </g>
    </g>
    <g transform="translate(25.72,17.14)" id="img-771244c8-148">
      <g class="primitive">
        <text text-anchor="end" dy="0.35em">2.1×10⁴</text>
      </g>
    </g>
    <g transform="translate(25.72,12.07)" id="img-771244c8-149">
      <g class="primitive">
        <text text-anchor="end" dy="0.35em">2.2×10⁴</text>
      </g>
    </g>
    <g transform="translate(25.72,7)" id="img-771244c8-150">
      <g class="primitive">
        <text text-anchor="end" dy="0.35em">2.3×10⁴</text>
      </g>
    </g>
  </g>
  <g font-size="3.88" font-family="'PT Sans','Helvetica Neue','Helvetica',sans-serif" fill="#564A55" stroke="#000000" stroke-opacity="0.000" id="img-771244c8-151">
    <g transform="translate(8.81,20.21)" id="img-771244c8-152">
      <g class="primitive">
        <text text-anchor="middle" dy="0.35em" transform="rotate(-90,0, 2)">S_fs</text>
      </g>
    </g>
  </g>
</g>
<defs>
  <clipPath id="img-771244c8-4">
    <path d="M26.73,63.71 L 185 63.71 185 98.14 26.73 98.14" />
  </clipPath>
  <clipPath id="img-771244c8-45">
    <path d="M145.74,5 L 185 5 185 39.43 145.74 39.43" />
  </clipPath>
  <clipPath id="img-771244c8-82">
    <path d="M82.4,5 L 121.67 5 121.67 39.43 82.4 39.43" />
  </clipPath>
  <clipPath id="img-771244c8-121">
    <path d="M26.72,5 L 58.33 5 58.33 39.43 26.72 39.43" />
  </clipPath>
</defs>
</svg>
